{"glyphs":{"0":{"ha":564,"x_min":13,"x_max":549,"o":"m 13 336 q 26 223 13 283 q 67 110 39 163 q 140 24 94 58 q 249 -11 185 -11 q 372 28 317 -11 q 466 128 426 68 q 527 257 506 188 q 549 386 549 326 q 527 501 549 442 q 468 610 506 561 q 379 692 431 660 q 267 724 328 724 q 144 685 193 724 q 65 590 94 647 q 24 464 36 532 q 13 336 13 396 m 182 204 q 203 221 182 213 q 252 235 224 229 q 309 246 281 242 q 353 250 338 250 q 344 214 353 232 q 320 181 335 196 q 288 156 306 165 q 253 146 271 146 q 207 161 232 146 q 182 204 182 176 m 267 575 q 305 565 288 575 q 335 540 322 556 q 354 506 347 525 q 361 465 361 486 q 360 454 361 457 q 350 446 358 451 q 322 429 343 442 q 278 402 301 417 q 233 375 254 388 q 201 357 211 363 q 177 342 190 350 q 149 335 164 335 q 151 405 149 364 q 164 484 153 446 q 199 549 175 522 q 267 575 222 575 z "},"1":{"ha":376,"x_min":14,"x_max":364,"o":"m 54 29 l 54 13 l 364 85 l 272 218 l 272 515 q 276 524 272 517 q 282 535 279 532 q 296 553 286 540 q 317 580 306 565 q 338 607 328 594 q 351 624 347 619 q 352 630 351 626 q 353 635 353 633 q 332 683 353 658 q 292 724 311 708 q 276 710 288 719 q 251 689 264 700 q 228 668 239 678 q 213 654 217 658 q 173 614 201 643 q 113 553 144 585 q 53 492 81 521 q 14 451 25 463 l 133 451 l 133 178 l 54 29 z "},"2":{"ha":585,"x_min":14,"x_max":571,"o":"m 54 -10 l 54 -22 q 135 -15 94 -22 q 215 -1 175 -8 q 296 14 256 7 q 376 21 336 21 l 390 21 q 426 15 400 19 q 480 6 451 11 q 534 -3 508 1 q 569 -10 560 -8 q 570 5 569 -7 q 571 21 571 17 q 556 153 571 85 q 529 278 542 222 q 473 226 497 247 q 424 190 449 206 q 369 163 399 175 q 301 139 340 151 q 380 215 342 176 q 447 295 418 253 q 494 385 476 338 q 511 492 511 433 q 301 706 511 706 q 208 689 246 706 q 140 645 171 672 q 81 585 110 618 q 14 517 51 551 q 28 501 17 513 q 43 486 40 489 q 73 462 51 479 q 119 426 94 444 q 164 390 143 407 q 193 367 185 372 q 202 362 194 365 q 213 357 210 358 l 213 363 l 213 367 q 207 389 211 371 q 197 427 203 407 q 188 465 192 447 q 182 486 183 482 l 182 508 q 200 547 182 538 q 243 557 218 557 q 319 531 286 557 q 351 457 351 504 q 340 403 351 425 q 311 357 329 382 q 281 315 301 343 q 236 250 261 286 q 183 174 211 214 q 130 97 156 133 q 84 33 104 61 q 54 -10 64 4 z "},"3":{"ha":554,"x_min":11,"x_max":539,"o":"m 24 336 l 24 326 q 32 265 26 307 q 44 176 38 222 q 56 92 50 131 q 64 40 61 53 q 67 19 64 35 q 74 0 71 4 l 83 0 q 135 15 111 0 q 188 31 160 31 q 219 26 204 31 q 248 15 233 21 q 278 3 263 8 q 311 -1 294 -1 q 392 17 351 -1 q 465 67 432 36 q 518 138 497 99 q 539 218 539 176 q 533 249 539 235 q 519 278 526 264 q 505 305 511 292 q 499 332 499 318 l 499 336 q 524 402 510 369 q 539 471 539 435 q 522 569 539 525 q 472 646 504 614 q 395 695 440 678 q 296 713 350 713 q 199 704 242 713 q 113 664 156 696 q 94 672 106 667 q 67 683 82 678 q 38 692 53 688 q 11 696 24 696 q 12 680 11 693 q 14 664 13 667 q 22 628 15 653 q 34 574 28 603 q 46 520 40 546 q 54 485 51 494 q 58 478 54 482 q 64 475 61 475 q 73 478 65 475 q 83 485 81 482 q 128 519 107 500 q 172 554 150 538 q 219 583 194 571 q 271 594 243 594 q 317 586 294 594 q 359 563 340 578 q 390 526 378 547 q 401 479 401 506 q 392 454 401 464 q 367 438 382 444 q 338 430 353 432 q 311 426 322 428 q 282 424 303 425 q 237 420 261 422 q 192 417 213 418 q 163 415 171 415 l 311 257 q 321 238 319 247 q 322 218 322 229 q 299 165 322 182 q 242 147 275 147 q 227 148 239 147 q 213 149 215 149 q 119 248 163 196 q 24 347 75 300 l 24 336 z "},"4":{"ha":544,"x_min":4,"x_max":529,"o":"m 163 10 l 163 -8 l 529 149 l 529 158 q 513 178 525 164 q 489 208 501 192 q 465 238 476 224 q 450 257 454 251 q 444 267 447 260 q 440 278 440 275 l 440 614 l 492 718 l 282 644 q 312 570 308 610 q 315 490 315 531 q 315 476 315 485 q 313 458 314 467 q 312 443 313 450 q 311 436 311 436 l 203 406 l 203 525 q 210 535 204 528 q 222 549 215 542 q 233 565 228 557 q 242 575 239 572 l 242 579 l 242 585 l 232 594 l 24 693 l 14 693 l 24 674 q 35 656 26 668 q 53 628 43 643 q 71 601 63 614 q 83 585 79 589 l 83 554 l 4 183 l 182 278 l 282 278 l 282 189 l 163 10 z "},"5":{"ha":554,"x_min":13,"x_max":539,"o":"m 14 282 l 14 268 q 22 213 15 253 q 34 129 28 174 q 46 45 40 85 q 54 -10 51 6 q 70 5 58 -6 q 97 28 82 15 q 126 52 111 40 q 153 69 142 64 q 155 70 153 69 q 158 71 157 71 l 163 69 q 185 49 178 57 q 199 33 193 40 q 215 21 206 26 q 242 10 224 15 l 306 10 q 442 40 381 10 q 529 149 503 71 q 529 161 529 153 q 530 181 529 171 q 531 199 531 190 q 531 213 531 208 q 503 358 531 307 q 427 431 475 408 q 314 458 379 454 q 174 461 249 461 q 167 483 174 467 q 163 506 160 500 l 192 515 q 229 526 206 519 q 276 538 253 532 q 319 549 300 544 q 340 554 338 554 q 347 556 342 556 q 357 556 354 556 q 403 544 383 556 q 450 515 422 533 l 460 525 l 539 703 l 539 731 l 182 633 l 160 633 q 100 651 125 633 q 43 683 75 669 q 38 626 42 667 q 28 539 33 585 q 19 453 24 493 q 14 396 15 413 q 13 388 14 393 q 13 381 13 383 q 112 382 56 381 q 219 372 168 383 q 306 331 271 361 q 342 236 342 300 q 331 163 342 189 q 269 138 319 138 q 197 156 231 138 q 133 201 164 175 q 72 253 101 226 q 14 297 43 281 l 14 282 z "},"6":{"ha":585,"x_min":13,"x_max":569,"o":"m 13 265 q 31 165 13 214 q 83 76 50 115 q 160 13 115 38 q 258 -11 206 -11 q 358 0 304 -11 q 460 36 413 11 q 538 101 507 61 q 569 197 569 140 q 544 318 569 269 q 478 397 519 367 q 381 442 436 426 q 263 467 325 458 q 305 542 272 511 q 377 599 338 574 q 456 648 417 624 q 519 704 496 672 l 163 704 l 242 625 q 163 544 204 581 q 89 467 122 507 q 34 378 56 426 q 13 265 13 331 m 171 261 q 188 324 171 300 q 247 349 206 349 q 299 341 272 349 q 349 318 326 333 q 387 281 372 303 q 401 229 401 258 q 361 169 401 183 q 333 168 354 168 q 307 168 314 168 q 258 172 282 168 q 214 185 233 175 q 183 213 194 194 q 171 261 171 231 z "},"7":{"ha":574,"x_min":14,"x_max":561,"o":"m 340 465 q 154 243 239 367 q 14 -10 69 119 l 460 -10 q 426 23 449 1 q 379 65 403 44 q 338 102 356 86 q 321 119 321 118 l 561 664 l 549 664 q 390 601 474 615 q 222 588 307 588 l 222 722 q 195 710 210 717 q 167 696 181 704 q 140 676 153 688 q 122 653 128 665 l 14 426 q 19 425 15 425 q 21 425 19 425 q 24 426 24 425 q 47 433 28 428 q 88 446 65 439 q 128 459 110 453 q 153 465 147 465 q 166 466 154 465 q 192 467 178 467 q 222 468 207 468 q 246 468 238 468 q 265 468 251 468 q 294 467 279 468 q 322 466 308 467 q 340 465 335 465 z "},"8":{"ha":585,"x_min":13,"x_max":571,"o":"m 13 233 q 35 129 13 175 q 97 53 58 83 q 186 6 135 22 q 296 -10 238 -10 q 394 2 344 -10 q 483 40 443 14 q 547 105 522 65 q 571 201 571 144 q 558 266 571 239 q 522 314 544 293 q 471 350 500 335 q 411 376 442 365 q 444 408 422 396 q 487 433 465 419 q 524 469 508 447 q 540 531 540 490 q 517 619 540 583 q 458 676 494 654 q 377 706 422 697 q 286 715 332 715 q 203 706 243 715 q 131 674 163 696 q 81 617 100 651 q 63 535 63 583 q 66 497 63 511 q 77 470 69 482 q 99 447 85 458 q 133 417 113 435 q 13 233 13 364 m 182 224 q 199 255 182 242 q 232 268 215 268 l 361 268 q 402 247 393 268 q 411 204 411 226 q 403 164 411 181 q 371 139 394 147 q 344 138 364 139 q 317 138 324 138 q 272 140 296 138 q 228 152 249 143 q 195 178 208 161 q 182 224 182 196 m 231 522 q 233 548 231 536 q 251 565 235 560 q 274 566 257 565 q 296 567 292 567 q 322 566 307 567 q 351 561 338 565 q 373 548 364 557 q 382 522 382 539 q 360 469 382 493 q 310 446 339 446 q 252 466 274 446 q 231 522 231 486 z "},"9":{"ha":544,"x_min":13,"x_max":531,"o":"m 61 86 l 371 -10 l 382 -10 q 381 -5 382 -8 q 381 0 381 -1 q 373 17 379 4 q 360 45 367 31 q 348 73 354 60 q 340 89 342 86 l 340 99 l 340 110 q 413 191 379 150 q 474 277 447 232 q 515 372 500 322 q 531 481 531 422 q 478 651 531 588 q 313 714 425 714 q 222 709 268 714 q 135 688 175 704 q 63 643 94 672 q 14 565 31 614 q 14 551 14 561 q 13 533 14 543 q 13 513 13 522 q 13 500 13 504 q 31 389 13 435 q 83 312 50 343 q 165 260 117 281 q 271 228 213 240 q 244 187 265 204 q 203 158 222 169 q 177 146 196 154 q 138 128 158 138 q 99 110 118 118 q 74 99 81 101 l 61 86 m 161 475 q 184 540 161 514 q 247 565 207 565 q 295 551 275 565 q 328 515 315 536 q 346 467 340 493 q 351 415 351 440 q 351 395 351 404 q 340 376 350 386 q 316 376 335 376 q 292 375 297 375 q 243 381 267 375 q 201 398 219 386 q 172 428 183 410 q 161 475 161 447 z "},"¯":{"ha":683,"x_min":14,"x_max":668,"o":"m 264 -8 l 535 431 l 668 431 l 668 456 q 657 484 668 456 q 630 552 646 513 q 597 634 614 592 q 569 704 581 676 q 563 716 567 708 q 558 724 560 724 l 454 724 l 454 585 l 242 268 l 222 247 l 213 257 q 205 266 211 258 q 192 282 199 274 q 180 298 186 290 q 172 307 174 306 l 163 317 l 14 317 l 264 -8 z "},"±":{"ha":683,"x_min":14,"x_max":668,"o":"m 264 -8 l 535 431 l 668 431 l 668 456 q 657 484 668 456 q 630 552 646 513 q 597 634 614 592 q 569 704 581 676 q 563 716 567 708 q 558 724 560 724 l 454 724 l 454 585 l 242 268 l 222 247 l 213 257 q 205 266 211 258 q 192 282 199 274 q 180 298 186 290 q 172 307 174 306 l 163 317 l 14 317 l 264 -8 z "},"²":{"ha":683,"x_min":14,"x_max":668,"o":"m 264 -8 l 535 431 l 668 431 l 668 456 q 657 484 668 456 q 630 552 646 513 q 597 634 614 592 q 569 704 581 676 q 563 716 567 708 q 558 724 560 724 l 454 724 l 454 585 l 242 268 l 222 247 l 213 257 q 205 266 211 258 q 192 282 199 274 q 180 298 186 290 q 172 307 174 306 l 163 317 l 14 317 l 264 -8 z "},"³":{"ha":683,"x_min":14,"x_max":668,"o":"m 264 -8 l 535 431 l 668 431 l 668 456 q 657 484 668 456 q 630 552 646 513 q 597 634 614 592 q 569 704 581 676 q 563 716 567 708 q 558 724 560 724 l 454 724 l 454 585 l 242 268 l 222 247 l 213 257 q 205 266 211 258 q 192 282 199 274 q 180 298 186 290 q 172 307 174 306 l 163 317 l 14 317 l 264 -8 z "},"µ":{"ha":683,"x_min":14,"x_max":668,"o":"m 264 -8 l 535 431 l 668 431 l 668 456 q 657 484 668 456 q 630 552 646 513 q 597 634 614 592 q 569 704 581 676 q 563 716 567 708 q 558 724 560 724 l 454 724 l 454 585 l 242 268 l 222 247 l 213 257 q 205 266 211 258 q 192 282 199 274 q 180 298 186 290 q 172 307 174 306 l 163 317 l 14 317 l 264 -8 z "},"·":{"ha":683,"x_min":14,"x_max":668,"o":"m 264 -8 l 535 431 l 668 431 l 668 456 q 657 484 668 456 q 630 552 646 513 q 597 634 614 592 q 569 704 581 676 q 563 716 567 708 q 558 724 560 724 l 454 724 l 454 585 l 242 268 l 222 247 l 213 257 q 205 266 211 258 q 192 282 199 274 q 180 298 186 290 q 172 307 174 306 l 163 317 l 14 317 l 264 -8 z "},"¸":{"ha":683,"x_min":14,"x_max":668,"o":"m 264 -8 l 535 431 l 668 431 l 668 456 q 657 484 668 456 q 630 552 646 513 q 597 634 614 592 q 569 704 581 676 q 563 716 567 708 q 558 724 560 724 l 454 724 l 454 585 l 242 268 l 222 247 l 213 257 q 205 266 211 258 q 192 282 199 274 q 180 298 186 290 q 172 307 174 306 l 163 317 l 14 317 l 264 -8 z "},"¹":{"ha":683,"x_min":14,"x_max":668,"o":"m 264 -8 l 535 431 l 668 431 l 668 456 q 657 484 668 456 q 630 552 646 513 q 597 634 614 592 q 569 704 581 676 q 563 716 567 708 q 558 724 560 724 l 454 724 l 454 585 l 242 268 l 222 247 l 213 257 q 205 266 211 258 q 192 282 199 274 q 180 298 186 290 q 172 307 174 306 l 163 317 l 14 317 l 264 -8 z "},"»":{"ha":683,"x_min":14,"x_max":668,"o":"m 264 -8 l 535 431 l 668 431 l 668 456 q 657 484 668 456 q 630 552 646 513 q 597 634 614 592 q 569 704 581 676 q 563 716 567 708 q 558 724 560 724 l 454 724 l 454 585 l 242 268 l 222 247 l 213 257 q 205 266 211 258 q 192 282 199 274 q 180 298 186 290 q 172 307 174 306 l 163 317 l 14 317 l 264 -8 z "},"¼":{"ha":683,"x_min":14,"x_max":668,"o":"m 264 -8 l 535 431 l 668 431 l 668 456 q 657 484 668 456 q 630 552 646 513 q 597 634 614 592 q 569 704 581 676 q 563 716 567 708 q 558 724 560 724 l 454 724 l 454 585 l 242 268 l 222 247 l 213 257 q 205 266 211 258 q 192 282 199 274 q 180 298 186 290 q 172 307 174 306 l 163 317 l 14 317 l 264 -8 z "},"½":{"ha":683,"x_min":14,"x_max":668,"o":"m 264 -8 l 535 431 l 668 431 l 668 456 q 657 484 668 456 q 630 552 646 513 q 597 634 614 592 q 569 704 581 676 q 563 716 567 708 q 558 724 560 724 l 454 724 l 454 585 l 242 268 l 222 247 l 213 257 q 205 266 211 258 q 192 282 199 274 q 180 298 186 290 q 172 307 174 306 l 163 317 l 14 317 l 264 -8 z "},"¾":{"ha":683,"x_min":14,"x_max":668,"o":"m 264 -8 l 535 431 l 668 431 l 668 456 q 657 484 668 456 q 630 552 646 513 q 597 634 614 592 q 569 704 581 676 q 563 716 567 708 q 558 724 560 724 l 454 724 l 454 585 l 242 268 l 222 247 l 213 257 q 205 266 211 258 q 192 282 199 274 q 180 298 186 290 q 172 307 174 306 l 163 317 l 14 317 l 264 -8 z "},"×":{"ha":683,"x_min":14,"x_max":668,"o":"m 264 -8 l 535 431 l 668 431 l 668 456 q 657 484 668 456 q 630 552 646 513 q 597 634 614 592 q 569 704 581 676 q 563 716 567 708 q 558 724 560 724 l 454 724 l 454 585 l 242 268 l 222 247 l 213 257 q 205 266 211 258 q 192 282 199 274 q 180 298 186 290 q 172 307 174 306 l 163 317 l 14 317 l 264 -8 z "},"Ø":{"ha":683,"x_min":14,"x_max":668,"o":"m 264 -8 l 535 431 l 668 431 l 668 456 q 657 484 668 456 q 630 552 646 513 q 597 634 614 592 q 569 704 581 676 q 563 716 567 708 q 558 724 560 724 l 454 724 l 454 585 l 242 268 l 222 247 l 213 257 q 205 266 211 258 q 192 282 199 274 q 180 298 186 290 q 172 307 174 306 l 163 317 l 14 317 l 264 -8 z "},"Ý":{"ha":683,"x_min":14,"x_max":668,"o":"m 264 -8 l 535 431 l 668 431 l 668 456 q 657 484 668 456 q 630 552 646 513 q 597 634 614 592 q 569 704 581 676 q 563 716 567 708 q 558 724 560 724 l 454 724 l 454 585 l 242 268 l 222 247 l 213 257 q 205 266 211 258 q 192 282 199 274 q 180 298 186 290 q 172 307 174 306 l 163 317 l 14 317 l 264 -8 z "},"Þ":{"ha":683,"x_min":14,"x_max":668,"o":"m 264 -8 l 535 431 l 668 431 l 668 456 q 657 484 668 456 q 630 552 646 513 q 597 634 614 592 q 569 704 581 676 q 563 716 567 708 q 558 724 560 724 l 454 724 l 454 585 l 242 268 l 222 247 l 213 257 q 205 266 211 258 q 192 282 199 274 q 180 298 186 290 q 172 307 174 306 l 163 317 l 14 317 l 264 -8 z "}," ":{"ha":694,"x_min":0,"x_max":0,"o":""},"!":{"ha":396,"x_min":13,"x_max":381,"o":"m 72 69 q 75 43 72 57 q 85 17 78 29 q 102 -2 92 6 q 128 -10 113 -10 q 178 6 156 -10 q 217 46 201 22 q 242 97 233 69 q 251 149 251 125 q 242 182 251 169 q 219 200 233 194 q 188 207 206 206 q 151 208 169 208 q 113 193 128 208 q 88 156 97 178 q 76 111 79 135 q 72 69 72 88 m 13 703 q 28 548 13 628 q 74 396 43 468 q 89 360 79 382 q 108 318 99 339 q 125 283 118 297 q 133 268 132 268 l 201 268 q 213 290 207 268 q 224 342 218 313 q 238 401 231 371 q 251 446 244 431 q 277 497 258 460 q 316 574 296 533 q 355 652 336 615 q 381 703 374 689 l 13 703 z "},"\"":{"ha":313,"x_min":11,"x_max":294,"o":"m 19 531 l 11 533 q 14 565 14 540 q 14 622 14 590 q 13 690 14 654 q 13 754 13 725 q 14 804 13 785 q 19 824 15 824 q 91 823 61 824 q 122 821 121 822 l 140 817 l 131 529 l 19 531 m 174 528 l 165 531 q 168 563 168 538 q 168 619 168 588 q 167 687 168 651 q 167 751 167 722 q 168 801 167 782 q 174 821 169 821 q 245 820 215 821 q 276 818 275 819 l 294 814 l 285 526 l 174 528 z "},"#":{"ha":803,"x_min":14,"x_max":788,"o":"m 113 203 q 98 126 103 157 q 93 54 93 94 l 93 29 q 119 39 100 32 q 158 53 138 46 q 197 69 178 61 q 222 79 215 76 q 238 85 225 79 q 251 99 250 92 l 272 208 l 408 208 q 403 133 408 169 q 399 58 399 97 l 421 58 l 550 108 l 560 118 q 561 128 560 119 q 565 148 563 138 q 568 167 567 158 q 569 178 569 175 q 576 206 572 189 q 579 222 579 222 l 674 222 l 732 386 l 613 386 q 610 403 613 393 q 608 425 608 414 q 609 447 607 436 q 618 465 611 458 q 631 465 619 465 q 655 467 642 465 q 681 472 668 468 q 699 485 694 476 l 788 664 l 768 664 q 708 659 738 664 q 649 654 679 654 l 649 754 q 627 753 649 754 q 581 747 606 751 q 533 738 556 743 q 510 724 511 732 l 490 633 q 472 626 489 629 q 433 619 454 622 q 390 615 411 617 q 361 614 369 614 l 331 614 q 339 663 335 636 q 343 714 343 690 q 317 711 339 714 q 269 706 294 708 q 223 699 243 703 q 203 693 203 694 l 181 586 l 74 565 q 60 548 65 564 q 50 513 54 532 q 44 474 46 493 q 42 450 42 456 l 150 450 q 152 433 150 447 q 153 415 154 419 q 148 389 151 404 q 142 358 144 374 q 136 333 139 343 q 133 322 133 322 l 47 322 l 14 203 l 113 203 m 461 456 q 449 393 461 415 q 416 360 438 371 q 365 348 394 350 q 299 346 335 346 q 299 358 299 350 q 299 376 299 367 q 301 394 300 386 q 301 406 301 403 q 306 436 303 417 q 311 456 310 456 l 461 456 z "},"$":{"ha":554,"x_min":7,"x_max":539,"o":"m 292 108 q 285 53 292 81 q 279 -1 279 26 q 285 -1 281 -1 q 292 0 290 0 q 328 8 301 1 q 385 20 356 14 q 442 32 415 26 q 479 40 468 38 l 479 44 l 479 50 q 476 63 479 53 q 469 85 472 74 q 463 106 467 96 q 460 119 460 117 q 459 126 460 119 q 458 135 458 132 q 471 165 458 147 q 499 205 483 182 q 526 255 514 228 q 539 313 539 282 q 514 411 539 372 q 451 474 489 450 q 370 513 414 499 q 289 540 326 528 q 226 567 251 553 q 201 607 201 582 q 228 659 201 644 q 286 674 254 674 q 315 674 301 674 q 340 664 329 675 q 358 647 346 660 q 385 620 371 635 q 413 593 400 606 q 429 575 425 581 l 440 575 q 449 590 442 575 q 460 614 456 604 q 480 665 468 633 q 503 726 492 696 q 522 778 514 757 q 529 801 529 800 l 529 815 q 519 814 526 815 q 508 813 511 813 q 497 806 506 811 q 479 796 489 801 q 460 786 469 790 q 450 782 451 782 q 437 786 447 782 q 415 796 426 790 q 393 806 403 801 q 381 813 383 811 q 369 815 378 813 q 351 822 361 818 q 331 828 340 825 q 321 832 322 831 l 301 842 q 316 894 308 864 q 324 951 324 925 q 276 953 306 951 q 219 953 247 956 q 172 943 192 951 q 151 914 151 935 q 157 874 151 893 q 163 836 163 856 q 142 806 163 819 q 97 772 122 793 q 52 717 72 751 q 32 625 32 683 q 53 539 32 574 q 107 481 75 504 q 176 440 139 457 q 246 407 214 424 q 299 371 278 390 q 321 322 321 351 q 309 276 321 294 q 268 257 297 257 q 243 257 253 257 q 222 267 233 257 l 24 426 l 7 426 l 74 149 q 77 138 74 146 q 83 129 81 131 q 85 128 83 128 q 88 128 88 128 q 93 129 93 128 q 105 147 97 135 q 122 172 113 158 q 142 198 132 185 q 163 218 153 211 q 212 149 176 174 q 292 119 247 125 l 292 108 z "},"%":{"ha":683,"x_min":13,"x_max":668,"o":"m 93 10 l 93 -7 l 261 50 q 270 65 263 50 q 282 89 278 81 q 309 154 290 110 q 351 254 328 199 q 401 372 375 310 q 450 489 426 433 q 492 589 474 544 q 519 654 511 633 l 529 683 q 530 690 529 685 q 531 696 531 694 q 506 695 525 696 q 479 693 486 694 q 458 692 471 693 q 432 688 444 690 q 410 685 419 686 q 400 683 400 683 l 390 674 l 93 10 m 439 218 q 444 166 439 194 q 461 114 449 138 q 494 74 474 90 q 544 58 514 58 q 599 75 575 58 q 638 117 622 92 q 660 173 653 143 q 668 228 668 203 q 661 281 668 254 q 640 330 654 308 q 602 365 625 351 q 549 378 579 378 q 496 363 517 378 q 463 324 475 347 q 444 273 450 301 q 439 218 439 244 m 549 268 q 569 256 568 268 q 569 228 569 243 q 569 214 569 222 q 568 197 569 206 q 563 183 567 189 q 550 178 558 178 q 538 179 546 178 q 529 189 529 181 l 529 257 q 537 267 529 265 q 549 268 544 268 m 13 565 q 16 514 13 542 q 31 463 19 486 q 61 422 42 439 q 113 406 81 406 q 167 423 143 406 q 208 466 192 440 q 234 522 225 492 q 243 579 243 553 q 235 632 243 606 q 210 679 226 658 q 172 713 194 700 q 121 725 150 725 q 65 710 86 725 q 33 673 44 696 q 17 622 21 650 q 13 565 13 593 m 93 569 q 95 601 93 585 q 117 617 97 617 q 140 603 136 617 q 143 575 143 590 q 142 561 143 569 q 139 544 142 553 q 131 531 136 536 q 118 525 126 525 q 98 542 103 525 q 93 569 93 558 z "},"&":{"ha":743,"x_min":13,"x_max":732,"o":"m 481 19 q 474 -2 481 4 q 450 -19 467 -8 l 460 -19 l 469 -19 q 505 -14 479 -18 q 559 -5 531 -10 q 613 4 588 0 q 649 10 639 8 q 578 61 607 31 q 549 144 549 92 l 549 149 q 568 174 553 156 q 589 199 583 193 q 612 174 603 189 q 628 144 621 160 q 645 114 636 128 q 668 90 654 100 l 732 431 l 510 258 q 506 258 508 258 q 500 257 503 257 q 484 262 488 257 q 469 278 481 267 q 446 305 461 288 q 421 334 431 322 q 410 347 411 346 l 410 357 q 457 401 435 379 q 495 445 479 422 q 521 495 511 468 q 531 556 531 522 q 509 641 531 603 q 452 706 488 679 q 372 749 417 733 q 283 764 328 764 q 194 751 242 764 q 106 715 146 739 q 39 655 65 692 q 13 571 13 618 q 45 459 13 506 q 133 376 78 413 l 133 372 q 126 344 133 360 q 108 310 118 328 q 91 272 99 292 q 83 233 83 251 q 98 158 83 193 q 138 96 113 122 q 197 54 163 69 q 271 39 231 39 q 315 44 293 39 q 359 55 338 49 q 403 66 381 61 q 446 71 425 71 q 471 51 461 71 q 481 19 481 32 m 242 268 l 242 288 q 305 243 275 269 q 361 189 335 217 q 342 178 351 179 q 321 178 332 178 q 263 205 283 178 q 242 268 242 232 m 201 543 q 228 593 201 581 q 286 606 256 606 q 347 590 322 606 q 372 533 372 574 q 363 504 372 518 q 338 479 353 490 q 307 462 324 468 q 276 456 290 456 q 221 485 240 456 q 201 543 201 514 z "},"'":{"ha":156,"x_min":14,"x_max":143,"o":"m 22 529 l 14 532 q 17 564 17 539 q 17 621 17 589 q 16 688 17 653 q 15 753 15 724 q 17 803 15 783 q 22 822 18 822 q 94 822 64 822 q 125 819 124 821 l 143 815 l 133 528 l 22 529 z "},"(":{"ha":365,"x_min":13,"x_max":350,"o":"m 13 472 q 16 392 13 435 q 30 308 19 350 q 58 228 40 267 q 103 161 75 190 q 153 108 125 136 q 212 56 181 79 q 278 16 243 32 q 350 0 313 0 l 350 142 q 269 195 301 163 q 217 269 238 228 q 189 359 197 311 q 181 457 181 407 q 217 584 181 540 q 331 656 254 628 l 331 704 q 330 754 331 732 q 321 803 329 776 l 315 803 q 181 778 238 803 q 86 708 124 753 q 31 603 49 664 q 13 472 13 543 z "},")":{"ha":363,"x_min":14,"x_max":350,"o":"m 350 478 q 347 399 350 440 q 333 315 343 357 q 305 235 322 274 q 260 168 288 197 q 210 115 236 143 q 152 64 183 88 q 86 24 121 40 q 14 8 51 8 l 14 149 q 94 202 61 169 q 146 276 126 235 q 174 365 165 318 q 182 463 182 413 q 146 590 182 546 q 33 661 110 633 l 33 708 q 34 758 33 736 q 43 807 35 781 l 49 807 q 183 782 126 807 q 277 713 240 757 q 332 609 314 669 q 350 478 350 549 z "},"*":{"ha":415,"x_min":10,"x_max":401,"o":"m 22 346 q 27 327 22 338 q 40 308 32 317 q 58 292 49 299 q 78 286 68 286 l 83 286 q 88 290 85 286 q 93 296 92 293 q 108 314 96 300 q 133 344 119 328 q 158 376 146 361 q 172 394 169 390 q 177 401 174 397 q 182 406 181 404 q 222 315 207 360 l 232 315 q 251 319 239 315 q 274 330 263 324 q 293 344 285 336 q 301 360 301 351 q 296 380 301 369 q 283 400 290 390 q 270 419 276 410 q 261 439 264 429 l 360 439 q 365 445 361 439 q 371 454 368 451 q 384 483 378 468 q 390 514 390 499 l 390 524 q 381 524 388 524 q 365 527 374 525 q 350 533 357 529 q 340 543 343 538 l 400 603 q 401 612 400 604 q 401 624 401 619 q 390 676 401 650 q 349 703 379 703 q 344 702 347 703 q 340 701 340 701 l 222 593 l 213 593 q 200 615 208 599 q 183 648 192 631 q 165 681 174 665 q 153 701 157 696 q 148 708 151 704 q 143 711 144 711 q 140 712 142 711 q 138 713 139 713 q 110 705 125 713 q 83 685 96 697 q 62 659 71 674 q 53 632 53 644 q 53 626 53 629 q 54 622 53 624 q 61 609 56 618 q 73 590 67 600 q 85 570 79 579 q 93 558 90 561 l 24 558 q 19 544 22 558 q 14 524 15 531 q 12 490 13 511 q 10 456 11 469 q 10 439 10 442 l 93 439 l 24 356 q 23 352 24 356 q 22 346 22 349 z "},"+":{"ha":585,"x_min":11,"x_max":569,"o":"m 124 143 q 138 137 126 140 q 153 132 150 133 q 200 123 171 128 q 256 113 229 118 q 301 106 282 108 q 321 103 321 103 l 331 113 l 376 247 l 482 247 l 569 419 q 500 433 538 428 q 431 440 463 438 l 431 444 l 431 450 q 434 463 431 453 q 440 485 438 474 q 447 506 443 496 q 450 519 450 517 q 451 524 450 521 q 451 531 451 528 q 449 543 451 540 q 431 549 446 546 l 282 569 q 277 565 281 569 q 272 558 274 561 q 267 549 271 557 q 263 539 264 542 q 256 526 261 536 q 247 504 251 515 q 238 483 242 493 q 232 469 233 472 l 222 450 l 133 450 q 107 425 126 450 q 66 367 88 400 q 28 299 44 333 q 11 247 11 265 l 153 247 l 124 143 z "},",":{"ha":197,"x_min":13,"x_max":183,"o":"m 64 -7 l 64 -12 q 45 -62 58 -36 q 32 -111 32 -87 l 43 -111 q 53 -103 44 -111 q 72 -85 61 -96 q 94 -62 83 -74 q 113 -42 106 -50 q 142 1 129 -24 q 165 53 156 26 q 178 108 174 81 q 183 160 183 136 q 178 192 183 181 q 162 209 172 204 q 137 215 151 214 q 103 215 122 215 l 53 215 q 18 159 24 192 q 13 92 13 126 q 13 65 13 85 q 14 38 14 44 q 34 10 15 19 q 64 -3 53 0 l 64 -7 z "},"-":{"ha":554,"x_min":19,"x_max":531,"o":"m 19 253 l 442 253 q 448 263 443 254 q 460 283 453 271 q 471 303 467 296 q 488 335 478 315 q 508 374 499 356 q 524 407 517 393 q 531 421 531 421 l 531 431 q 358 446 449 439 q 181 453 268 453 q 152 452 169 453 q 133 451 135 451 l 19 253 z "},".":{"ha":207,"x_min":14,"x_max":192,"o":"m 14 74 q 15 47 14 61 q 22 23 17 33 q 38 6 28 13 q 63 -1 47 -1 q 114 13 90 -1 q 155 50 138 28 q 182 100 172 72 q 192 153 192 128 q 190 167 192 158 q 184 185 188 176 q 175 201 181 194 q 163 207 169 207 l 64 207 q 38 190 47 207 q 22 149 28 172 q 15 104 17 126 q 14 74 14 82 z "},"/":{"ha":465,"x_min":14,"x_max":450,"o":"m 14 39 l 14 29 q 58 40 31 35 q 115 55 86 46 q 167 79 143 64 q 203 118 192 94 q 247 222 221 161 q 299 347 272 282 q 353 476 326 413 q 402 590 381 539 q 437 672 424 640 q 450 703 450 703 l 450 722 l 321 722 l 14 39 z "},":":{"ha":199,"x_min":7,"x_max":188,"o":"m 10 79 q 11 53 10 67 q 18 28 13 39 q 33 11 24 18 q 58 4 43 4 q 110 19 86 4 q 151 56 133 33 q 178 106 168 78 q 188 158 188 133 q 185 173 188 164 q 180 191 183 182 q 171 206 176 200 q 158 213 165 213 l 60 213 q 33 195 43 213 q 18 155 24 178 q 11 110 13 132 q 10 79 10 88 m 7 417 q 8 390 7 404 q 15 366 10 376 q 31 349 21 356 q 56 342 40 342 q 107 356 83 342 q 148 393 131 371 q 175 443 165 415 q 185 496 185 471 q 183 510 185 501 q 177 528 181 519 q 168 544 174 538 q 156 550 163 550 l 57 550 q 31 533 40 550 q 15 492 21 515 q 8 447 10 469 q 7 417 7 425 z "},";":{"ha":189,"x_min":7,"x_max":185,"o":"m 60 -6 l 60 -11 q 41 -60 54 -35 q 28 -110 28 -86 l 39 -110 q 49 -102 40 -110 q 68 -83 57 -94 q 90 -60 79 -72 q 108 -40 101 -49 q 138 3 125 -22 q 160 55 151 28 q 174 110 169 82 q 179 161 179 138 q 174 194 179 182 q 158 210 168 206 q 133 216 147 215 q 99 217 118 217 l 49 217 q 14 160 19 193 q 8 93 8 128 q 9 66 8 86 q 10 39 10 46 q 30 11 11 21 q 60 -1 49 1 l 60 -6 m 7 418 q 8 392 7 406 q 15 367 10 378 q 31 350 21 357 q 56 343 40 343 q 107 358 83 343 q 148 394 131 372 q 175 444 165 417 q 185 497 185 472 q 183 512 185 503 q 177 530 181 521 q 168 545 174 539 q 156 551 163 551 l 57 551 q 31 534 40 551 q 15 494 21 517 q 8 449 10 471 q 7 418 7 426 z "},"<":{"ha":624,"x_min":18,"x_max":607,"o":"m 311 11 l 311 218 l 167 218 q 129 206 147 218 q 93 177 111 193 q 57 149 75 161 q 18 136 39 136 l 18 614 l 128 506 l 285 506 q 280 594 285 550 q 275 683 275 639 l 286 683 l 607 372 l 311 11 z "},"=":{"ha":558,"x_min":19,"x_max":538,"o":"m 43 290 l 38 288 q 56 249 46 275 q 78 196 65 222 q 104 149 90 169 q 135 129 118 129 q 205 128 164 129 q 289 127 246 128 q 375 126 332 126 q 451 126 418 126 q 506 125 485 125 q 528 125 528 125 l 538 132 l 507 271 l 43 290 m 25 560 l 19 557 q 38 518 28 544 q 60 465 47 492 q 86 419 72 439 q 117 399 100 399 q 187 398 146 399 q 271 397 228 397 q 357 396 314 396 q 433 395 400 396 q 488 394 467 394 q 510 394 510 394 l 519 401 l 489 540 l 25 560 z "},">":{"ha":614,"x_min":10,"x_max":599,"o":"m 306 8 l 306 215 l 450 215 q 488 203 469 215 q 523 174 506 190 q 559 146 540 158 q 599 133 578 133 l 599 611 l 489 503 l 332 503 q 337 592 332 547 q 342 681 342 636 l 331 681 l 10 369 l 306 8 z "},"?":{"ha":475,"x_min":14,"x_max":461,"o":"m 72 89 q 73 56 72 71 q 78 31 74 42 q 94 15 83 21 q 124 8 104 8 q 175 23 153 8 q 213 59 197 38 q 235 107 228 81 q 243 158 243 133 q 226 210 243 201 q 168 218 208 218 l 122 218 q 81 160 89 190 q 72 89 72 129 m 313 528 q 297 497 313 508 q 259 474 282 485 q 209 449 236 463 q 159 411 182 435 q 121 351 136 388 q 106 257 106 314 l 201 257 q 223 302 203 283 q 272 336 243 321 q 333 367 300 351 q 395 406 367 383 q 442 460 424 428 q 461 542 461 493 q 444 628 461 590 q 398 691 428 665 q 327 730 368 717 q 239 743 286 743 q 194 737 214 743 q 159 722 175 731 q 127 706 143 714 q 93 693 111 697 l 74 703 q 64 708 71 704 q 49 718 57 713 q 33 728 40 724 q 24 733 25 732 q 19 734 22 733 q 14 735 15 735 l 14 722 q 22 699 14 722 q 40 644 29 676 q 63 579 51 613 q 83 525 75 546 q 91 508 86 517 q 103 494 96 500 q 129 526 115 508 q 158 559 143 544 q 192 584 174 574 q 232 594 210 594 q 288 578 263 594 q 313 528 313 563 z "},"@":{"ha":832,"x_min":13,"x_max":818,"o":"m 13 376 q 38 232 13 300 q 110 112 64 164 q 222 29 157 60 q 365 -1 288 -1 q 531 31 450 -1 q 676 122 613 64 q 779 256 740 179 q 818 421 818 333 q 780 574 818 506 q 680 692 742 643 q 540 767 618 740 q 383 793 463 793 q 224 759 293 793 q 108 667 156 725 q 37 534 61 610 q 13 376 13 458 m 658 418 q 656 374 658 397 q 647 326 653 350 q 628 282 640 303 q 599 247 617 261 l 500 535 q 499 539 499 536 q 499 544 499 543 q 507 574 499 563 q 515 604 515 585 l 313 604 q 312 599 313 603 q 311 594 311 596 q 317 583 313 592 q 326 565 321 575 q 336 547 332 556 q 340 535 340 538 q 342 531 342 535 q 342 525 342 528 q 342 518 342 522 q 340 515 342 515 l 261 297 l 261 238 l 368 238 q 369 242 368 239 q 371 247 371 246 q 367 255 371 249 q 361 267 364 261 q 355 280 358 274 q 351 288 351 286 q 350 293 350 288 q 362 309 350 301 q 381 317 374 317 q 399 317 386 317 q 426 319 411 318 q 453 320 440 319 q 472 321 467 321 q 458 256 472 286 q 443 190 443 225 q 451 189 446 190 q 460 189 457 188 q 480 192 465 189 q 510 197 494 194 q 539 203 525 200 q 558 208 553 207 q 526 178 546 192 q 482 156 506 165 q 435 142 458 147 q 392 138 411 138 q 320 155 360 138 q 246 200 281 172 q 187 261 211 228 q 163 326 163 294 l 163 496 q 174 529 163 510 q 203 567 186 549 q 236 601 219 586 q 261 624 253 617 q 281 635 268 628 q 306 648 293 642 q 328 659 318 654 q 340 664 338 664 l 489 664 q 564 638 532 664 q 617 574 596 613 q 648 494 638 536 q 658 418 658 451 m 419 486 q 431 475 426 482 l 450 417 l 408 417 q 419 486 408 450 z "},"A":{"ha":564,"x_min":14,"x_max":549,"o":"m 301 29 l 301 -3 l 549 69 l 549 108 l 390 604 q 390 608 390 604 q 389 614 389 613 q 397 640 389 628 q 415 663 406 651 q 433 686 425 675 q 442 713 442 697 l 92 713 q 101 678 92 694 q 123 647 111 663 q 144 614 135 631 q 154 579 154 597 q 153 571 154 576 q 153 564 153 565 l 14 178 l 14 89 l 204 89 q 203 94 204 90 q 201 99 203 97 q 194 113 200 101 q 182 139 189 125 q 169 164 175 153 q 163 178 164 175 q 162 181 163 179 q 161 183 161 182 q 162 186 161 185 q 163 188 163 188 q 174 200 165 192 q 193 217 183 208 q 211 231 203 225 q 222 238 219 238 l 367 238 l 301 29 m 275 507 q 281 504 281 507 q 285 497 282 504 q 292 485 289 489 q 297 467 293 479 q 306 440 301 454 q 315 413 311 425 q 321 396 319 400 q 322 391 321 394 q 322 386 322 388 l 242 386 l 271 504 q 273 506 271 506 q 275 507 275 507 z "},"B":{"ha":585,"x_min":14,"x_max":569,"o":"m 14 610 l 14 604 q 33 574 19 588 q 59 546 46 560 q 83 517 72 532 q 93 486 93 503 l 93 99 q 87 78 93 88 q 72 58 81 68 q 56 39 64 49 q 43 19 47 29 l 361 19 q 438 36 404 19 q 494 81 471 53 q 528 144 517 108 q 540 218 540 181 q 535 292 540 269 q 518 328 529 315 q 490 353 507 340 q 450 396 472 365 q 491 435 469 414 q 530 479 513 456 q 558 529 547 503 q 569 585 569 556 q 559 631 569 608 q 532 674 549 654 q 494 706 515 693 q 450 724 472 719 q 435 724 446 724 q 411 724 424 724 q 386 725 399 725 q 371 725 375 725 q 280 719 329 725 q 182 701 231 714 q 89 667 133 689 q 14 614 44 646 l 14 610 m 263 317 q 294 304 276 313 q 327 285 313 296 q 352 258 342 274 q 363 225 363 243 q 354 190 363 207 q 331 158 346 172 q 299 135 317 144 q 263 126 281 126 l 263 317 m 321 604 q 333 594 328 604 q 343 571 339 583 q 349 547 347 558 q 351 535 351 536 q 342 503 351 517 q 319 482 333 490 q 289 469 306 474 q 258 465 272 465 q 258 504 258 481 q 263 550 258 528 q 281 588 268 572 q 321 604 294 604 z "},"C":{"ha":544,"x_min":13,"x_max":529,"o":"m 13 382 q 19 279 13 338 q 44 165 25 221 q 95 67 63 110 q 182 10 128 24 q 194 10 186 10 q 215 9 204 10 q 233 8 225 8 q 247 8 243 8 q 350 22 306 8 q 431 89 394 35 q 455 74 443 83 q 478 57 467 65 q 503 43 490 49 q 529 38 515 38 l 529 336 l 381 199 q 358 185 371 189 q 330 179 344 181 q 301 178 315 178 q 276 178 288 178 l 222 178 q 174 241 185 210 q 163 321 163 272 q 167 404 163 363 q 186 479 171 446 q 229 534 201 513 q 306 556 257 556 q 366 543 339 556 q 419 515 393 531 q 472 486 446 499 q 529 474 499 474 l 529 735 q 508 728 519 735 q 486 713 497 722 q 465 696 475 704 q 450 683 456 688 l 444 683 q 410 690 428 683 q 371 703 392 696 q 328 717 350 711 q 283 724 306 724 q 160 694 211 724 q 76 616 108 664 q 28 506 43 568 q 13 382 13 444 z "},"D":{"ha":574,"x_min":14,"x_max":558,"o":"m 54 40 l 54 31 q 77 12 54 19 q 129 -1 100 4 q 184 -8 158 -6 q 215 -11 210 -11 q 363 30 299 -11 q 470 134 426 71 q 536 275 514 197 q 558 426 558 353 q 536 548 558 496 q 474 635 514 600 q 380 687 435 669 q 261 704 325 704 q 194 701 229 704 q 126 689 160 699 q 64 661 93 679 q 14 614 35 643 q 63 551 33 585 q 113 494 92 518 l 113 129 l 54 40 m 261 594 l 267 594 q 330 575 304 594 q 372 527 356 556 q 394 465 388 499 q 400 401 400 431 q 394 317 400 358 q 374 241 389 276 q 331 176 358 206 q 261 129 304 147 l 261 594 z "},"E":{"ha":535,"x_min":14,"x_max":519,"o":"m 410 44 l 519 -15 l 519 317 l 340 149 l 242 149 l 242 324 q 251 326 244 324 q 261 328 258 328 q 280 320 265 326 q 311 308 294 314 q 342 295 328 301 q 361 288 357 289 q 366 287 363 288 q 371 286 369 286 l 371 510 l 232 447 l 232 565 l 400 565 q 409 562 401 565 q 421 556 417 558 q 436 546 425 553 q 460 531 447 539 q 484 515 472 522 q 500 506 496 508 l 510 506 l 510 724 q 478 708 492 715 q 453 695 465 701 q 426 685 440 689 q 390 682 411 682 q 296 687 343 682 q 202 698 249 692 q 108 709 156 704 q 14 714 61 714 l 14 704 q 24 693 17 701 q 40 675 32 685 q 54 657 47 665 q 64 644 61 649 q 70 634 67 642 q 74 625 74 626 l 74 99 l 33 44 l 410 44 z "},"F":{"ha":564,"x_min":14,"x_max":549,"o":"m 26 72 l 301 -10 l 301 0 q 289 20 297 6 q 271 50 281 35 q 253 79 261 65 q 242 99 244 93 q 230 122 238 107 q 222 139 222 138 q 223 169 221 147 q 228 214 225 190 q 235 261 232 238 q 242 297 239 285 l 340 218 l 350 218 q 354 238 351 218 q 360 287 357 258 q 366 346 363 315 q 371 396 369 376 l 371 431 l 371 465 l 261 415 l 253 415 q 252 441 253 422 q 251 465 251 460 q 253 490 251 475 q 256 519 254 506 q 260 544 258 533 q 261 554 261 554 l 419 554 q 435 541 424 550 q 459 521 446 532 q 486 499 472 510 q 508 485 500 489 l 514 485 l 518 485 q 540 588 531 536 q 549 693 549 640 l 549 713 q 533 703 544 710 q 510 691 522 697 q 485 680 497 685 q 469 674 474 675 q 458 673 468 674 q 443 672 449 672 q 341 677 392 672 q 239 688 290 682 q 136 698 188 693 q 33 703 85 703 l 14 703 q 38 658 24 679 q 64 614 53 638 q 68 565 65 597 q 75 490 71 532 q 83 401 79 447 q 92 313 88 356 q 99 238 96 271 q 103 189 101 204 q 103 177 103 186 q 104 165 104 168 q 103 155 104 161 q 103 149 103 149 l 26 72 z "},"G":{"ha":544,"x_min":13,"x_max":529,"o":"m 13 342 q 24 227 13 289 q 64 113 36 165 q 136 24 92 60 q 247 -11 181 -11 q 299 3 275 -11 q 342 35 324 18 q 371 66 360 51 q 385 81 382 81 q 388 80 386 81 q 390 79 390 79 l 410 69 q 430 56 415 65 q 460 35 444 46 q 490 14 475 24 q 510 0 504 4 l 519 0 q 524 19 521 0 q 529 50 528 39 l 529 151 q 529 244 529 190 q 517 348 529 299 q 474 432 504 397 q 385 467 444 467 q 382 466 383 467 q 381 465 381 465 q 349 435 365 454 q 319 393 333 415 q 292 350 304 371 q 271 317 279 329 q 293 300 275 304 q 331 294 311 296 q 365 289 350 292 q 381 274 381 286 q 372 237 381 256 q 349 203 363 218 q 317 178 335 188 q 282 168 300 168 q 217 188 243 168 q 177 238 192 208 q 157 303 163 268 q 151 367 151 338 q 151 381 151 371 q 152 401 151 390 q 153 422 153 413 q 153 436 153 432 q 178 489 165 465 q 209 529 192 513 q 249 556 226 546 q 306 565 272 565 q 362 556 336 565 q 411 532 388 546 q 458 502 435 518 q 510 475 482 486 l 510 714 l 400 664 l 394 664 q 378 672 390 664 q 351 689 367 679 q 317 706 336 699 q 276 714 297 714 q 146 680 197 714 q 65 592 94 646 q 24 472 36 539 q 13 342 13 406 z "},"H":{"ha":554,"x_min":10,"x_max":539,"o":"m 301 31 l 321 21 q 344 15 322 19 q 394 3 365 10 q 451 -9 422 -3 q 499 -19 481 -15 q 515 -22 503 -21 q 529 -22 526 -22 l 529 -10 l 469 110 l 469 565 l 539 703 l 539 715 q 444 709 492 715 q 350 693 397 703 l 350 683 q 355 663 350 672 q 366 645 360 654 q 377 627 372 636 q 382 606 382 618 q 372 540 382 572 q 350 475 363 507 l 321 475 q 290 475 310 475 q 251 478 271 475 q 216 488 231 481 q 201 508 201 494 l 201 525 q 206 549 203 529 q 212 590 208 568 q 218 631 215 611 q 222 654 221 650 l 222 664 l 22 664 q 23 659 22 663 q 24 654 24 656 q 31 640 25 651 q 44 615 38 628 q 56 590 50 601 q 64 575 63 578 q 92 465 88 522 q 96 350 96 407 q 96 331 96 343 q 95 307 96 318 q 94 287 94 296 q 93 278 93 278 l 10 174 l 232 100 l 244 100 q 238 149 244 125 q 222 197 231 174 q 207 245 214 221 q 200 297 200 269 q 200 311 200 301 q 201 332 200 321 q 201 353 201 343 q 201 367 201 363 q 238 358 213 364 q 288 343 263 351 q 331 327 313 335 q 350 317 350 319 l 350 139 l 301 31 z "},"I":{"ha":356,"x_min":10,"x_max":342,"o":"m 103 150 q 98 112 103 131 q 88 74 93 93 q 77 38 82 56 q 72 0 72 19 q 73 -5 72 -1 q 74 -10 74 -8 q 121 13 88 -4 q 192 49 154 31 q 264 85 231 68 q 311 108 297 101 q 326 119 315 111 q 340 129 338 126 q 341 131 340 129 q 342 133 342 132 q 341 136 342 135 q 340 139 340 138 l 261 228 l 261 524 q 272 572 261 549 q 297 617 283 594 q 321 664 310 640 q 332 713 332 688 l 311 713 l 10 661 l 93 485 q 94 449 93 485 q 97 365 96 414 q 100 265 99 317 q 103 178 101 213 l 103 150 z "},"J":{"ha":604,"x_min":14,"x_max":593,"o":"m 14 417 q 24 394 17 410 q 40 362 32 379 q 54 328 47 344 q 64 307 61 313 q 70 292 67 303 q 74 278 74 281 q 85 150 79 206 q 115 57 92 94 q 188 0 139 19 q 326 -19 236 -19 q 437 16 393 -19 q 490 119 481 51 l 490 253 q 485 363 490 310 q 479 472 479 417 l 479 476 l 593 714 l 192 606 l 182 594 l 192 585 q 212 572 196 582 q 247 550 228 561 q 281 528 265 539 q 301 515 297 518 l 311 506 q 319 468 314 494 q 328 412 324 442 q 336 355 332 382 q 340 318 340 328 q 341 308 340 317 q 342 289 342 300 q 342 268 342 279 q 342 253 342 258 q 342 239 342 249 q 342 221 342 231 q 341 202 342 211 q 340 189 340 193 q 310 150 333 161 q 260 139 288 139 q 226 153 233 139 q 219 190 219 167 q 220 206 219 196 q 222 218 221 217 q 230 231 224 222 q 244 249 236 240 q 260 267 253 258 q 272 278 268 275 l 272 288 l 24 417 l 14 417 z "},"K":{"ha":624,"x_min":14,"x_max":613,"o":"m 356 158 l 356 10 q 365 15 358 11 q 378 24 371 19 q 392 33 386 29 q 400 39 397 38 q 432 65 407 44 q 487 111 457 86 q 545 160 517 136 q 589 197 574 185 q 605 213 597 206 q 613 232 613 219 l 489 232 l 331 396 l 539 604 q 540 606 539 604 q 540 610 540 608 l 539 614 q 526 619 538 615 q 510 624 515 622 q 483 630 501 625 q 447 640 465 635 q 412 649 428 644 q 390 654 396 653 q 381 655 388 654 q 375 656 375 656 l 375 604 l 282 525 l 282 624 l 381 722 l 14 722 l 113 554 l 113 168 l 43 29 l 43 15 l 282 118 l 282 129 q 267 143 276 132 q 249 167 258 154 q 231 191 239 179 q 222 208 224 203 q 219 227 221 210 q 218 253 218 244 q 219 275 218 258 q 222 297 221 292 l 356 158 z "},"L":{"ha":494,"x_min":14,"x_max":479,"o":"m 19 10 l 33 10 q 55 24 39 14 q 88 44 71 33 q 121 65 106 56 q 143 79 136 75 q 153 85 146 82 q 163 89 161 89 l 311 89 l 399 33 l 479 446 l 479 465 l 469 456 q 435 416 460 444 q 385 356 411 388 q 335 297 358 325 q 301 257 311 268 l 233 257 q 233 324 233 283 q 235 407 232 364 q 247 490 239 450 q 271 554 254 529 q 290 581 275 560 q 321 628 304 603 q 352 675 338 653 q 371 703 367 697 l 381 722 l 371 722 l 14 663 l 24 643 q 34 624 25 639 q 53 593 43 610 q 72 563 64 576 q 83 544 81 549 l 93 525 l 93 168 l 19 10 z "},"M":{"ha":604,"x_min":13,"x_max":589,"o":"m 33 19 l 33 10 q 96 45 56 19 q 176 100 136 71 q 244 156 215 129 q 272 193 272 182 l 272 199 l 222 257 l 222 417 l 311 326 l 321 336 q 337 356 325 342 q 361 386 349 371 q 385 416 374 401 q 400 436 396 431 l 400 247 l 381 218 q 375 210 379 217 q 365 198 371 204 q 356 185 360 192 q 351 178 351 179 q 350 174 350 178 q 351 168 350 168 q 355 163 351 167 q 361 158 358 160 l 585 6 l 500 199 q 499 214 499 199 q 499 239 499 231 q 501 324 499 279 q 506 413 503 369 q 513 499 508 457 q 519 575 517 540 l 529 594 q 540 615 532 600 q 558 644 549 629 q 576 674 568 660 q 589 693 585 688 l 589 699 l 589 703 q 584 709 588 706 q 579 714 581 713 q 556 718 572 715 q 519 724 539 721 q 483 729 500 726 q 460 733 467 732 l 454 733 l 450 733 q 410 688 429 719 q 371 625 390 657 q 333 569 351 593 q 296 544 314 544 l 292 544 l 133 714 q 123 720 131 717 q 113 724 115 724 q 93 724 107 724 q 63 726 79 725 q 33 727 47 726 q 13 728 18 728 q 15 710 13 717 q 24 693 17 704 q 39 669 28 686 q 63 634 50 653 q 87 598 75 615 q 103 575 99 581 l 103 188 l 33 19 z "},"N":{"ha":564,"x_min":11,"x_max":553,"o":"m 11 136 l 297 -12 l 213 168 q 211 183 211 169 q 211 206 211 197 q 215 301 211 254 q 232 396 219 349 l 450 0 l 553 0 l 499 119 l 499 544 q 502 561 499 546 q 508 585 506 576 q 516 608 510 589 q 528 649 522 626 q 541 690 535 671 q 549 713 547 708 l 549 718 l 549 722 q 507 701 536 717 q 444 669 478 686 q 381 635 411 651 q 340 614 351 619 q 333 609 339 613 q 319 601 326 606 q 306 590 311 596 q 300 579 300 585 q 301 576 300 578 q 301 575 301 575 l 381 485 l 381 363 l 226 582 l 292 722 l 271 722 q 244 713 271 722 q 181 692 218 704 q 106 666 144 679 q 43 643 68 653 q 28 635 36 640 q 14 624 19 631 l 24 614 q 37 603 26 611 q 58 585 47 594 q 80 566 69 575 q 93 554 90 557 l 103 544 l 103 238 l 11 136 z "},"O":{"ha":564,"x_min":14,"x_max":550,"o":"m 14 361 q 26 249 14 311 q 66 134 39 188 q 137 44 93 81 q 243 8 181 8 q 370 46 314 8 q 467 141 426 83 q 528 267 507 199 q 550 399 550 336 q 530 515 550 454 q 474 626 510 575 q 385 709 438 676 q 271 742 333 742 q 149 704 199 742 q 70 610 100 667 q 27 488 40 554 q 14 361 14 421 m 151 390 q 156 452 151 417 q 174 519 161 488 q 210 573 188 551 q 271 594 233 594 q 326 573 304 594 q 360 520 347 551 q 376 455 372 489 q 381 396 381 421 q 375 329 381 369 q 356 251 369 289 q 318 185 342 213 q 257 157 294 157 q 200 185 221 157 q 169 251 179 213 q 155 328 158 289 q 151 390 151 367 z "},"P":{"ha":564,"x_min":14,"x_max":549,"o":"m 14 149 l 24 139 q 53 124 25 138 q 118 91 81 110 q 196 52 156 72 q 261 19 236 32 q 275 15 264 18 q 292 10 286 11 l 296 10 l 301 10 q 272 63 290 38 q 235 113 253 88 q 204 165 217 139 q 192 222 192 192 l 192 247 q 310 278 247 258 q 425 331 372 299 q 513 412 478 364 q 549 529 549 460 q 528 619 549 581 q 472 683 507 658 q 393 721 438 708 q 301 733 349 733 q 227 728 268 733 q 147 712 186 724 q 72 681 107 700 q 14 633 36 663 l 24 624 q 43 609 28 621 q 64 594 58 597 l 64 208 l 14 149 m 251 594 l 296 594 q 326 594 311 594 q 353 588 342 593 q 373 572 365 582 q 381 542 381 561 q 367 484 381 511 q 330 436 353 457 q 278 403 307 415 q 219 390 249 390 q 219 442 219 413 q 223 500 219 471 q 233 555 226 529 q 251 594 239 581 z "},"Q":{"ha":664,"x_min":13,"x_max":649,"o":"m 13 361 q 23 248 13 310 q 60 133 33 186 q 130 44 86 81 q 239 8 174 8 q 291 17 268 8 q 333 35 314 25 q 369 53 353 44 q 401 61 386 61 q 407 60 404 61 q 411 60 410 60 l 469 10 l 649 10 l 639 19 q 608 45 631 26 q 560 84 585 64 q 512 123 535 104 q 481 149 489 142 q 479 154 479 149 q 479 156 479 154 q 481 158 479 158 q 485 172 481 161 q 494 193 489 182 q 504 215 500 204 q 510 228 508 225 q 535 318 529 276 q 540 411 540 360 q 520 527 540 469 q 463 631 500 585 q 375 706 426 676 q 261 735 324 735 q 140 699 188 735 q 64 608 92 663 q 24 487 36 553 q 13 361 13 421 m 142 407 q 147 468 142 436 q 165 526 151 500 q 200 569 178 551 q 257 586 222 586 q 274 585 261 586 q 292 585 288 585 q 326 544 314 568 q 343 494 338 521 q 350 440 349 468 q 351 388 351 413 l 351 338 q 350 317 351 329 q 347 294 349 306 q 343 276 344 283 q 342 268 342 268 l 331 268 q 311 282 325 272 q 282 303 297 292 q 252 324 267 314 q 232 338 238 333 l 213 347 q 202 328 210 343 q 192 307 194 313 l 192 301 l 192 297 q 202 283 194 294 q 213 268 210 271 q 228 250 217 263 q 251 223 239 238 q 276 196 264 208 q 292 178 288 183 q 269 161 282 165 q 240 157 256 157 q 188 189 207 157 q 158 263 168 221 q 144 346 147 304 q 142 407 142 388 z "},"R":{"ha":604,"x_min":14,"x_max":589,"o":"m 133 125 l 133 108 l 43 19 l 58 19 q 185 29 121 19 q 311 60 250 39 l 313 64 q 306 91 313 81 q 291 113 299 101 q 276 140 283 125 q 269 178 269 154 q 270 203 269 185 q 272 228 271 222 q 330 181 300 210 q 381 128 360 151 l 381 118 q 375 69 381 93 q 369 19 369 44 l 381 19 q 401 34 382 19 q 448 69 421 49 q 503 112 475 90 q 549 149 531 133 q 557 156 551 150 q 569 167 563 161 q 581 179 575 174 q 589 188 586 185 q 573 192 585 189 q 549 201 561 196 q 525 210 536 206 q 510 218 514 215 q 462 249 490 229 q 406 287 433 268 q 360 319 379 306 q 340 336 340 333 l 340 346 q 415 391 376 367 q 486 445 454 415 q 539 512 518 475 q 560 594 560 549 q 460 724 560 697 l 361 724 q 276 719 315 724 q 202 706 238 715 q 131 681 167 696 q 54 644 96 667 q 47 640 53 643 q 33 631 40 636 q 19 621 25 626 q 14 610 14 615 l 14 604 q 28 593 18 601 q 49 575 38 585 q 69 557 60 565 q 83 544 79 549 l 93 535 q 98 490 94 519 q 106 422 101 460 q 114 342 110 383 q 122 262 118 300 q 129 193 126 224 q 133 149 132 163 l 133 125 m 242 571 q 249 598 242 589 q 267 611 256 607 q 292 615 278 615 q 321 615 306 615 q 340 615 325 615 q 361 614 356 614 q 372 603 371 611 q 372 589 372 596 q 364 551 372 567 q 340 515 356 535 q 324 495 335 507 q 302 472 313 483 q 283 453 292 461 q 272 446 274 446 l 261 446 q 255 463 258 446 q 249 503 251 481 q 244 545 246 525 q 242 571 242 565 z "},"S":{"ha":554,"x_min":14,"x_max":539,"o":"m 14 326 l 14 307 q 21 276 14 306 q 37 205 28 246 q 56 120 46 164 q 74 49 67 76 q 78 32 75 43 q 83 19 82 21 l 88 18 q 91 19 89 18 q 93 19 93 19 q 105 37 97 25 q 122 63 113 49 q 142 89 132 76 q 163 108 153 101 q 230 37 190 56 q 325 18 269 18 q 410 31 371 18 q 477 67 449 43 q 522 128 506 92 q 539 213 539 164 q 514 306 539 269 q 451 367 489 343 q 370 407 414 392 q 289 436 326 422 q 226 467 251 450 q 201 510 201 483 q 217 541 201 525 q 242 564 232 557 q 264 565 247 564 q 286 565 281 565 q 334 558 314 565 q 371 538 354 551 q 403 506 388 525 q 440 465 419 488 l 460 504 q 482 561 468 526 q 508 629 496 596 q 530 687 521 663 q 539 713 539 711 l 539 722 q 524 714 535 719 q 500 702 513 708 q 476 690 488 696 q 460 683 464 685 q 454 682 458 682 q 450 682 451 682 q 443 682 447 682 q 440 683 440 682 q 428 688 438 683 q 410 697 419 692 q 391 707 400 703 q 381 713 382 711 q 355 721 365 718 q 333 724 344 724 q 309 724 322 725 q 278 724 296 724 q 187 712 231 724 q 109 676 143 700 q 54 614 75 651 q 33 525 33 576 q 55 438 33 472 q 108 380 76 404 q 178 338 140 356 q 247 303 215 321 q 301 265 279 286 q 322 213 322 244 q 312 169 322 181 q 271 157 301 157 q 198 176 231 157 q 135 223 165 196 q 76 279 106 250 q 14 326 47 308 z "},"T":{"ha":554,"x_min":14,"x_max":539,"o":"m 103 29 l 103 18 q 283 32 193 18 q 460 69 372 46 q 421 104 446 85 q 372 142 396 124 q 329 177 347 161 q 311 201 311 193 l 311 207 q 315 242 313 218 q 322 294 318 265 q 331 356 326 324 q 339 418 335 389 q 346 470 343 447 q 350 504 349 493 q 355 520 349 514 q 370 530 361 526 q 389 534 379 533 q 406 535 399 535 l 410 535 q 474 465 446 503 q 539 396 503 428 l 539 469 q 539 529 539 503 q 538 581 539 556 q 535 635 536 607 q 529 703 533 664 q 523 721 532 718 q 506 724 514 724 q 497 723 503 724 q 489 722 490 722 l 43 633 q 18 628 22 629 q 14 615 14 628 l 14 604 q 18 562 15 590 q 24 503 21 533 q 31 447 28 472 q 33 415 33 422 q 40 385 36 404 q 43 367 43 367 l 54 367 l 192 514 l 192 149 l 103 29 z "},"U":{"ha":664,"x_min":10,"x_max":649,"o":"m 74 347 q 74 242 71 297 q 94 138 78 188 q 144 48 111 88 q 232 -10 176 8 q 246 -10 236 -10 q 267 -10 256 -10 q 288 -11 278 -11 q 301 -11 297 -11 q 428 19 379 -11 q 505 98 476 49 q 549 210 533 147 q 576 338 564 272 q 604 465 589 403 q 649 575 619 528 q 634 580 646 576 q 618 585 622 583 q 555 602 593 592 q 481 622 517 613 q 418 638 444 631 q 390 644 392 644 l 360 644 q 365 586 360 614 q 376 530 369 558 q 387 472 382 501 q 392 407 392 442 q 392 376 392 396 q 392 338 392 357 q 391 304 392 319 q 390 288 390 289 q 386 256 390 279 q 374 210 382 233 q 354 167 365 186 q 331 149 343 149 l 261 149 q 253 153 257 149 q 244 165 249 158 q 237 179 240 172 q 232 189 233 186 q 232 207 232 194 q 231 235 232 221 q 231 264 231 250 q 231 283 231 278 q 233 360 231 328 q 243 422 236 393 q 262 483 250 451 q 292 556 274 514 l 301 585 l 292 585 l 10 494 l 74 347 z "},"V":{"ha":585,"x_min":14,"x_max":569,"o":"m 83 525 q 106 384 93 457 q 140 242 118 311 q 199 110 163 172 q 292 0 235 47 l 301 0 q 317 1 310 0 q 331 10 324 3 q 351 28 338 15 q 378 56 364 42 q 405 82 393 69 q 421 99 417 94 q 480 194 460 143 q 511 298 500 244 q 527 406 522 351 q 539 515 532 461 q 544 543 540 521 q 554 590 549 565 q 564 637 560 615 q 569 664 568 658 l 569 685 l 569 704 l 550 694 q 526 677 549 694 q 474 636 504 660 q 412 588 443 613 q 361 546 381 563 q 351 535 358 543 q 342 525 343 528 q 340 521 340 525 q 347 498 340 508 q 361 477 353 488 q 376 456 369 467 q 382 429 382 444 q 376 342 382 386 q 351 258 369 297 q 338 230 346 247 q 322 197 329 213 q 308 169 314 181 q 301 158 301 158 l 292 158 q 281 174 288 158 q 267 210 274 190 q 257 247 261 229 q 251 268 253 264 q 249 283 250 274 q 246 301 247 292 q 243 319 244 311 q 242 328 242 326 l 242 401 q 246 482 242 446 q 258 553 250 518 q 280 624 267 588 q 311 704 293 660 l 311 714 l 14 625 q 49 575 29 599 q 83 525 68 551 z "},"W":{"ha":585,"x_min":13,"x_max":569,"o":"m 58 565 l 58 0 l 74 0 l 251 168 q 285 132 263 158 q 331 78 307 106 q 376 30 356 51 q 407 8 397 8 l 411 10 l 569 704 l 569 717 q 546 707 558 717 q 529 694 533 697 q 481 659 513 682 q 419 612 450 636 q 362 569 388 588 q 331 546 336 550 q 316 531 328 543 q 301 515 304 519 q 315 494 306 510 q 336 462 325 479 q 357 428 347 444 q 371 407 367 413 q 376 397 372 404 q 381 386 379 389 q 378 358 381 378 q 372 317 375 339 q 365 275 368 294 q 361 249 363 256 q 356 233 360 244 q 351 218 353 221 q 335 255 347 228 q 311 312 324 282 q 288 369 299 342 q 272 407 276 396 l 263 426 l 172 268 l 172 282 l 172 297 q 180 369 175 325 q 190 453 185 413 q 199 524 194 494 q 203 556 203 554 l 268 699 l 14 625 q 13 624 14 625 q 13 621 13 622 q 13 617 13 619 q 14 615 14 615 q 22 605 15 613 q 35 590 28 597 q 49 575 43 582 q 58 565 56 568 z "},"X":{"ha":664,"x_min":14,"x_max":649,"o":"m 336 219 q 339 219 338 219 q 342 218 340 218 q 365 195 351 210 q 392 166 379 181 q 415 141 406 151 q 425 129 425 131 l 425 -19 l 440 -19 q 461 -3 440 -19 q 510 38 482 14 q 569 88 539 63 q 618 129 599 113 q 630 140 622 132 q 639 149 638 147 l 639 154 l 639 158 q 626 163 635 160 q 608 168 618 165 q 590 174 599 171 q 579 179 582 178 q 567 184 575 181 q 560 189 560 188 l 421 357 q 424 366 419 358 q 431 378 428 374 q 446 399 436 385 q 462 422 456 413 q 469 432 468 431 l 649 432 l 386 724 l 386 546 q 381 538 386 546 q 369 522 376 531 q 353 502 361 513 q 342 486 346 492 q 335 480 339 483 q 331 476 332 476 q 328 476 331 476 q 325 475 326 475 l 321 476 l 286 546 l 286 724 q 274 720 283 724 q 261 714 264 717 q 196 676 236 699 q 118 631 156 653 q 53 592 81 608 q 24 575 25 576 l 14 565 q 39 540 22 549 q 74 525 56 532 q 112 510 93 518 q 143 486 131 501 q 159 467 147 481 q 183 438 171 453 q 207 408 196 422 q 222 388 218 393 q 223 380 222 385 q 224 372 224 375 q 218 348 224 363 q 203 319 213 333 q 183 292 194 304 q 163 278 172 281 l 17 236 l 222 10 l 238 10 l 238 139 q 246 149 238 140 q 266 168 254 157 q 290 190 278 179 q 311 208 303 201 l 331 218 q 333 219 332 218 q 336 219 335 219 z "},"Y":{"ha":604,"x_min":14,"x_max":589,"o":"m 274 193 q 267 135 274 161 q 247 87 260 110 q 218 41 235 64 q 182 -10 201 18 l 192 -10 l 500 79 l 500 83 l 500 89 l 490 99 q 474 111 486 103 q 450 129 463 119 q 426 147 438 139 q 410 158 414 156 q 410 171 410 163 q 409 189 410 179 q 408 207 408 199 q 408 218 408 215 q 425 342 408 279 q 468 467 442 406 q 526 587 494 529 q 589 694 558 644 l 589 710 l 294 622 l 371 535 q 372 532 371 535 q 372 526 372 529 q 363 494 372 514 q 342 453 354 474 q 319 414 331 432 q 301 386 307 396 q 277 414 289 393 q 255 459 265 435 q 238 507 244 483 q 232 543 232 531 q 237 599 232 571 q 242 654 242 626 l 242 674 q 232 670 239 674 q 222 664 225 667 q 163 622 199 647 q 94 574 128 597 q 38 533 61 550 q 14 515 14 515 l 14 506 q 35 492 19 501 q 69 471 51 482 q 101 450 86 460 q 122 436 117 440 q 127 431 124 435 q 133 426 131 428 q 161 391 142 417 q 203 338 181 365 q 244 284 225 310 q 272 249 264 258 q 273 221 272 242 q 274 193 274 200 z "},"Z":{"ha":564,"x_min":14,"x_max":550,"o":"m 14 0 l 14 -11 q 19 -10 15 -11 q 24 -10 22 -10 q 47 -2 28 -8 q 88 11 65 4 q 128 24 110 18 q 153 31 147 29 q 167 31 154 31 q 196 31 179 31 q 229 32 213 32 q 257 32 246 32 q 276 32 263 32 q 308 31 292 32 q 339 31 325 31 q 360 31 354 31 q 378 22 365 28 q 405 10 390 17 q 432 -2 419 4 q 450 -10 444 -8 l 454 -10 l 460 -10 q 466 -5 463 -8 q 469 0 469 -1 l 546 336 l 529 336 q 490 308 518 328 q 430 267 461 289 q 370 225 399 244 q 331 199 342 206 q 321 192 328 196 q 311 189 314 189 q 338 234 319 203 q 378 304 356 265 q 425 386 400 343 q 472 468 450 429 q 513 538 494 507 q 539 585 531 569 q 547 601 544 594 q 550 619 550 608 l 251 619 q 247 626 250 621 q 242 633 243 632 q 228 651 238 639 q 207 678 218 664 q 186 706 196 693 q 172 722 176 718 l 163 713 l 14 406 l 24 406 q 50 420 31 411 q 92 439 69 429 q 134 456 114 449 q 163 465 154 464 q 188 465 169 467 q 226 460 206 463 q 264 454 246 457 q 289 451 282 451 q 290 453 289 450 q 292 456 292 457 q 287 446 290 453 q 281 436 283 439 l 14 0 z "},"[":{"ha":365,"x_min":13,"x_max":350,"o":"m 14 756 l 14 722 q 18 638 15 692 q 24 521 21 585 q 30 389 26 457 q 36 263 33 321 q 41 160 39 204 q 43 100 43 115 q 44 75 43 90 q 48 46 46 60 q 51 22 50 32 q 53 11 53 11 l 340 11 q 345 15 342 11 q 350 21 349 18 l 350 25 l 350 31 q 347 69 349 46 q 344 113 346 92 q 342 149 343 133 q 340 164 340 164 l 201 164 l 192 189 q 190 213 192 189 q 188 274 189 236 q 184 358 186 311 q 180 453 182 406 q 176 547 178 501 q 172 624 174 592 l 172 633 l 172 643 q 196 647 179 644 q 231 653 213 650 q 267 659 250 656 q 290 664 283 663 q 309 669 297 665 q 321 674 321 672 l 321 822 l 24 792 q 16 786 18 792 q 13 774 14 781 q 13 763 13 768 q 14 756 14 757 z "},"\\":{"ha":456,"x_min":10,"x_max":443,"o":"m 443 36 l 443 26 q 399 38 426 32 q 343 52 371 43 q 290 76 315 61 q 256 115 265 92 q 212 218 238 158 q 159 342 186 278 q 105 470 132 407 q 57 583 78 533 q 23 665 36 633 q 10 696 10 696 l 10 715 l 138 715 l 443 36 z "},"]":{"ha":383,"x_min":17,"x_max":357,"o":"m 356 763 l 356 729 q 351 644 354 699 q 346 526 349 590 q 340 393 343 461 q 333 266 336 325 q 328 163 331 207 q 326 103 326 118 q 325 76 326 92 q 322 47 324 61 q 318 23 319 33 q 317 13 317 13 l 26 13 q 22 16 25 13 q 17 22 18 19 l 17 26 l 17 32 q 19 70 18 47 q 22 115 21 93 q 25 151 24 136 q 26 167 26 167 l 167 167 l 176 192 q 178 215 176 192 q 181 277 179 239 q 184 363 182 315 q 188 459 186 410 q 192 553 190 508 q 196 631 194 599 l 196 640 l 196 650 q 172 654 189 651 q 136 660 156 657 q 100 666 117 663 q 76 671 83 669 q 58 676 69 672 q 46 681 46 679 l 46 831 l 346 800 q 353 794 351 800 q 356 783 356 789 q 356 770 357 776 q 356 763 356 764 z "},"^":{"ha":535,"x_min":13,"x_max":519,"o":"m 13 682 q 31 670 13 676 q 72 658 49 664 q 117 649 94 653 q 147 646 139 646 q 180 658 168 646 q 203 687 192 671 q 227 715 214 703 q 263 728 240 728 q 294 715 282 728 q 318 687 307 703 q 340 658 329 671 q 368 646 351 646 q 449 658 406 646 q 519 676 492 669 l 519 682 l 519 688 l 510 697 q 466 733 497 707 q 400 786 435 758 q 335 840 365 814 q 292 875 304 865 l 272 885 l 267 885 l 261 885 l 242 875 q 202 844 231 867 q 142 796 174 821 q 83 748 111 771 q 43 717 54 725 l 14 688 q 13 685 14 686 q 13 682 13 683 z "},"_":{"ha":642,"x_min":8,"x_max":629,"o":"m 17 0 l 8 3 q 13 31 13 14 q 13 63 13 47 q 15 89 14 78 q 24 100 17 100 q 86 100 38 100 q 200 100 135 100 q 338 99 265 100 q 469 99 410 99 q 571 98 531 99 q 611 97 611 97 l 629 93 l 613 -1 l 17 0 z "},"`":{"ha":369,"x_min":14,"x_max":354,"o":"m 354 719 l 354 708 q 340 709 351 708 q 325 710 328 710 q 267 717 308 711 q 178 728 225 722 q 90 740 132 735 q 32 749 49 746 q 23 752 29 749 q 14 758 17 756 l 14 763 l 14 768 l 85 908 l 354 719 z "},"a":{"ha":564,"x_min":14,"x_max":549,"o":"m 301 29 l 301 -3 l 549 69 l 549 108 l 390 604 q 390 608 390 604 q 389 614 389 613 q 397 640 389 628 q 415 663 406 651 q 433 686 425 675 q 442 713 442 697 l 92 713 q 101 678 92 694 q 123 647 111 663 q 144 614 135 631 q 154 579 154 597 q 153 571 154 576 q 153 564 153 565 l 14 178 l 14 89 l 204 89 q 203 94 204 90 q 201 99 203 97 q 194 113 200 101 q 182 139 189 125 q 169 164 175 153 q 163 178 164 175 q 162 181 163 179 q 161 183 161 182 q 162 186 161 185 q 163 188 163 188 q 174 200 165 192 q 193 217 183 208 q 211 231 203 225 q 222 238 219 238 l 367 238 l 301 29 m 275 507 q 281 504 281 507 q 285 497 282 504 q 292 485 289 489 q 297 467 293 479 q 306 440 301 454 q 315 413 311 425 q 321 396 319 400 q 322 391 321 394 q 322 386 322 388 l 242 386 l 271 504 q 273 506 271 506 q 275 507 275 507 z "},"b":{"ha":585,"x_min":14,"x_max":569,"o":"m 14 590 l 14 585 q 33 554 19 568 q 59 526 46 540 q 83 498 72 513 q 93 467 93 483 l 93 79 q 86 59 93 68 q 71 41 79 50 q 56 22 63 32 q 49 0 49 13 l 361 0 q 438 17 404 0 q 494 61 471 33 q 528 125 517 89 q 540 199 540 161 q 535 273 540 250 q 518 308 529 296 q 490 333 507 321 q 450 376 472 346 q 491 415 469 394 q 530 460 513 436 q 558 510 547 483 q 569 565 569 536 q 559 612 569 589 q 532 654 549 635 q 494 687 515 674 q 450 704 472 700 q 435 704 446 704 q 411 705 424 704 q 386 706 399 706 q 371 706 375 706 q 280 700 329 706 q 182 682 231 694 q 89 648 133 669 q 14 594 44 626 l 14 590 m 263 297 q 294 285 276 293 q 327 265 313 276 q 352 239 342 254 q 363 206 363 224 q 354 170 363 188 q 331 139 346 153 q 299 116 317 125 q 263 107 281 107 l 263 297 m 321 585 q 333 574 328 585 q 343 551 339 564 q 349 528 347 539 q 351 515 351 517 q 342 484 351 497 q 319 463 333 471 q 289 450 306 454 q 258 446 272 446 q 258 485 258 461 q 263 531 258 508 q 281 569 268 553 q 321 585 294 585 z "},"c":{"ha":544,"x_min":13,"x_max":529,"o":"m 13 372 q 19 269 13 328 q 44 156 25 211 q 95 57 63 100 q 182 0 128 14 q 194 0 186 0 q 215 -1 204 0 q 233 -1 225 -1 q 247 -1 243 -1 q 350 12 306 -1 q 431 79 394 25 q 455 65 443 74 q 478 47 467 56 q 503 33 490 39 q 529 28 515 28 l 529 326 l 381 189 q 358 175 371 179 q 330 169 344 171 q 301 168 315 168 q 276 168 288 168 l 222 168 q 174 231 185 200 q 163 311 163 263 q 167 394 163 353 q 186 469 171 436 q 229 524 201 503 q 306 546 257 546 q 366 533 339 546 q 419 505 393 521 q 472 476 446 489 q 529 464 499 464 l 529 725 q 508 719 519 725 q 486 703 497 713 q 465 686 475 694 q 450 674 456 678 l 444 674 q 410 680 428 674 q 371 694 392 686 q 328 708 350 701 q 283 714 306 714 q 160 684 211 714 q 76 606 108 654 q 28 497 43 558 q 13 372 13 435 z "},"d":{"ha":564,"x_min":13,"x_max":549,"o":"m 43 50 l 43 40 q 67 22 43 29 q 119 9 90 14 q 174 1 149 4 q 206 -1 200 -1 q 353 40 289 -1 q 460 144 417 81 q 526 285 504 207 q 549 436 549 363 q 526 558 549 506 q 465 644 504 610 q 370 697 425 679 q 251 714 315 714 q 195 710 235 714 q 115 697 156 707 q 43 669 74 688 q 13 624 13 651 q 17 603 13 610 q 33 585 22 597 q 47 569 38 581 q 68 544 57 557 q 89 520 79 532 q 103 504 99 508 l 103 139 l 43 50 m 251 604 l 257 604 q 320 585 294 604 q 362 537 346 565 q 384 474 378 508 q 390 411 390 440 q 385 327 390 368 q 364 251 379 286 q 322 186 349 215 q 251 139 294 157 l 251 604 z "},"e":{"ha":535,"x_min":14,"x_max":519,"o":"m 410 54 l 519 -6 l 519 326 l 340 158 l 242 158 l 242 333 q 251 335 244 333 q 261 338 258 338 q 280 330 265 336 q 311 317 294 324 q 342 305 328 311 q 361 297 357 299 q 366 297 363 297 q 371 296 369 296 l 371 519 l 232 457 l 232 575 l 400 575 q 409 572 401 575 q 421 565 417 568 q 436 556 425 563 q 460 540 447 549 q 484 525 472 532 q 500 515 496 518 l 510 515 l 510 728 q 481 722 493 728 q 456 710 468 717 q 428 697 443 703 q 390 692 413 692 q 296 697 343 692 q 202 708 249 701 q 108 719 156 714 q 14 724 61 724 l 14 714 q 24 703 17 711 q 40 685 32 694 q 54 667 47 675 q 64 654 61 658 q 70 644 67 651 q 74 635 74 636 l 74 108 q 53 86 67 103 q 40 54 40 69 l 410 54 z "},"f":{"ha":554,"x_min":10,"x_max":540,"o":"m 17 72 l 251 0 l 283 0 q 273 36 283 19 q 249 69 263 53 q 225 103 236 86 q 213 139 214 119 q 213 169 211 147 q 219 214 215 190 q 226 261 222 238 q 232 297 229 285 l 331 218 l 340 218 q 343 238 340 218 q 349 287 346 258 q 356 346 353 315 q 361 396 358 376 q 361 408 361 400 q 362 428 361 418 q 363 446 363 438 q 363 458 363 456 q 333 453 350 458 q 299 440 315 447 q 270 425 283 432 q 251 415 257 418 q 247 417 250 415 q 243 418 244 418 q 242 442 243 424 q 242 465 242 460 q 243 490 242 475 q 247 519 244 506 q 250 544 249 533 q 251 554 251 554 l 410 554 q 425 541 414 550 q 449 521 436 532 q 476 499 463 510 q 499 485 490 489 l 504 485 l 508 485 q 531 594 522 539 q 540 707 540 650 q 513 701 525 707 q 488 690 500 696 q 462 678 475 683 q 433 672 449 672 q 328 677 381 672 q 222 688 275 682 q 115 699 168 694 q 10 704 63 704 q 27 658 10 681 q 54 614 44 635 q 58 564 56 597 q 65 489 61 531 q 74 401 69 447 q 82 313 78 354 q 89 237 86 271 q 93 188 92 203 q 94 177 93 186 q 94 164 94 168 q 94 155 94 161 q 93 149 93 149 l 17 72 z "},"g":{"ha":544,"x_min":13,"x_max":529,"o":"m 13 351 q 24 237 13 299 q 64 122 36 175 q 136 34 92 69 q 247 -1 181 -1 q 299 13 275 -1 q 342 44 324 28 q 371 76 360 61 q 385 90 382 90 q 388 90 386 90 q 390 89 390 89 l 410 79 q 430 65 415 75 q 460 44 444 56 q 490 24 475 33 q 510 10 504 14 l 519 10 q 524 29 521 10 q 529 60 528 49 l 529 161 q 529 254 529 200 q 517 358 529 308 q 474 442 504 407 q 385 476 444 476 q 359 456 376 476 q 324 410 342 436 q 294 360 307 385 q 281 326 281 335 q 281 321 281 325 q 282 317 281 318 q 297 313 286 315 q 321 307 308 310 q 345 301 333 304 q 361 297 357 299 q 372 292 364 296 q 381 288 379 289 l 381 283 q 372 247 381 265 q 349 213 363 228 q 317 188 335 197 q 282 178 300 178 q 217 198 243 178 q 177 248 192 218 q 157 313 163 278 q 151 376 151 347 q 151 390 151 381 q 152 411 151 400 q 153 432 153 422 q 153 446 153 442 q 178 499 165 475 q 209 539 192 522 q 249 565 226 556 q 306 575 272 575 q 361 563 336 575 q 410 534 386 550 q 458 506 433 518 q 510 493 482 493 l 510 717 q 499 715 507 717 q 489 714 492 714 q 473 706 486 713 q 445 694 460 700 q 417 681 431 688 q 400 674 404 675 l 394 674 q 378 681 390 674 q 351 699 367 689 q 317 716 336 708 q 276 724 297 724 q 146 690 197 724 q 65 602 94 656 q 24 482 36 549 q 13 351 13 415 z "},"h":{"ha":544,"x_min":11,"x_max":529,"o":"m 311 40 q 347 32 321 38 q 400 20 372 26 q 453 8 428 14 q 489 0 479 1 q 505 -2 493 -1 q 519 -3 517 -3 l 519 10 l 460 129 l 460 585 l 529 724 l 529 735 q 435 728 482 735 q 340 714 388 722 l 340 703 q 345 683 340 692 q 356 665 350 674 q 366 647 361 656 q 371 625 371 638 q 362 559 371 592 q 340 496 353 526 q 325 494 338 494 q 311 494 314 494 q 281 494 300 494 q 241 497 261 494 q 206 507 221 500 q 192 528 192 514 l 192 544 q 196 568 193 549 q 202 609 199 588 q 208 650 206 631 q 213 674 211 669 l 213 683 l 11 683 q 13 678 11 682 q 14 674 14 675 q 22 659 15 671 q 34 634 28 647 q 47 609 40 621 q 54 594 53 597 q 82 484 78 542 q 86 369 86 426 q 86 350 86 363 q 85 326 86 338 q 84 306 85 315 q 83 297 83 297 l 14 208 l 14 189 l 222 119 l 235 119 q 228 169 235 144 q 213 217 221 193 q 197 265 204 240 q 190 317 190 289 q 190 331 190 321 q 191 351 190 340 q 192 372 192 363 q 192 386 192 382 q 228 377 203 383 q 278 363 253 371 q 322 347 303 354 q 340 336 340 339 l 340 158 q 332 142 338 154 q 320 115 326 129 q 308 88 314 100 q 301 69 303 75 q 301 66 301 69 q 300 60 300 63 q 301 48 300 53 q 311 40 303 43 z "},"i":{"ha":356,"x_min":10,"x_max":342,"o":"m 103 149 q 98 111 103 129 q 88 74 93 93 q 77 38 82 56 q 72 0 72 19 l 93 0 q 119 13 94 0 q 179 42 144 25 q 251 78 214 60 q 311 108 288 96 q 326 119 315 111 q 340 129 338 126 q 341 131 340 129 q 342 133 342 132 q 341 136 342 135 q 340 139 340 138 l 261 228 l 261 524 q 272 572 261 549 q 297 617 283 594 q 321 663 310 640 q 332 711 332 686 l 311 711 l 10 661 l 93 485 q 94 449 93 485 q 97 365 96 414 q 100 265 99 317 q 103 178 101 213 l 103 149 z "},"j":{"ha":585,"x_min":13,"x_max":569,"o":"m 13 426 q 13 422 13 425 q 14 417 14 418 q 22 399 15 413 q 34 372 28 386 q 47 344 40 357 q 54 328 53 331 q 60 311 57 322 q 64 297 64 300 q 76 169 69 225 q 106 76 82 114 q 178 19 129 39 q 317 0 226 0 q 427 35 383 0 q 481 139 471 71 l 481 272 q 475 383 481 329 q 469 492 469 436 l 469 496 l 569 704 l 569 729 l 182 625 l 182 606 q 203 592 188 601 q 237 571 219 582 q 269 550 254 560 q 292 536 285 540 q 297 531 293 535 q 301 525 300 528 q 309 488 304 514 q 318 431 314 461 q 326 374 322 401 q 331 338 331 347 q 331 328 331 336 q 332 308 332 319 q 332 288 332 299 q 332 272 332 278 q 332 258 332 268 q 332 240 332 250 q 331 222 332 231 q 331 208 331 213 q 301 169 324 181 q 250 158 278 158 q 217 172 224 158 q 210 210 210 186 q 210 226 210 215 q 213 238 211 238 q 220 251 214 242 q 235 269 226 260 q 251 286 243 278 q 263 297 258 294 l 263 307 l 33 426 l 13 426 z "},"k":{"ha":614,"x_min":13,"x_max":603,"o":"m 33 10 l 33 -4 l 271 99 l 271 108 q 257 123 267 113 q 238 147 247 133 q 222 172 229 160 q 213 189 214 183 q 210 208 211 190 q 208 233 208 225 q 210 255 208 238 q 213 278 211 272 l 346 139 l 346 -3 q 370 5 358 -3 q 390 19 382 13 q 424 48 399 26 q 480 94 450 69 q 538 143 510 119 q 579 178 567 167 q 595 193 588 186 q 603 213 603 200 l 479 213 l 321 376 l 529 585 q 530 587 529 585 q 531 590 531 589 l 529 594 q 517 599 528 596 q 500 604 506 603 q 474 610 492 606 q 437 620 456 615 q 402 629 418 625 q 381 635 386 633 q 372 635 378 635 q 365 636 365 636 l 365 585 l 271 506 l 271 604 l 361 693 l 361 703 l 13 703 q 13 698 13 701 q 14 693 14 694 q 23 675 15 690 q 33 654 31 660 q 47 631 38 647 q 68 594 57 614 q 89 558 79 575 q 103 535 99 542 l 103 149 l 33 10 z "},"l":{"ha":485,"x_min":10,"x_max":471,"o":"m 10 0 l 24 0 q 45 14 29 4 q 78 35 61 24 q 111 56 96 46 q 133 69 126 65 q 144 76 136 72 q 153 79 151 79 l 301 79 l 389 24 l 471 446 l 460 446 l 292 247 l 224 247 q 223 314 224 274 q 226 397 222 354 q 237 480 229 440 q 261 544 244 519 q 281 574 267 553 q 311 619 296 594 q 340 664 326 643 q 360 693 354 685 l 360 707 q 269 699 326 707 q 154 681 211 690 q 56 663 97 671 q 14 653 14 654 l 14 633 q 26 614 18 628 q 44 585 35 600 q 61 555 53 569 q 74 535 69 540 l 83 515 l 83 158 l 10 0 z "},"m":{"ha":604,"x_min":13,"x_max":589,"o":"m 103 168 q 88 136 97 157 q 67 91 78 115 q 49 42 57 67 q 42 -3 42 17 q 47 -2 43 -3 q 54 0 51 -1 q 107 33 71 8 q 180 85 143 57 q 244 138 217 113 q 272 174 272 163 l 272 178 l 222 238 l 222 396 l 301 317 l 321 317 l 400 417 l 400 228 l 381 199 q 375 191 379 197 q 365 178 371 185 q 356 166 360 172 q 351 158 351 160 q 350 154 350 158 q 351 149 350 149 q 355 144 351 147 q 361 139 358 140 l 549 10 l 574 10 l 500 178 q 499 194 499 179 q 499 219 499 211 q 501 305 499 260 q 506 394 503 350 q 513 479 508 438 q 519 556 517 521 l 529 575 q 540 595 532 581 q 558 625 549 610 q 576 654 568 640 q 589 674 585 668 l 589 679 l 589 683 q 584 690 588 686 q 579 693 581 693 q 556 698 572 694 q 519 704 539 701 q 483 710 500 707 q 460 714 467 713 l 454 714 l 450 714 q 410 669 429 700 q 371 606 390 638 q 333 549 351 574 q 296 525 314 525 l 292 525 l 133 693 q 123 699 131 696 q 113 704 115 703 q 93 705 107 704 q 63 706 79 706 q 33 708 47 707 q 13 708 18 708 q 15 690 13 697 q 24 674 17 683 q 39 650 28 667 q 63 615 50 633 q 87 578 75 596 q 103 556 99 561 l 103 168 z "},"n":{"ha":554,"x_min":13,"x_max":543,"o":"m 14 129 l 261 0 l 281 0 l 201 168 l 201 206 q 206 301 201 254 q 222 396 210 349 l 440 0 l 543 0 l 489 119 l 489 544 q 497 572 492 553 q 509 614 503 592 q 521 656 515 636 q 529 683 526 675 q 531 698 529 686 q 532 713 532 710 l 519 713 q 497 701 518 713 q 444 674 475 690 q 383 642 414 658 q 331 614 351 625 q 323 609 329 613 q 309 601 317 606 q 296 590 301 596 q 290 579 290 585 q 292 575 290 575 l 371 485 l 371 363 l 217 582 l 281 722 l 261 722 q 235 713 261 722 q 172 692 208 704 q 97 666 135 679 q 33 643 58 653 q 17 637 21 639 q 13 624 13 635 q 13 619 13 622 q 14 614 14 615 q 28 603 18 611 q 49 585 38 594 q 69 567 60 575 q 83 554 79 558 l 93 544 l 93 238 l 14 149 l 14 129 z "},"o":{"ha":564,"x_min":14,"x_max":550,"o":"m 14 351 q 26 240 14 301 q 66 124 39 178 q 137 35 93 71 q 243 -1 181 -1 q 370 36 314 -1 q 467 131 426 74 q 528 258 507 189 q 550 389 550 326 q 528 512 550 451 q 469 619 507 572 q 376 694 431 665 q 256 724 322 724 q 140 687 186 724 q 66 594 94 650 q 26 474 38 539 q 14 351 14 408 m 151 381 q 156 442 151 407 q 174 510 161 478 q 210 563 188 542 q 271 585 233 585 q 326 563 304 585 q 360 510 347 542 q 376 445 372 479 q 381 386 381 411 q 375 319 381 360 q 356 241 369 279 q 318 175 342 203 q 257 147 294 147 q 200 175 221 147 q 169 241 179 203 q 155 318 158 279 q 151 381 151 357 z "},"p":{"ha":554,"x_min":13,"x_max":539,"o":"m 13 128 q 13 122 13 125 q 14 119 14 119 l 251 0 l 281 0 l 281 10 q 264 39 276 18 q 237 84 251 60 q 210 129 222 108 q 192 158 197 150 q 185 171 188 167 q 183 179 183 175 q 182 188 182 183 q 182 203 182 193 l 182 228 q 300 259 238 239 q 415 312 363 279 q 503 392 468 344 q 539 510 539 440 q 518 600 539 561 q 463 664 497 639 q 383 701 428 689 q 292 714 339 714 q 256 711 281 714 q 199 702 231 708 q 135 688 168 696 q 74 668 101 679 q 30 643 47 657 q 13 613 13 629 q 24 590 13 597 q 54 575 35 582 l 54 188 q 29 163 46 181 q 13 128 13 146 m 242 575 l 286 575 q 317 574 301 575 q 344 568 332 574 q 363 552 356 563 q 371 522 371 542 q 357 465 371 492 q 320 417 343 438 q 268 383 297 396 q 210 371 239 371 q 210 422 210 393 q 213 481 210 451 q 223 535 217 510 q 242 575 229 561 z "},"q":{"ha":654,"x_min":13,"x_max":639,"o":"m 13 351 q 23 238 13 300 q 60 124 33 176 q 130 35 86 71 q 239 -1 174 -1 q 291 7 268 -1 q 333 25 314 15 q 369 43 353 35 q 401 51 386 51 q 407 51 404 51 q 411 50 410 50 l 469 0 l 639 0 l 639 10 l 481 139 q 479 143 479 139 q 481 149 479 149 q 485 162 481 151 q 494 183 489 172 q 504 205 500 194 q 510 218 508 215 q 535 308 529 267 q 540 401 540 350 q 520 517 540 460 q 463 621 500 575 q 375 696 426 667 q 263 725 324 725 q 141 689 189 725 q 65 598 93 653 q 24 477 36 543 q 13 351 13 411 m 142 397 q 147 458 142 426 q 165 516 151 490 q 200 559 178 542 q 257 576 222 576 q 274 576 261 576 q 292 575 288 575 q 326 535 314 558 q 343 485 338 511 q 350 431 349 458 q 351 378 351 403 l 351 328 q 350 308 351 319 q 347 285 349 296 q 343 266 344 274 q 342 258 342 258 l 332 258 q 312 272 326 263 q 282 293 297 282 q 252 314 267 304 q 232 328 238 324 l 213 338 q 202 318 210 333 q 193 297 194 303 q 192 294 192 297 q 192 293 192 293 q 193 288 192 288 q 202 273 194 285 q 213 258 210 261 q 228 240 217 253 q 251 213 239 228 q 276 186 264 199 q 292 168 288 174 q 269 151 282 156 q 240 147 256 147 q 188 179 207 147 q 158 253 168 211 q 144 336 147 294 q 142 397 142 378 z "},"r":{"ha":594,"x_min":14,"x_max":581,"o":"m 54 10 l 54 -1 q 183 9 118 -1 q 311 40 249 19 l 313 44 q 306 72 313 61 q 291 94 299 82 q 276 120 283 106 q 269 158 269 135 q 270 184 269 165 q 272 208 271 203 q 331 161 301 190 q 381 110 360 132 l 381 99 q 375 49 381 74 q 369 0 369 25 l 381 0 q 401 15 382 0 q 448 50 421 29 q 503 92 475 71 q 549 129 531 114 q 565 144 553 132 q 579 158 576 156 q 580 160 579 158 q 581 164 581 163 q 580 167 581 165 q 579 168 579 168 q 570 173 578 169 q 560 178 563 176 q 550 182 557 179 q 535 188 543 185 q 519 194 526 192 q 510 199 511 197 q 462 231 490 211 q 406 269 433 250 q 360 301 379 288 q 342 317 342 315 l 342 328 q 415 372 376 349 q 486 426 454 396 q 539 492 518 456 q 560 575 560 529 q 460 704 560 678 l 361 704 q 276 700 315 704 q 202 686 238 696 q 131 662 167 676 q 54 625 96 647 q 47 620 53 624 q 33 612 40 617 q 19 601 25 607 q 14 590 14 596 l 14 585 q 28 574 18 582 q 49 556 38 565 q 69 538 60 546 q 83 525 79 529 l 93 515 q 98 470 94 500 q 106 402 101 440 q 114 322 110 364 q 122 242 118 281 q 129 174 126 204 q 133 129 132 143 l 133 106 l 133 89 l 54 10 m 242 551 q 249 578 242 569 q 267 592 256 588 q 292 596 278 596 q 321 596 306 596 q 342 595 326 596 q 361 594 357 594 q 372 584 371 592 q 372 569 372 576 q 365 532 372 549 q 342 496 357 515 q 324 476 335 488 q 303 453 314 464 q 283 434 292 442 q 272 426 274 426 l 261 426 q 255 444 258 426 q 249 483 251 461 q 244 526 246 506 q 242 551 242 546 z "},"s":{"ha":554,"x_min":14,"x_max":539,"o":"m 14 299 l 14 288 q 21 256 14 286 q 37 185 28 226 q 56 101 46 144 q 74 29 67 57 q 78 13 75 24 q 83 0 82 1 l 88 -1 q 91 -1 89 -1 q 93 0 93 0 q 105 17 97 6 q 122 43 113 29 q 142 69 132 57 q 163 89 153 82 q 230 17 190 36 q 325 -1 269 -1 q 410 11 371 -1 q 477 48 449 24 q 522 108 506 72 q 539 193 539 144 q 514 287 539 250 q 451 348 489 324 q 370 388 414 372 q 289 417 326 403 q 226 447 251 431 q 201 490 201 464 q 217 522 201 506 q 242 544 232 538 q 264 545 247 544 q 286 546 281 546 q 331 540 313 546 q 365 522 350 533 q 395 493 381 510 q 429 456 410 476 l 435 456 q 451 467 446 456 q 460 485 457 478 q 480 535 468 504 q 503 594 492 565 q 522 643 514 622 q 529 664 529 664 l 529 696 q 524 695 528 696 q 519 693 521 694 q 508 688 517 692 q 489 678 499 683 q 470 668 479 672 q 460 664 461 664 q 455 663 458 664 q 450 663 451 663 q 444 663 447 663 q 440 664 440 664 q 428 668 438 664 q 410 678 419 672 q 391 688 400 683 q 381 693 382 692 q 355 701 365 699 q 333 705 344 704 q 309 705 322 706 q 278 704 296 704 q 187 692 231 704 q 109 656 143 681 q 54 594 75 632 q 33 506 33 557 q 55 419 33 453 q 108 360 76 385 q 178 319 140 336 q 247 284 215 301 q 301 246 279 267 q 322 193 322 225 q 312 149 322 161 q 271 138 301 138 q 235 140 247 138 q 201 158 224 143 q 170 183 193 165 q 122 222 147 201 q 74 261 97 243 q 43 288 51 279 l 24 297 q 19 298 22 297 q 14 299 15 299 z "},"t":{"ha":554,"x_min":14,"x_max":542,"o":"m 103 10 l 103 -1 q 113 -1 106 -1 q 122 0 119 0 q 185 8 142 3 q 274 20 228 14 q 358 32 319 26 q 410 40 397 38 q 431 44 415 40 q 450 50 446 47 l 450 54 l 450 60 q 441 69 449 61 q 429 79 433 76 q 410 97 425 83 q 376 124 394 110 q 341 152 357 139 q 321 168 325 165 l 311 178 l 311 182 l 311 188 q 315 222 313 199 q 322 275 318 246 q 331 337 326 304 q 339 399 335 369 q 346 451 343 428 q 350 485 349 474 q 355 501 349 494 q 370 510 361 507 q 389 515 379 514 q 406 515 399 515 l 410 515 q 438 483 421 504 q 474 439 456 461 q 511 400 493 417 q 542 383 529 383 q 539 533 542 460 q 529 683 536 607 q 523 701 532 699 q 506 704 514 704 q 497 703 503 704 q 489 703 490 703 l 43 614 q 18 609 22 610 q 14 596 14 608 l 14 585 q 18 542 15 571 q 24 483 21 514 q 31 428 28 453 q 33 396 33 403 q 40 366 36 385 q 43 347 43 347 l 54 347 l 192 494 l 192 129 l 103 10 z "},"u":{"ha":654,"x_min":10,"x_max":640,"o":"m 74 357 q 74 252 71 307 q 94 147 78 197 q 144 58 111 97 q 232 0 176 18 q 246 0 236 0 q 267 -1 256 0 q 288 -1 278 -1 q 301 -1 297 -1 q 427 27 379 -1 q 503 103 475 56 q 544 210 531 150 q 570 334 558 271 q 596 458 582 397 q 639 565 610 518 q 640 570 639 567 q 640 575 640 574 q 636 589 640 586 q 619 594 632 592 l 390 654 l 360 654 q 365 597 360 625 q 376 540 369 568 q 387 481 382 511 q 392 417 392 451 q 392 386 392 406 q 392 347 392 367 q 391 314 392 329 q 390 297 390 299 q 386 266 390 289 q 374 219 382 243 q 355 177 365 196 q 332 158 344 158 l 263 158 q 244 175 254 158 q 232 199 233 192 l 232 293 q 233 367 232 333 q 240 433 235 401 q 258 497 246 465 q 292 565 271 529 l 292 594 l 10 504 l 74 357 z "},"v":{"ha":574,"x_min":14,"x_max":561,"o":"m 74 525 q 95 383 83 456 q 129 242 107 311 q 188 110 151 172 q 281 0 224 47 l 292 0 q 307 1 300 0 q 321 10 314 3 q 340 28 326 15 q 368 56 354 42 q 394 82 382 69 q 410 99 406 94 q 469 193 449 143 q 500 297 489 243 q 516 406 511 350 q 529 515 521 461 q 533 542 529 521 q 543 589 538 564 q 553 635 549 614 q 558 663 557 657 q 560 678 558 667 q 561 693 561 690 l 539 693 q 517 676 539 693 q 465 635 494 660 q 403 586 435 611 q 350 544 371 561 l 331 525 l 331 519 q 337 497 331 507 q 351 476 343 486 q 365 454 358 465 q 371 429 371 443 q 365 341 371 385 q 340 257 360 297 q 322 219 333 243 q 301 178 310 194 q 292 158 293 161 l 281 158 q 269 174 276 158 q 257 208 263 189 q 247 245 251 228 q 242 267 242 263 q 239 281 240 272 q 236 300 238 290 q 233 317 235 310 q 232 326 232 325 q 232 336 232 328 q 231 358 232 346 q 231 382 231 369 q 231 401 231 394 q 234 474 231 440 q 245 538 238 507 q 264 602 253 569 q 292 674 275 635 l 292 708 l 33 633 q 23 628 31 632 q 14 624 15 625 l 14 619 q 21 594 14 607 q 38 569 28 582 q 57 546 47 557 q 74 525 67 535 z "},"w":{"ha":585,"x_min":13,"x_max":569,"o":"m 58 565 l 58 0 l 74 0 l 251 168 q 285 132 263 158 q 331 78 307 106 q 376 30 356 51 q 407 8 397 8 l 411 10 l 569 704 l 569 717 q 546 707 558 717 q 529 694 533 697 q 484 660 514 683 q 422 614 454 638 q 364 571 390 590 q 331 546 338 551 q 315 531 318 535 q 311 517 311 528 q 319 482 311 499 q 339 450 328 465 q 362 419 350 435 q 381 386 374 403 q 378 358 381 378 q 372 317 375 339 q 365 275 368 294 q 361 249 363 256 q 356 233 360 244 q 351 218 353 221 l 272 407 l 251 407 l 172 268 l 172 282 l 172 297 q 180 369 175 325 q 190 453 185 413 q 199 524 194 494 q 203 556 203 554 l 268 699 l 14 625 q 13 624 14 625 q 13 621 13 622 q 13 617 13 619 q 14 615 14 615 q 22 605 15 613 q 35 590 28 597 q 49 575 43 582 q 58 565 56 568 z "},"x":{"ha":643,"x_min":7,"x_max":632,"o":"m 326 238 l 331 238 q 354 215 340 229 q 382 185 368 200 q 406 160 396 171 q 415 149 415 150 l 415 0 l 429 0 q 450 17 429 0 q 499 58 471 33 q 558 107 528 82 q 608 149 589 132 l 628 168 l 628 174 l 628 178 q 615 182 624 179 q 597 188 607 185 q 579 194 588 190 q 568 199 571 197 q 556 203 564 200 q 549 208 549 207 l 410 376 l 419 396 q 431 411 424 401 q 444 429 438 421 q 455 444 450 438 q 460 450 460 450 l 632 450 q 626 469 632 458 q 611 490 619 481 q 596 507 603 500 q 588 515 589 514 q 533 577 567 540 q 468 648 500 614 q 413 707 436 682 q 390 732 390 732 l 375 732 l 375 564 q 367 553 374 563 q 349 528 360 543 q 331 504 338 513 l 321 494 l 315 494 l 311 494 l 276 564 l 276 732 l 251 732 l 14 594 l 14 574 q 81 546 51 558 q 133 504 110 533 q 149 485 138 499 q 172 456 160 471 q 197 426 185 440 q 213 406 208 411 l 213 392 q 207 367 213 382 q 193 338 201 353 q 174 312 185 324 q 153 297 163 300 l 7 256 l 213 29 l 226 29 l 226 158 q 235 167 226 158 q 256 186 243 175 q 281 209 268 197 q 301 228 293 221 q 310 233 303 229 q 321 238 318 236 l 326 238 z "},"y":{"ha":604,"x_min":14,"x_max":589,"o":"m 203 19 l 203 -8 l 500 79 l 500 83 l 500 89 l 490 99 q 474 111 486 103 q 450 129 463 119 q 426 147 438 139 q 410 158 414 156 q 410 171 410 163 q 409 189 410 179 q 408 207 408 199 q 408 218 408 215 q 425 342 408 279 q 468 467 442 406 q 526 585 494 528 q 589 693 558 643 l 589 710 l 294 622 l 371 535 q 372 531 371 535 q 372 526 372 528 q 363 494 372 514 q 342 453 354 474 q 319 414 331 432 q 301 386 307 396 q 277 414 289 393 q 255 459 265 435 q 238 507 244 483 q 232 543 232 531 q 238 603 232 574 q 243 664 243 633 l 222 664 l 14 515 l 14 506 q 35 492 19 501 q 69 471 51 482 q 101 450 86 460 q 122 436 117 440 q 127 431 124 435 q 133 426 131 428 q 161 391 142 417 q 203 337 181 365 q 244 283 225 308 q 272 247 264 257 q 273 221 272 242 q 274 193 274 200 q 268 144 274 165 q 253 103 263 122 q 231 64 244 83 q 203 19 218 44 z "},"z":{"ha":564,"x_min":14,"x_max":550,"o":"m 14 10 l 14 -1 q 19 -1 15 -1 q 24 0 22 0 q 47 8 28 1 q 88 21 65 14 q 128 33 110 28 q 153 40 147 39 q 167 40 154 40 q 196 41 179 40 q 229 42 213 42 q 257 42 246 42 q 276 42 263 42 q 308 41 292 42 q 339 40 325 40 q 360 40 354 40 q 378 32 365 38 q 405 20 390 26 q 432 8 419 14 q 450 0 444 1 l 454 0 l 460 0 q 466 5 463 1 q 469 10 469 8 l 546 346 l 529 346 q 490 318 518 338 q 430 276 461 299 q 370 235 399 254 q 331 208 342 215 q 321 202 328 206 q 311 199 314 199 q 338 244 319 213 q 378 314 356 275 q 425 396 400 353 q 472 478 450 439 q 513 548 494 517 q 539 594 531 579 q 547 611 544 604 q 550 629 550 618 l 251 629 q 238 652 247 636 q 215 684 228 668 q 190 712 203 700 q 167 724 176 724 q 163 722 163 724 l 24 436 l 24 424 q 60 431 43 424 q 94 447 78 438 q 128 464 111 456 q 163 475 144 472 q 188 475 169 476 q 226 471 206 474 q 264 466 246 468 q 289 464 282 464 q 290 465 289 463 q 292 465 292 467 q 287 456 290 463 q 281 446 283 449 l 14 10 z "},"{":{"ha":435,"x_min":14,"x_max":421,"o":"m 93 326 q 126 163 101 239 q 192 10 150 88 q 197 3 193 7 q 201 0 200 0 l 421 0 q 417 115 421 56 q 410 228 414 175 q 378 194 392 213 q 350 158 365 176 l 340 149 l 271 149 q 254 176 263 149 q 239 238 246 203 q 227 304 232 272 q 222 346 222 336 q 222 357 222 347 q 221 379 221 367 q 221 404 221 392 q 221 425 221 417 q 226 525 221 476 q 242 624 231 574 l 300 633 l 313 633 l 321 633 l 390 575 l 390 801 l 379 801 q 344 794 368 799 q 292 785 319 790 q 242 776 265 781 q 211 771 219 772 q 159 742 179 765 q 126 689 139 719 q 106 625 113 658 q 93 564 99 592 q 92 549 93 561 q 89 524 90 538 q 86 499 88 510 q 83 485 85 488 q 72 467 81 479 q 51 443 63 456 q 30 419 40 431 q 14 406 19 408 l 93 326 z "},"|":{"ha":178,"x_min":14,"x_max":164,"o":"m 164 783 q 158 783 163 783 q 153 782 154 782 q 137 777 149 781 q 122 772 125 774 q 100 761 114 768 q 74 748 86 754 q 52 738 61 742 q 43 733 43 733 l 33 693 q 32 663 33 690 q 28 590 31 635 q 24 491 26 546 q 20 381 22 436 q 17 276 18 326 q 14 189 15 225 l 14 85 l 14 -19 q 35 -3 19 -15 q 69 24 51 10 q 101 51 86 39 q 122 69 117 64 q 138 84 126 72 q 153 100 150 96 q 161 440 158 265 q 164 783 164 615 z "},"}":{"ha":460,"x_min":18,"x_max":428,"o":"m 349 328 q 316 164 340 240 q 249 8 292 88 q 244 2 247 6 q 239 -1 240 -1 l 18 -1 q 22 115 18 54 q 29 228 25 175 q 60 194 47 213 q 89 158 74 176 l 99 149 l 169 149 q 186 176 178 149 q 201 239 194 204 q 213 306 208 274 q 218 347 218 338 q 219 358 218 349 q 219 381 219 368 q 219 406 219 393 q 219 428 219 419 q 215 528 219 479 q 199 628 210 576 l 140 638 l 128 638 l 119 638 l 49 578 l 49 807 l 60 807 q 96 800 71 804 q 148 791 121 796 q 198 782 175 786 q 229 776 221 778 q 282 747 261 769 q 316 693 303 724 q 336 628 329 663 q 349 567 343 594 q 350 552 349 564 q 353 526 351 540 q 356 501 354 513 q 358 488 357 490 q 370 469 361 482 q 390 444 379 457 q 412 421 401 432 q 428 407 422 410 l 349 328 z "},"~":{"ha":494,"x_min":13,"x_max":479,"o":"m 13 782 q 22 696 13 738 q 43 608 32 654 q 51 622 44 613 q 63 643 57 632 q 75 664 69 654 q 83 678 81 674 l 93 688 q 104 688 96 688 q 122 688 113 688 q 140 689 132 689 q 153 689 149 689 q 235 678 197 689 q 318 667 274 667 q 381 672 354 667 q 439 697 407 678 q 464 714 449 703 q 479 728 479 725 l 479 733 q 447 733 465 733 q 407 733 428 732 q 367 738 386 735 q 331 747 347 740 q 276 775 301 760 q 227 803 251 790 q 177 826 203 817 q 118 836 151 836 q 83 835 101 836 q 49 829 65 835 q 23 813 33 824 q 13 782 13 803 z "},"–":{"ha":539,"x_min":10,"x_max":521,"o":"m 10 285 l 432 285 q 438 294 433 286 q 450 315 443 303 q 461 335 457 328 q 478 367 468 347 q 498 406 489 388 q 514 439 507 425 q 521 453 521 453 l 521 463 q 349 478 439 471 q 171 485 258 485 q 142 484 160 485 q 124 483 125 483 l 10 285 z "},"—":{"ha":694,"x_min":7,"x_max":681,"o":"m 7 276 l 592 279 q 598 289 593 281 q 610 310 603 297 q 621 329 617 322 q 638 362 628 342 q 658 401 649 382 q 674 433 667 419 q 681 447 681 447 l 681 457 q 571 465 640 461 q 426 471 501 468 q 281 475 351 474 q 168 476 211 476 q 140 476 157 476 q 121 475 122 475 l 7 276 z "},"˜":{"ha":493,"x_min":10,"x_max":476,"o":"m 10 767 q 19 681 10 722 q 40 593 29 639 q 48 607 42 597 q 60 628 54 617 q 72 649 67 639 q 81 663 78 658 l 90 672 q 101 672 93 672 q 119 673 110 672 q 138 674 129 674 q 150 674 146 674 q 233 663 194 674 q 315 651 271 651 q 378 657 351 651 q 436 682 404 663 q 461 699 446 688 q 476 713 476 710 l 476 718 q 444 717 463 718 q 404 718 425 717 q 364 722 383 719 q 328 732 344 725 q 274 760 299 744 q 224 788 249 775 q 174 811 200 801 q 115 821 149 821 q 81 820 99 821 q 47 814 63 819 q 20 798 31 808 q 10 767 10 788 z "},"™":{"ha":669,"x_min":13,"x_max":649,"o":"m 64 425 l 64 418 q 167 426 115 418 q 268 449 219 435 q 246 468 260 457 q 218 490 232 479 q 194 509 204 500 q 183 524 183 518 l 183 528 q 188 561 185 538 q 194 612 190 585 q 201 663 199 639 q 206 697 204 688 q 217 713 204 710 q 238 715 231 715 l 240 715 q 276 675 260 696 q 314 636 293 654 l 314 678 q 314 713 314 697 q 313 742 314 728 q 311 773 313 757 q 308 811 310 789 q 306 822 311 821 q 294 824 300 824 q 289 823 292 824 q 285 822 286 822 l 29 772 q 15 769 18 769 q 13 761 13 768 l 13 756 q 15 731 14 747 q 19 697 17 714 q 22 666 21 681 q 24 647 24 651 q 27 630 25 640 q 29 619 29 619 l 36 619 l 114 703 l 114 493 l 64 425 m 336 414 l 336 408 q 372 428 349 414 q 417 458 394 442 q 455 490 439 475 q 471 511 471 504 l 471 514 l 443 547 l 443 636 l 493 586 q 495 588 493 586 q 497 592 497 590 q 506 603 500 594 q 520 619 513 611 q 533 636 528 628 q 542 647 539 644 l 542 542 q 538 535 542 542 q 532 525 535 528 q 522 513 529 522 q 515 503 515 504 q 514 500 514 503 q 514 499 514 500 q 515 497 514 497 q 517 494 515 496 q 521 492 519 493 l 646 406 l 599 514 q 597 522 597 514 q 597 536 597 532 q 601 634 597 582 q 610 725 606 686 q 612 731 610 726 q 615 736 614 735 q 622 747 617 739 q 631 764 626 756 q 641 781 636 772 q 649 792 646 789 l 649 794 l 649 797 l 643 803 q 629 805 639 803 q 609 808 619 807 q 589 812 599 810 q 575 814 579 814 l 572 814 l 571 814 q 547 788 558 806 q 526 753 536 771 q 505 722 515 736 q 483 708 494 708 l 482 708 l 393 803 q 388 806 392 804 q 381 808 383 808 q 370 809 378 808 q 353 810 363 810 q 336 811 344 811 q 325 811 328 811 q 331 792 325 801 q 340 778 333 788 q 353 758 346 768 q 366 738 360 747 q 375 725 372 729 l 375 508 l 336 414 z "},"¡":{"ha":307,"x_min":-61,"x_max":307,"o":"m 247 493 q 244 519 247 506 q 235 545 242 533 q 217 565 228 557 q 192 572 207 572 q 141 556 164 572 q 102 517 118 540 q 77 465 86 493 q 68 414 68 438 q 77 381 68 393 q 100 363 86 368 q 132 356 114 357 q 168 354 150 354 q 207 369 192 354 q 231 406 222 385 q 244 451 240 428 q 247 493 247 475 m 307 -140 q 292 15 307 -65 q 246 167 276 94 q 229 202 239 181 q 210 244 219 224 q 194 280 201 265 q 186 294 188 294 l 118 294 q 107 272 113 294 q 95 221 101 250 q 82 162 89 192 q 68 117 75 132 q 42 65 61 101 q 3 -12 24 29 q -35 -90 -17 -53 q -61 -140 -54 -126 l 307 -140 z "},"©":{"ha":694,"x_min":19,"x_max":675,"o":"m 19 358 q 34 248 19 308 q 82 134 49 188 q 169 45 115 81 q 300 10 222 10 q 456 47 386 10 q 574 142 525 85 q 649 266 622 199 q 675 394 675 333 q 651 508 675 449 q 581 618 626 568 q 473 701 536 668 q 333 733 410 733 q 185 697 244 733 q 88 604 125 660 q 35 483 51 549 q 19 358 19 417 m 111 390 q 121 471 111 425 q 157 557 131 517 q 231 626 183 597 q 354 654 279 654 q 466 626 422 654 q 535 558 510 599 q 569 474 560 518 q 578 397 578 429 q 567 312 578 364 q 528 211 556 260 q 451 127 500 163 q 326 92 403 92 q 246 108 279 92 q 189 152 213 125 q 151 213 165 179 q 128 279 136 246 q 116 342 119 313 q 111 390 113 372 m 163 383 q 166 319 163 356 q 181 250 169 283 q 213 190 193 217 q 267 156 233 164 q 286 155 271 156 q 306 154 301 154 q 369 163 342 154 q 418 204 396 171 q 448 185 433 197 q 479 172 463 172 l 479 356 l 388 271 q 357 259 376 260 q 324 258 338 258 l 290 258 q 260 297 267 278 q 254 346 254 317 q 257 397 254 371 q 269 443 260 422 q 295 477 278 464 q 342 490 313 490 q 379 483 363 490 q 412 465 396 475 q 444 448 428 456 q 479 440 460 440 l 479 600 q 453 587 468 600 q 431 568 438 574 l 428 568 q 382 581 408 568 q 328 593 356 593 q 252 575 283 593 q 201 527 221 557 q 172 460 181 497 q 163 383 163 422 z "},"ª":{"ha":276,"x_min":18,"x_max":261,"o":"m 149 500 l 149 486 l 261 519 l 261 536 l 189 763 l 189 767 q 201 788 189 779 q 213 811 213 797 l 53 811 q 58 796 53 803 q 67 781 63 789 q 77 766 72 774 q 82 750 82 758 q 81 747 82 749 q 81 743 81 744 l 18 568 l 18 528 l 104 528 q 104 529 104 528 q 103 532 104 532 q 100 539 103 533 q 94 551 97 544 q 89 562 92 557 q 86 568 86 567 q 85 569 86 568 q 85 571 85 569 l 86 572 q 99 586 89 576 q 113 596 110 596 l 178 596 l 149 500 m 136 718 q 138 717 138 718 q 139 717 139 717 q 142 713 140 717 q 144 707 143 710 q 151 687 146 703 q 157 667 156 671 q 158 665 157 667 q 158 663 158 664 l 122 663 l 135 717 l 136 718 z "},"®":{"ha":694,"x_min":18,"x_max":674,"o":"m 18 360 q 33 249 18 310 q 81 135 47 189 q 167 47 114 82 q 299 11 221 11 q 454 49 385 11 q 572 143 524 86 q 647 267 621 200 q 674 396 674 335 q 649 510 674 450 q 580 619 625 569 q 472 702 535 669 q 332 735 408 735 q 183 698 243 735 q 87 606 124 661 q 34 484 50 550 q 18 360 18 418 m 110 392 q 119 472 110 426 q 156 558 129 518 q 230 627 182 599 q 353 656 278 656 q 465 628 421 656 q 533 560 508 600 q 567 475 558 519 q 576 399 576 431 q 565 313 576 365 q 526 213 554 261 q 450 128 499 164 q 325 93 401 93 q 244 110 278 93 q 188 153 211 126 q 149 214 164 181 q 126 281 135 247 q 115 344 118 314 q 110 392 111 374 m 240 238 l 240 228 l 188 175 l 197 175 q 271 181 233 175 q 344 199 308 186 l 346 201 q 342 217 346 211 q 333 230 338 224 q 325 245 329 236 q 321 268 321 254 q 321 283 321 272 q 322 297 321 294 q 356 269 339 286 q 386 239 374 253 l 386 233 q 383 204 386 218 q 379 175 379 190 l 386 175 q 398 183 386 175 q 426 204 410 192 q 458 230 442 217 q 485 251 474 243 q 497 263 488 254 q 508 274 506 271 q 499 276 506 274 q 485 282 492 279 q 471 288 478 285 q 463 292 464 290 q 434 310 451 299 q 401 332 417 321 q 374 351 385 343 q 363 361 363 360 l 363 367 q 406 393 383 379 q 448 425 429 407 q 479 464 467 443 q 492 513 492 485 q 432 589 492 572 l 375 589 q 324 586 347 589 q 281 578 301 583 q 239 563 260 572 q 194 542 218 554 q 181 535 192 540 q 171 522 171 529 l 171 518 q 178 512 172 517 q 191 501 185 507 q 203 490 197 496 q 211 483 208 485 q 217 478 217 483 q 222 433 218 465 q 229 364 225 400 q 236 296 233 328 q 240 251 239 264 l 240 238 m 304 499 q 319 522 304 519 q 351 525 333 525 l 375 525 q 381 517 381 522 q 381 510 381 513 q 376 488 381 497 q 363 467 372 478 q 352 455 358 463 q 340 441 346 447 q 328 430 333 435 q 322 425 324 425 l 315 425 q 312 435 314 425 q 308 459 310 446 q 306 484 307 472 q 304 499 304 496 z "},"°":{"ha":264,"x_min":18,"x_max":249,"o":"m 18 660 q 22 608 18 636 q 36 557 25 581 q 67 517 47 533 q 118 500 86 500 q 173 517 149 500 q 214 560 197 535 q 240 617 231 586 q 249 674 249 647 q 240 726 249 700 q 216 774 232 753 q 178 807 200 794 q 126 819 156 819 q 71 805 92 819 q 38 767 50 790 q 22 716 26 744 q 18 660 18 688 m 99 664 q 101 695 99 679 q 122 711 103 711 q 145 698 142 711 q 149 669 149 685 q 148 656 149 664 q 144 639 147 647 q 137 625 142 631 q 124 619 132 619 q 103 636 108 619 q 99 664 99 653 z "},"´":{"ha":376,"x_min":14,"x_max":361,"o":"m 14 646 l 14 635 q 28 635 17 635 q 43 636 40 636 q 103 644 60 638 q 193 656 146 650 q 283 668 240 663 q 342 676 325 674 q 351 680 344 676 q 361 686 358 683 l 361 690 l 361 696 l 289 839 l 14 646 z "},"¶":{"ha":567,"x_min":10,"x_max":565,"o":"m 565 22 l 556 13 q 515 1 547 4 q 440 -2 482 -1 q 353 -1 397 -3 q 278 0 308 0 q 271 5 278 0 q 263 10 264 10 l 257 10 q 287 63 268 38 q 323 113 306 88 q 353 165 340 139 q 367 222 367 192 l 367 247 q 249 278 311 258 q 133 331 186 299 q 44 412 79 364 q 10 529 10 460 q 31 619 10 581 q 86 683 51 658 q 165 721 121 708 q 257 733 210 733 q 331 728 290 733 q 412 712 372 724 q 486 681 451 700 q 544 633 521 663 l 535 624 q 515 609 531 621 q 494 594 500 597 l 501 111 l 565 22 z "},"º":{"ha":285,"x_min":15,"x_max":269,"o":"m 15 647 q 21 594 15 624 q 40 540 26 565 q 74 498 53 515 q 124 481 94 481 q 184 499 157 481 q 230 544 211 517 q 259 603 249 571 q 269 665 269 636 q 260 723 269 694 q 231 774 250 751 q 187 810 213 796 q 129 824 161 824 q 75 806 97 824 q 40 763 53 789 q 21 705 26 736 q 15 647 15 674 m 81 661 q 83 691 81 674 q 91 723 85 708 q 108 748 97 738 q 138 758 119 758 q 163 748 153 758 q 179 723 174 738 q 187 692 185 708 q 189 664 189 676 q 186 632 189 651 q 177 594 183 613 q 160 563 171 576 q 131 550 149 550 q 104 563 114 550 q 89 594 94 576 q 82 631 83 613 q 81 661 81 650 z "},"¿":{"ha":425,"x_min":11,"x_max":458,"o":"m 400 522 q 399 555 400 540 q 394 580 399 569 q 378 597 389 590 q 349 603 368 603 q 297 588 319 603 q 260 552 275 574 q 237 504 244 531 q 229 453 229 478 q 247 401 229 410 q 304 393 264 393 l 350 393 q 392 451 383 421 q 400 522 400 482 m 160 83 q 175 115 160 103 q 213 138 190 126 q 263 163 236 149 q 313 200 290 176 q 351 260 336 224 q 367 354 367 297 l 271 354 q 249 308 269 326 q 201 275 229 290 q 139 244 172 260 q 77 206 106 228 q 30 151 49 183 q 11 69 11 118 q 28 -17 11 21 q 74 -80 44 -54 q 145 -119 104 -106 q 233 -132 186 -132 q 278 -126 258 -132 q 313 -111 297 -119 q 344 -94 329 -103 q 379 -82 360 -86 l 399 -92 q 408 -97 400 -93 q 424 -107 415 -101 q 439 -117 432 -112 q 449 -122 446 -121 q 453 -123 450 -122 q 458 -124 457 -124 l 458 -111 q 451 -88 458 -111 q 432 -33 443 -65 q 409 32 421 -1 q 389 86 397 65 q 381 103 386 94 q 369 117 376 111 q 343 84 357 101 q 314 52 329 67 q 281 27 299 38 q 240 17 263 17 q 185 33 210 17 q 160 83 160 49 z "},"À":{"ha":564,"x_min":14,"x_max":549,"o":"m 301 29 l 301 -3 l 549 69 l 549 108 l 390 604 q 390 608 390 604 q 389 614 389 613 q 397 640 389 628 q 415 663 406 651 q 433 686 425 675 q 442 713 442 697 l 92 713 q 101 678 92 694 q 123 647 111 663 q 144 614 135 631 q 154 579 154 597 q 153 571 154 576 q 153 564 153 565 l 14 178 l 14 89 l 204 89 q 203 94 204 90 q 201 99 203 97 q 194 113 200 101 q 182 139 189 125 q 169 164 175 153 q 163 178 164 175 q 162 181 163 179 q 161 183 161 182 q 162 186 161 185 q 163 188 163 188 q 174 200 165 192 q 193 217 183 208 q 211 231 203 225 q 222 238 219 238 l 367 238 l 301 29 m 275 507 q 281 504 281 507 q 285 497 282 504 q 292 485 289 489 q 297 467 293 479 q 306 440 301 454 q 315 413 311 425 q 321 396 319 400 q 322 391 321 394 q 322 386 322 388 l 242 386 l 271 504 q 273 506 271 506 q 275 507 275 507 m 357 758 l 357 747 q 342 748 354 747 q 328 749 331 749 q 269 756 311 750 q 181 767 228 761 q 93 779 135 774 q 35 788 51 785 q 26 791 32 788 q 17 797 19 794 l 17 801 l 17 807 l 88 947 l 357 758 z "},"Á":{"ha":564,"x_min":14,"x_max":549,"o":"m 301 29 l 301 -3 l 549 69 l 549 108 l 390 604 q 390 608 390 604 q 389 614 389 613 q 397 640 389 628 q 415 663 406 651 q 433 686 425 675 q 442 713 442 697 l 92 713 q 101 678 92 694 q 123 647 111 663 q 144 614 135 631 q 154 579 154 597 q 153 571 154 576 q 153 564 153 565 l 14 178 l 14 89 l 204 89 q 203 94 204 90 q 201 99 203 97 q 194 113 200 101 q 182 139 189 125 q 169 164 175 153 q 163 178 164 175 q 162 181 163 179 q 161 183 161 182 q 162 186 161 185 q 163 188 163 188 q 174 200 165 192 q 193 217 183 208 q 211 231 203 225 q 222 238 219 238 l 367 238 l 301 29 m 275 507 q 281 504 281 507 q 285 497 282 504 q 292 485 289 489 q 297 467 293 479 q 306 440 301 454 q 315 413 311 425 q 321 396 319 400 q 322 391 321 394 q 322 386 322 388 l 242 386 l 271 504 q 273 506 271 506 q 275 507 275 507 m 172 772 l 172 761 q 187 762 175 761 q 201 763 199 763 q 261 770 218 764 q 351 783 304 776 q 441 794 399 789 q 500 803 483 800 q 510 806 503 803 q 519 813 517 810 l 519 817 l 519 822 l 447 965 l 172 772 z "},"Â":{"ha":564,"x_min":14,"x_max":549,"o":"m 301 29 l 301 -3 l 549 69 l 549 108 l 390 604 q 390 608 390 604 q 389 614 389 613 q 397 640 389 628 q 415 663 406 651 q 433 686 425 675 q 442 713 442 697 l 92 713 q 101 678 92 694 q 123 647 111 663 q 144 614 135 631 q 154 579 154 597 q 153 571 154 576 q 153 564 153 565 l 14 178 l 14 89 l 204 89 q 203 94 204 90 q 201 99 203 97 q 194 113 200 101 q 182 139 189 125 q 169 164 175 153 q 163 178 164 175 q 162 181 163 179 q 161 183 161 182 q 162 186 161 185 q 163 188 163 188 q 174 200 165 192 q 193 217 183 208 q 211 231 203 225 q 222 238 219 238 l 367 238 l 301 29 m 275 507 q 281 504 281 507 q 285 497 282 504 q 292 485 289 489 q 297 467 293 479 q 306 440 301 454 q 315 413 311 425 q 321 396 319 400 q 322 391 321 394 q 322 386 322 388 l 242 386 l 271 504 q 273 506 271 506 q 275 507 275 507 m 22 776 q 40 765 22 771 q 81 753 58 758 q 126 744 104 747 q 157 740 149 740 q 190 753 178 740 q 213 781 201 765 q 237 810 224 797 q 272 822 250 822 q 304 810 292 822 q 328 781 317 797 q 350 753 339 765 q 378 740 361 740 q 458 752 415 740 q 529 771 501 764 l 529 776 l 529 782 l 519 792 q 476 827 507 801 q 410 881 444 853 q 344 934 375 908 q 301 969 314 960 l 282 979 l 276 979 l 271 979 l 251 969 q 212 938 240 961 q 152 890 183 915 q 92 842 121 865 q 53 811 64 819 l 24 782 q 23 779 24 781 q 22 776 22 778 z "},"Ã":{"ha":564,"x_min":14,"x_max":549,"o":"m 301 29 l 301 -3 l 549 69 l 549 108 l 390 604 q 390 608 390 604 q 389 614 389 613 q 397 640 389 628 q 415 663 406 651 q 433 686 425 675 q 442 713 442 697 l 92 713 q 101 678 92 694 q 123 647 111 663 q 144 614 135 631 q 154 579 154 597 q 153 571 154 576 q 153 564 153 565 l 14 178 l 14 89 l 204 89 q 203 94 204 90 q 201 99 203 97 q 194 113 200 101 q 182 139 189 125 q 169 164 175 153 q 163 178 164 175 q 162 181 163 179 q 161 183 161 182 q 162 186 161 185 q 163 188 163 188 q 174 200 165 192 q 193 217 183 208 q 211 231 203 225 q 222 238 219 238 l 367 238 l 301 29 m 275 507 q 281 504 281 507 q 285 497 282 504 q 292 485 289 489 q 297 467 293 479 q 306 440 301 454 q 315 413 311 425 q 321 396 319 400 q 322 391 321 394 q 322 386 322 388 l 242 386 l 271 504 q 273 506 271 506 q 275 507 275 507 m 46 915 q 56 829 46 871 q 76 742 65 788 q 84 756 78 746 q 97 776 90 765 q 108 797 103 788 q 117 811 114 807 l 126 821 q 138 821 129 821 q 156 822 146 821 q 174 822 165 822 q 186 822 182 822 q 269 811 231 822 q 351 800 307 800 q 414 806 388 800 q 472 831 440 811 q 497 847 482 836 q 513 861 513 858 l 513 867 q 480 866 499 867 q 440 867 461 865 q 400 871 419 868 q 364 881 381 874 q 310 908 335 893 q 260 937 285 924 q 210 960 236 950 q 151 969 185 969 q 117 969 135 969 q 83 963 99 968 q 56 947 67 957 q 46 915 46 936 z "},"Ä":{"ha":564,"x_min":14,"x_max":549,"o":"m 301 29 l 301 -3 l 549 69 l 549 108 l 390 604 q 390 608 390 604 q 389 614 389 613 q 397 640 389 628 q 415 663 406 651 q 433 686 425 675 q 442 713 442 697 l 92 713 q 101 678 92 694 q 123 647 111 663 q 144 614 135 631 q 154 579 154 597 q 153 571 154 576 q 153 564 153 565 l 14 178 l 14 89 l 204 89 q 203 94 204 90 q 201 99 203 97 q 194 113 200 101 q 182 139 189 125 q 169 164 175 153 q 163 178 164 175 q 162 181 163 179 q 161 183 161 182 q 162 186 161 185 q 163 188 163 188 q 174 200 165 192 q 193 217 183 208 q 211 231 203 225 q 222 238 219 238 l 367 238 l 301 29 m 275 507 q 281 504 281 507 q 285 497 282 504 q 292 485 289 489 q 297 467 293 479 q 306 440 301 454 q 315 413 311 425 q 321 396 319 400 q 322 391 321 394 q 322 386 322 388 l 242 386 l 271 504 q 273 506 271 506 q 275 507 275 507 m 82 826 q 83 800 82 814 q 90 776 85 786 q 106 758 96 765 q 131 751 115 751 q 182 766 158 751 q 223 803 206 781 q 250 853 240 825 q 260 906 260 881 q 258 920 260 911 q 252 938 256 929 q 243 953 249 947 q 231 960 238 960 l 132 960 q 106 942 115 960 q 90 902 96 925 q 83 857 85 879 q 82 826 82 835 m 299 826 q 300 800 299 814 q 307 776 301 786 q 322 758 313 765 q 347 751 332 751 q 399 766 375 751 q 440 803 422 781 q 467 853 457 825 q 476 906 476 881 q 474 920 476 911 q 469 938 472 929 q 460 953 465 947 q 447 960 454 960 l 349 960 q 322 942 332 960 q 307 902 313 925 q 300 857 301 879 q 299 826 299 835 z "},"Å":{"ha":564,"x_min":14,"x_max":549,"o":"m 301 29 l 301 -3 l 549 69 l 549 108 l 390 604 q 390 608 390 604 q 389 614 389 613 q 397 640 389 628 q 415 663 406 651 q 433 686 425 675 q 442 713 442 697 l 92 713 q 101 678 92 694 q 123 647 111 663 q 144 614 135 631 q 154 579 154 597 q 153 571 154 576 q 153 564 153 565 l 14 178 l 14 89 l 204 89 q 203 94 204 90 q 201 99 203 97 q 194 113 200 101 q 182 139 189 125 q 169 164 175 153 q 163 178 164 175 q 162 181 163 179 q 161 183 161 182 q 162 186 161 185 q 163 188 163 188 q 174 200 165 192 q 193 217 183 208 q 211 231 203 225 q 222 238 219 238 l 367 238 l 301 29 m 275 507 q 281 504 281 507 q 285 497 282 504 q 292 485 289 489 q 297 467 293 479 q 306 440 301 454 q 315 413 311 425 q 321 396 319 400 q 322 391 321 394 q 322 386 322 388 l 242 386 l 271 504 q 273 506 271 506 q 275 507 275 507 z "},"Ç":{"ha":554,"x_min":14,"x_max":539,"o":"m 36 -158 l 294 -158 q 283 -91 294 -124 q 271 -25 271 -58 l 271 -19 q 294 -14 281 -18 q 323 -6 308 -10 q 350 3 338 -1 q 371 10 363 7 q 385 22 375 11 q 405 42 394 32 q 424 62 415 53 q 435 71 433 71 q 438 70 436 71 q 440 69 439 69 q 453 62 443 68 q 475 49 464 56 q 496 37 486 43 q 508 29 506 31 q 523 22 515 26 q 539 18 531 18 l 539 317 l 529 317 q 476 259 501 288 q 422 208 450 231 q 360 171 393 185 q 286 157 328 157 q 259 158 279 157 q 232 158 239 158 q 192 190 204 167 q 172 238 179 214 q 172 251 172 242 q 172 275 172 263 q 171 297 171 288 q 171 313 171 308 q 174 391 171 351 q 192 463 178 431 q 235 515 207 494 q 311 536 263 536 q 370 527 343 536 q 423 506 397 518 q 474 479 449 493 q 529 456 500 465 l 529 713 q 519 709 526 713 q 508 703 511 706 q 497 696 506 701 q 479 683 489 690 q 460 671 469 676 q 450 664 451 665 q 448 663 450 664 q 444 663 446 663 q 408 669 426 663 q 372 683 390 675 q 332 698 353 692 q 289 704 311 704 q 165 674 217 704 q 79 594 113 643 q 30 482 46 544 q 14 357 14 419 q 22 259 14 308 q 46 163 29 210 q 89 74 63 115 q 153 0 115 32 l 153 -10 l 36 -158 z "},"È":{"ha":535,"x_min":14,"x_max":519,"o":"m 410 54 l 519 -6 l 519 326 l 340 158 l 242 158 l 242 333 q 251 335 244 333 q 261 338 258 338 q 280 330 265 336 q 311 317 294 324 q 342 305 328 311 q 361 297 357 299 q 366 297 363 297 q 371 296 369 296 l 371 519 l 232 457 l 232 575 l 400 575 q 409 572 401 575 q 421 565 417 568 q 436 556 425 563 q 460 540 447 549 q 484 525 472 532 q 500 515 496 518 l 510 515 l 510 728 q 481 722 493 728 q 456 710 468 717 q 428 697 443 703 q 390 692 413 692 q 296 697 343 692 q 202 708 249 701 q 108 719 156 714 q 14 724 61 724 l 14 714 q 24 703 17 711 q 40 685 32 694 q 54 667 47 675 q 64 654 61 658 q 70 644 67 651 q 74 635 74 636 l 74 108 q 53 86 67 103 q 40 54 40 69 l 410 54 m 358 756 l 358 744 q 344 745 356 744 q 329 746 332 746 q 271 753 313 747 q 183 765 229 758 q 94 776 136 771 q 36 785 53 782 q 27 788 33 785 q 18 794 21 792 l 18 799 l 18 804 l 89 944 l 358 756 z "},"É":{"ha":535,"x_min":14,"x_max":519,"o":"m 410 54 l 519 -6 l 519 326 l 340 158 l 242 158 l 242 333 q 251 335 244 333 q 261 338 258 338 q 280 330 265 336 q 311 317 294 324 q 342 305 328 311 q 361 297 357 299 q 366 297 363 297 q 371 296 369 296 l 371 519 l 232 457 l 232 575 l 400 575 q 409 572 401 575 q 421 565 417 568 q 436 556 425 563 q 460 540 447 549 q 484 525 472 532 q 500 515 496 518 l 510 515 l 510 728 q 481 722 493 728 q 456 710 468 717 q 428 697 443 703 q 390 692 413 692 q 296 697 343 692 q 202 708 249 701 q 108 719 156 714 q 14 724 61 724 l 14 714 q 24 703 17 711 q 40 685 32 694 q 54 667 47 675 q 64 654 61 658 q 70 644 67 651 q 74 635 74 636 l 74 108 q 53 86 67 103 q 40 54 40 69 l 410 54 m 131 778 l 131 767 q 145 767 133 767 q 160 768 157 768 q 219 776 176 769 q 310 788 263 782 q 399 800 357 794 q 458 808 442 806 q 468 812 461 808 q 478 818 475 815 l 478 822 l 478 828 l 406 971 l 131 778 z "},"Ê":{"ha":535,"x_min":10,"x_max":519,"o":"m 410 54 l 519 -6 l 519 326 l 340 158 l 242 158 l 242 333 q 251 335 244 333 q 261 338 258 338 q 280 330 265 336 q 311 317 294 324 q 342 305 328 311 q 361 297 357 299 q 366 297 363 297 q 371 296 369 296 l 371 519 l 232 457 l 232 575 l 400 575 q 409 572 401 575 q 421 565 417 568 q 436 556 425 563 q 460 540 447 549 q 484 525 472 532 q 500 515 496 518 l 510 515 l 510 728 q 481 722 493 728 q 456 710 468 717 q 428 697 443 703 q 390 692 413 692 q 296 697 343 692 q 202 708 249 701 q 108 719 156 714 q 14 724 61 724 l 14 714 q 24 703 17 711 q 40 685 32 694 q 54 667 47 675 q 64 654 61 658 q 70 644 67 651 q 74 635 74 636 l 74 108 q 53 86 67 103 q 40 54 40 69 l 410 54 m 10 792 q 28 780 10 786 q 69 768 46 774 q 114 759 92 763 q 144 756 136 756 q 177 768 165 756 q 200 797 189 781 q 224 825 211 813 q 260 838 238 838 q 292 825 279 838 q 315 797 304 813 q 338 768 326 781 q 365 756 349 756 q 446 767 403 756 q 517 786 489 779 l 517 792 l 517 797 l 507 807 q 463 842 494 817 q 397 896 432 868 q 332 949 363 924 q 289 985 301 975 l 269 994 l 264 994 l 258 994 l 239 985 q 199 953 228 976 q 140 906 171 931 q 80 858 108 881 q 40 826 51 835 l 11 797 q 10 794 11 796 q 10 792 10 793 z "},"Ë":{"ha":535,"x_min":14,"x_max":519,"o":"m 410 54 l 519 -6 l 519 326 l 340 158 l 242 158 l 242 333 q 251 335 244 333 q 261 338 258 338 q 280 330 265 336 q 311 317 294 324 q 342 305 328 311 q 361 297 357 299 q 366 297 363 297 q 371 296 369 296 l 371 519 l 232 457 l 232 575 l 400 575 q 409 572 401 575 q 421 565 417 568 q 436 556 425 563 q 460 540 447 549 q 484 525 472 532 q 500 515 496 518 l 510 515 l 510 728 q 481 722 493 728 q 456 710 468 717 q 428 697 443 703 q 390 692 413 692 q 296 697 343 692 q 202 708 249 701 q 108 719 156 714 q 14 724 61 724 l 14 714 q 24 703 17 711 q 40 685 32 694 q 54 667 47 675 q 64 654 61 658 q 70 644 67 651 q 74 635 74 636 l 74 108 q 53 86 67 103 q 40 54 40 69 l 410 54 m 71 832 q 72 806 71 819 q 79 781 74 792 q 94 764 85 771 q 119 757 104 757 q 171 772 147 757 q 212 808 194 786 q 239 858 229 831 q 249 911 249 886 q 247 926 249 917 q 241 944 244 935 q 232 959 238 953 q 219 965 226 965 l 121 965 q 94 948 104 965 q 79 908 85 931 q 72 863 74 885 q 71 832 71 840 m 288 832 q 289 806 288 819 q 296 781 290 792 q 311 764 301 771 q 336 757 321 757 q 388 772 364 757 q 428 808 411 786 q 456 858 446 831 q 465 911 465 886 q 463 926 465 917 q 458 944 461 935 q 449 959 454 953 q 436 965 443 965 l 338 965 q 311 948 321 965 q 296 908 301 931 q 289 863 290 885 q 288 832 288 840 z "},"Ì":{"ha":356,"x_min":-53,"x_max":342,"o":"m 103 149 q 98 111 103 129 q 88 74 93 93 q 77 38 82 56 q 72 0 72 19 l 93 0 q 119 13 94 0 q 179 42 144 25 q 251 78 214 60 q 311 108 288 96 q 326 119 315 111 q 340 129 338 126 q 341 131 340 129 q 342 133 342 132 q 341 136 342 135 q 340 139 340 138 l 261 228 l 261 524 q 272 572 261 549 q 297 617 283 594 q 321 663 310 640 q 332 711 332 686 l 311 711 l 10 661 l 93 485 q 94 449 93 485 q 97 365 96 414 q 100 265 99 317 q 103 178 101 213 l 103 149 m 288 751 l 288 740 q 273 741 285 740 q 258 742 261 742 q 200 749 242 743 q 112 760 158 754 q 24 772 65 767 q -35 781 -18 778 q -44 784 -37 781 q -53 790 -50 788 l -53 794 l -53 800 l 18 940 l 288 751 z "},"Í":{"ha":356,"x_min":10,"x_max":404,"o":"m 103 149 q 98 111 103 129 q 88 74 93 93 q 77 38 82 56 q 72 0 72 19 l 93 0 q 119 13 94 0 q 179 42 144 25 q 251 78 214 60 q 311 108 288 96 q 326 119 315 111 q 340 129 338 126 q 341 131 340 129 q 342 133 342 132 q 341 136 342 135 q 340 139 340 138 l 261 228 l 261 524 q 272 572 261 549 q 297 617 283 594 q 321 663 310 640 q 332 711 332 686 l 311 711 l 10 661 l 93 485 q 94 449 93 485 q 97 365 96 414 q 100 265 99 317 q 103 178 101 213 l 103 149 m 57 739 l 57 728 q 72 728 60 728 q 86 729 83 729 q 146 737 103 731 q 236 749 189 743 q 326 761 283 756 q 385 769 368 767 q 394 773 388 769 q 404 779 401 776 l 404 783 l 404 789 l 332 932 l 57 739 z "},"Î":{"ha":356,"x_min":-68,"x_max":439,"o":"m 103 149 q 98 111 103 129 q 88 74 93 93 q 77 38 82 56 q 72 0 72 19 l 93 0 q 119 13 94 0 q 179 42 144 25 q 251 78 214 60 q 311 108 288 96 q 326 119 315 111 q 340 129 338 126 q 341 131 340 129 q 342 133 342 132 q 341 136 342 135 q 340 139 340 138 l 261 228 l 261 524 q 272 572 261 549 q 297 617 283 594 q 321 663 310 640 q 332 711 332 686 l 311 711 l 10 661 l 93 485 q 94 449 93 485 q 97 365 96 414 q 100 265 99 317 q 103 178 101 213 l 103 149 m -68 783 q -50 772 -68 778 q -9 760 -32 765 q 36 751 14 754 q 67 747 58 747 q 99 760 88 747 q 122 788 111 772 q 147 817 133 804 q 182 829 160 829 q 214 817 201 829 q 238 788 226 804 q 260 760 249 772 q 288 747 271 747 q 368 759 325 747 q 439 778 411 771 l 439 783 l 439 789 l 429 799 q 385 834 417 808 q 319 888 354 860 q 254 941 285 915 q 211 976 224 967 l 192 986 l 186 986 l 181 986 l 161 976 q 122 945 150 968 q 62 897 93 922 q 2 849 31 872 q -37 818 -26 826 l -67 789 q -67 786 -67 788 q -68 783 -68 785 z "},"Ï":{"ha":356,"x_min":8,"x_max":403,"o":"m 103 149 q 98 111 103 129 q 88 74 93 93 q 77 38 82 56 q 72 0 72 19 l 93 0 q 119 13 94 0 q 179 42 144 25 q 251 78 214 60 q 311 108 288 96 q 326 119 315 111 q 340 129 338 126 q 341 131 340 129 q 342 133 342 132 q 341 136 342 135 q 340 139 340 138 l 261 228 l 261 524 q 272 572 261 549 q 297 617 283 594 q 321 663 310 640 q 332 711 332 686 l 311 711 l 10 661 l 93 485 q 94 449 93 485 q 97 365 96 414 q 100 265 99 317 q 103 178 101 213 l 103 149 m 8 826 q 10 800 8 814 q 17 776 11 786 q 32 758 22 765 q 57 751 42 751 q 108 766 85 751 q 149 803 132 781 q 176 853 167 825 q 186 906 186 881 q 184 920 186 911 q 178 938 182 929 q 169 953 175 947 q 157 960 164 960 l 58 960 q 32 942 42 960 q 17 902 22 925 q 10 857 11 879 q 8 826 8 835 m 225 826 q 226 800 225 814 q 233 776 228 786 q 249 758 239 765 q 274 751 258 751 q 325 766 301 751 q 366 803 349 781 q 393 853 383 825 q 403 906 403 881 q 401 920 403 911 q 395 938 399 929 q 386 953 392 947 q 374 960 381 960 l 275 960 q 249 942 258 960 q 233 902 239 925 q 226 857 228 879 q 225 826 225 835 z "},"Ñ":{"ha":554,"x_min":13,"x_max":543,"o":"m 14 129 l 261 0 l 281 0 l 201 168 l 201 206 q 206 301 201 254 q 222 396 210 349 l 440 0 l 543 0 l 489 119 l 489 544 q 497 572 492 553 q 509 614 503 592 q 521 656 515 636 q 529 683 526 675 q 531 698 529 686 q 532 713 532 710 l 519 713 q 497 701 518 713 q 444 674 475 690 q 383 642 414 658 q 331 614 351 625 q 323 609 329 613 q 309 601 317 606 q 296 590 301 596 q 290 579 290 585 q 292 575 290 575 l 371 485 l 371 363 l 217 582 l 281 722 l 261 722 q 235 713 261 722 q 172 692 208 704 q 97 666 135 679 q 33 643 58 653 q 17 637 21 639 q 13 624 13 635 q 13 619 13 622 q 14 614 14 615 q 28 603 18 611 q 49 585 38 594 q 69 567 60 575 q 83 554 79 558 l 93 544 l 93 238 l 14 149 l 14 129 m 47 882 q 57 796 47 838 q 78 708 67 754 q 85 722 79 713 q 98 743 92 732 q 110 764 104 754 q 118 778 115 774 l 128 788 q 139 788 131 788 q 157 788 147 788 q 175 789 167 789 q 188 789 183 789 q 270 778 232 789 q 353 767 308 767 q 415 772 389 767 q 474 797 442 778 q 499 814 483 803 q 514 828 514 825 l 514 833 q 481 833 500 833 q 442 833 463 832 q 401 838 421 835 q 365 847 382 840 q 311 875 336 860 q 262 903 286 890 q 212 926 238 917 q 153 936 186 936 q 118 935 136 936 q 84 929 100 935 q 58 913 68 924 q 47 882 47 903 z "},"Ò":{"ha":564,"x_min":14,"x_max":550,"o":"m 14 351 q 26 240 14 301 q 66 124 39 178 q 137 35 93 71 q 243 -1 181 -1 q 370 36 314 -1 q 467 131 426 74 q 528 258 507 189 q 550 389 550 326 q 528 512 550 451 q 469 619 507 572 q 376 694 431 665 q 256 724 322 724 q 140 687 186 724 q 66 594 94 650 q 26 474 38 539 q 14 351 14 408 m 151 381 q 156 442 151 407 q 174 510 161 478 q 210 563 188 542 q 271 585 233 585 q 326 563 304 585 q 360 510 347 542 q 376 445 372 479 q 381 386 381 411 q 375 319 381 360 q 356 241 369 279 q 318 175 342 203 q 257 147 294 147 q 200 175 221 147 q 169 241 179 203 q 155 318 158 279 q 151 381 151 357 m 356 763 l 356 751 q 341 752 353 751 q 326 753 329 753 q 268 760 310 754 q 180 772 226 765 q 92 783 133 778 q 33 792 50 789 q 24 795 31 792 q 15 801 18 799 l 15 806 l 15 811 l 86 951 l 356 763 z "},"Ó":{"ha":564,"x_min":14,"x_max":550,"o":"m 14 351 q 26 240 14 301 q 66 124 39 178 q 137 35 93 71 q 243 -1 181 -1 q 370 36 314 -1 q 467 131 426 74 q 528 258 507 189 q 550 389 550 326 q 528 512 550 451 q 469 619 507 572 q 376 694 431 665 q 256 724 322 724 q 140 687 186 724 q 66 594 94 650 q 26 474 38 539 q 14 351 14 408 m 151 381 q 156 442 151 407 q 174 510 161 478 q 210 563 188 542 q 271 585 233 585 q 326 563 304 585 q 360 510 347 542 q 376 445 372 479 q 381 386 381 411 q 375 319 381 360 q 356 241 369 279 q 318 175 342 203 q 257 147 294 147 q 200 175 221 147 q 169 241 179 203 q 155 318 158 279 q 151 381 151 357 m 199 757 l 199 746 q 213 747 201 746 q 228 747 225 747 q 288 755 244 749 q 378 767 331 761 q 467 779 425 774 q 526 788 510 785 q 536 791 529 788 q 546 797 543 794 l 546 801 l 546 807 l 474 950 l 199 757 z "},"Ô":{"ha":564,"x_min":14,"x_max":550,"o":"m 14 351 q 26 240 14 301 q 66 124 39 178 q 137 35 93 71 q 243 -1 181 -1 q 370 36 314 -1 q 467 131 426 74 q 528 258 507 189 q 550 389 550 326 q 528 512 550 451 q 469 619 507 572 q 376 694 431 665 q 256 724 322 724 q 140 687 186 724 q 66 594 94 650 q 26 474 38 539 q 14 351 14 408 m 151 381 q 156 442 151 407 q 174 510 161 478 q 210 563 188 542 q 271 585 233 585 q 326 563 304 585 q 360 510 347 542 q 376 445 372 479 q 381 386 381 411 q 375 319 381 360 q 356 241 369 279 q 318 175 342 203 q 257 147 294 147 q 200 175 221 147 q 169 241 179 203 q 155 318 158 279 q 151 381 151 357 m 28 785 q 46 773 28 779 q 87 761 64 767 q 132 752 110 756 q 163 749 154 749 q 195 761 183 749 q 218 790 207 774 q 242 818 229 806 q 278 831 256 831 q 310 818 297 831 q 333 790 322 806 q 356 761 344 774 q 383 749 367 749 q 464 760 421 749 q 535 779 507 772 l 535 785 l 535 790 l 525 800 q 481 835 513 810 q 415 889 450 861 q 350 942 381 917 q 307 978 319 968 l 288 988 l 282 988 l 276 988 l 257 978 q 217 947 246 969 q 158 899 189 924 q 98 851 126 874 q 58 819 69 828 l 29 790 q 28 788 29 789 q 28 785 28 786 z "},"Õ":{"ha":564,"x_min":14,"x_max":550,"o":"m 14 351 q 26 240 14 301 q 66 124 39 178 q 137 35 93 71 q 243 -1 181 -1 q 370 36 314 -1 q 467 131 426 74 q 528 258 507 189 q 550 389 550 326 q 528 512 550 451 q 469 619 507 572 q 376 694 431 665 q 256 724 322 724 q 140 687 186 724 q 66 594 94 650 q 26 474 38 539 q 14 351 14 408 m 151 381 q 156 442 151 407 q 174 510 161 478 q 210 563 188 542 q 271 585 233 585 q 326 563 304 585 q 360 510 347 542 q 376 445 372 479 q 381 386 381 411 q 375 319 381 360 q 356 241 369 279 q 318 175 342 203 q 257 147 294 147 q 200 175 221 147 q 169 241 179 203 q 155 318 158 279 q 151 381 151 357 m 56 889 q 65 803 56 844 q 86 715 75 761 q 94 729 88 719 q 106 750 100 739 q 118 771 113 761 q 126 785 124 781 l 136 794 q 147 794 139 794 q 165 795 156 794 q 183 796 175 796 q 196 796 192 796 q 278 785 240 796 q 361 774 317 774 q 424 779 397 774 q 482 804 450 785 q 507 821 492 810 q 522 835 522 832 l 522 840 q 490 840 508 840 q 450 840 471 839 q 410 844 429 842 q 374 854 390 847 q 319 882 344 867 q 270 910 294 897 q 220 933 246 924 q 161 943 194 943 q 126 942 144 943 q 92 936 108 942 q 66 920 76 931 q 56 889 56 910 z "},"Ö":{"ha":564,"x_min":14,"x_max":550,"o":"m 14 351 q 26 240 14 301 q 66 124 39 178 q 137 35 93 71 q 243 -1 181 -1 q 370 36 314 -1 q 467 131 426 74 q 528 258 507 189 q 550 389 550 326 q 528 512 550 451 q 469 619 507 572 q 376 694 431 665 q 256 724 322 724 q 140 687 186 724 q 66 594 94 650 q 26 474 38 539 q 14 351 14 408 m 151 381 q 156 442 151 407 q 174 510 161 478 q 210 563 188 542 q 271 585 233 585 q 326 563 304 585 q 360 510 347 542 q 376 445 372 479 q 381 386 381 411 q 375 319 381 360 q 356 241 369 279 q 318 175 342 203 q 257 147 294 147 q 200 175 221 147 q 169 241 179 203 q 155 318 158 279 q 151 381 151 357 m 92 826 q 93 800 92 814 q 100 776 94 786 q 115 758 106 765 q 140 751 125 751 q 192 766 168 751 q 233 803 215 781 q 260 853 250 825 q 269 906 269 881 q 267 920 269 911 q 262 938 265 929 q 253 953 258 947 q 240 960 247 960 l 142 960 q 115 942 125 960 q 100 902 106 925 q 93 857 94 879 q 92 826 92 835 m 308 826 q 310 800 308 814 q 317 776 311 786 q 332 758 322 765 q 357 751 342 751 q 408 766 385 751 q 449 803 432 781 q 476 853 467 825 q 486 906 486 881 q 484 920 486 911 q 478 938 482 929 q 469 953 475 947 q 457 960 464 960 l 358 960 q 332 942 342 960 q 317 902 322 925 q 310 857 311 879 q 308 826 308 835 z "},"Ù":{"ha":654,"x_min":10,"x_max":640,"o":"m 74 357 q 74 252 71 307 q 94 147 78 197 q 144 58 111 97 q 232 0 176 18 q 246 0 236 0 q 267 -1 256 0 q 288 -1 278 -1 q 301 -1 297 -1 q 427 27 379 -1 q 503 103 475 56 q 544 210 531 150 q 570 334 558 271 q 596 458 582 397 q 639 565 610 518 q 640 570 639 567 q 640 575 640 574 q 636 589 640 586 q 619 594 632 592 l 390 654 l 360 654 q 365 597 360 625 q 376 540 369 568 q 387 481 382 511 q 392 417 392 451 q 392 386 392 406 q 392 347 392 367 q 391 314 392 329 q 390 297 390 299 q 386 266 390 289 q 374 219 382 243 q 355 177 365 196 q 332 158 344 158 l 263 158 q 244 175 254 158 q 232 199 233 192 l 232 293 q 233 367 232 333 q 240 433 235 401 q 258 497 246 465 q 292 565 271 529 l 292 594 l 10 504 l 74 357 m 356 704 l 356 693 q 341 694 353 693 q 326 694 329 694 q 268 701 310 696 q 180 713 226 707 q 92 725 133 719 q 33 733 50 731 q 24 737 31 733 q 15 743 18 740 l 15 747 l 15 753 l 86 893 l 356 704 z "},"Ú":{"ha":654,"x_min":10,"x_max":640,"o":"m 74 357 q 74 252 71 307 q 94 147 78 197 q 144 58 111 97 q 232 0 176 18 q 246 0 236 0 q 267 -1 256 0 q 288 -1 278 -1 q 301 -1 297 -1 q 427 27 379 -1 q 503 103 475 56 q 544 210 531 150 q 570 334 558 271 q 596 458 582 397 q 639 565 610 518 q 640 570 639 567 q 640 575 640 574 q 636 589 640 586 q 619 594 632 592 l 390 654 l 360 654 q 365 597 360 625 q 376 540 369 568 q 387 481 382 511 q 392 417 392 451 q 392 386 392 406 q 392 347 392 367 q 391 314 392 329 q 390 297 390 299 q 386 266 390 289 q 374 219 382 243 q 355 177 365 196 q 332 158 344 158 l 263 158 q 244 175 254 158 q 232 199 233 192 l 232 293 q 233 367 232 333 q 240 433 235 401 q 258 497 246 465 q 292 565 271 529 l 292 594 l 10 504 l 74 357 m 208 706 l 208 694 q 223 695 211 694 q 238 696 235 696 q 297 703 254 697 q 388 716 340 710 q 477 728 435 722 q 536 736 519 733 q 546 740 539 736 q 556 746 553 743 l 556 750 l 556 756 l 483 899 l 208 706 z "},"Û":{"ha":654,"x_min":10,"x_max":640,"o":"m 74 357 q 74 252 71 307 q 94 147 78 197 q 144 58 111 97 q 232 0 176 18 q 246 0 236 0 q 267 -1 256 0 q 288 -1 278 -1 q 301 -1 297 -1 q 427 27 379 -1 q 503 103 475 56 q 544 210 531 150 q 570 334 558 271 q 596 458 582 397 q 639 565 610 518 q 640 570 639 567 q 640 575 640 574 q 636 589 640 586 q 619 594 632 592 l 390 654 l 360 654 q 365 597 360 625 q 376 540 369 568 q 387 481 382 511 q 392 417 392 451 q 392 386 392 406 q 392 347 392 367 q 391 314 392 329 q 390 297 390 299 q 386 266 390 289 q 374 219 382 243 q 355 177 365 196 q 332 158 344 158 l 263 158 q 244 175 254 158 q 232 199 233 192 l 232 293 q 233 367 232 333 q 240 433 235 401 q 258 497 246 465 q 292 565 271 529 l 292 594 l 10 504 l 74 357 m 71 724 q 89 712 71 718 q 130 700 107 706 q 175 691 153 694 q 206 688 197 688 q 238 700 226 688 q 261 728 250 713 q 285 757 272 744 q 321 769 299 769 q 353 757 340 769 q 376 728 365 744 q 399 700 388 713 q 426 688 410 688 q 507 699 464 688 q 578 718 550 711 l 578 724 l 578 729 l 568 739 q 524 774 556 749 q 458 828 493 800 q 393 881 424 856 q 350 917 363 907 l 331 926 l 325 926 l 319 926 l 300 917 q 260 885 289 908 q 201 838 232 863 q 141 790 169 813 q 101 758 113 767 l 72 729 q 72 726 72 728 q 71 724 71 725 z "},"Ü":{"ha":654,"x_min":10,"x_max":640,"o":"m 74 357 q 74 252 71 307 q 94 147 78 197 q 144 58 111 97 q 232 0 176 18 q 246 0 236 0 q 267 -1 256 0 q 288 -1 278 -1 q 301 -1 297 -1 q 427 27 379 -1 q 503 103 475 56 q 544 210 531 150 q 570 334 558 271 q 596 458 582 397 q 639 565 610 518 q 640 570 639 567 q 640 575 640 574 q 636 589 640 586 q 619 594 632 592 l 390 654 l 360 654 q 365 597 360 625 q 376 540 369 568 q 387 481 382 511 q 392 417 392 451 q 392 386 392 406 q 392 347 392 367 q 391 314 392 329 q 390 297 390 299 q 386 266 390 289 q 374 219 382 243 q 355 177 365 196 q 332 158 344 158 l 263 158 q 244 175 254 158 q 232 199 233 192 l 232 293 q 233 367 232 333 q 240 433 235 401 q 258 497 246 465 q 292 565 271 529 l 292 594 l 10 504 l 74 357 m 139 782 q 140 756 139 769 q 147 731 142 742 q 163 714 153 721 q 188 707 172 707 q 239 722 215 707 q 280 758 263 736 q 307 808 297 781 q 317 861 317 836 q 315 876 317 867 q 309 894 313 885 q 300 909 306 903 q 288 915 294 915 l 189 915 q 163 898 172 915 q 147 858 153 881 q 140 813 142 835 q 139 782 139 790 m 356 782 q 357 756 356 769 q 364 731 358 742 q 379 714 369 721 q 404 707 389 707 q 456 722 432 707 q 497 758 479 736 q 524 808 514 781 q 533 861 533 836 q 531 876 533 867 q 526 894 529 885 q 517 909 522 903 q 504 915 511 915 l 406 915 q 379 898 389 915 q 364 858 369 881 q 357 813 358 835 q 356 782 356 790 z "},"ß":{"ha":585,"x_min":14,"x_max":569,"o":"m 93 488 l 93 21 l 74 -8 q 66 -18 72 -11 q 53 -33 60 -25 q 41 -49 47 -42 q 33 -58 35 -57 l 33 -62 l 33 -68 l 263 -68 l 263 547 q 271 571 263 561 q 292 586 279 581 q 317 594 304 592 q 342 597 331 597 q 357 597 347 597 q 376 594 367 596 q 394 587 386 592 q 401 572 401 582 q 400 567 401 567 q 378 535 396 551 q 341 503 360 518 q 307 474 322 488 q 292 453 292 461 l 292 447 q 293 419 292 439 q 297 378 294 400 q 300 336 299 356 q 301 308 301 317 q 347 268 322 290 q 372 214 372 246 q 363 186 372 197 q 342 165 353 175 q 321 146 331 156 q 311 122 311 136 l 311 111 q 316 86 313 101 q 323 56 319 71 q 328 31 326 42 q 331 21 331 21 l 342 11 l 390 21 q 462 49 428 31 q 519 100 496 68 q 544 153 538 124 q 550 210 550 182 q 528 314 550 268 q 450 388 507 360 q 489 426 468 406 q 528 471 510 447 q 558 521 546 494 q 569 576 569 547 q 553 645 569 617 q 510 692 536 674 q 449 718 483 710 q 379 726 414 726 q 222 706 304 726 q 74 646 140 686 q 50 631 65 640 q 25 615 35 621 q 14 607 15 608 l 14 596 l 93 488 z "},"à":{"ha":564,"x_min":10,"x_max":549,"o":"m 301 29 l 301 -3 l 549 69 l 549 108 l 390 604 q 390 608 390 604 q 389 614 389 613 q 397 640 389 628 q 415 663 406 651 q 433 686 425 675 q 442 713 442 697 l 92 713 q 101 678 92 694 q 123 647 111 663 q 144 614 135 631 q 154 579 154 597 q 153 571 154 576 q 153 564 153 565 l 14 178 l 14 89 l 204 89 q 203 94 204 90 q 201 99 203 97 q 194 113 200 101 q 182 139 189 125 q 169 164 175 153 q 163 178 164 175 q 162 181 163 179 q 161 183 161 182 q 162 186 161 185 q 163 188 163 188 q 174 200 165 192 q 193 217 183 208 q 211 231 203 225 q 222 238 219 238 l 367 238 l 301 29 m 275 507 q 281 504 281 507 q 285 497 282 504 q 292 485 289 489 q 297 467 293 479 q 306 440 301 454 q 315 413 311 425 q 321 396 319 400 q 322 391 321 394 q 322 386 322 388 l 242 386 l 271 504 q 273 506 271 506 q 275 507 275 507 m 350 756 l 350 744 q 335 745 347 744 q 321 746 324 746 q 263 753 304 747 q 174 765 221 758 q 86 776 128 771 q 28 785 44 782 q 19 788 25 785 q 10 794 13 792 l 10 799 l 10 804 l 81 944 l 350 756 z "},"á":{"ha":564,"x_min":14,"x_max":549,"o":"m 301 29 l 301 -3 l 549 69 l 549 108 l 390 604 q 390 608 390 604 q 389 614 389 613 q 397 640 389 628 q 415 663 406 651 q 433 686 425 675 q 442 713 442 697 l 92 713 q 101 678 92 694 q 123 647 111 663 q 144 614 135 631 q 154 579 154 597 q 153 571 154 576 q 153 564 153 565 l 14 178 l 14 89 l 204 89 q 203 94 204 90 q 201 99 203 97 q 194 113 200 101 q 182 139 189 125 q 169 164 175 153 q 163 178 164 175 q 162 181 163 179 q 161 183 161 182 q 162 186 161 185 q 163 188 163 188 q 174 200 165 192 q 193 217 183 208 q 211 231 203 225 q 222 238 219 238 l 367 238 l 301 29 m 275 507 q 281 504 281 507 q 285 497 282 504 q 292 485 289 489 q 297 467 293 479 q 306 440 301 454 q 315 413 311 425 q 321 396 319 400 q 322 391 321 394 q 322 386 322 388 l 242 386 l 271 504 q 273 506 271 506 q 275 507 275 507 m 174 753 l 174 742 q 188 742 176 742 q 203 743 200 743 q 263 751 219 744 q 353 763 306 757 q 442 775 400 769 q 501 783 485 781 q 511 787 504 783 q 521 793 518 790 l 521 797 l 521 803 l 449 946 l 174 753 z "},"â":{"ha":564,"x_min":14,"x_max":549,"o":"m 301 29 l 301 -3 l 549 69 l 549 108 l 390 604 q 390 608 390 604 q 389 614 389 613 q 397 640 389 628 q 415 663 406 651 q 433 686 425 675 q 442 713 442 697 l 92 713 q 101 678 92 694 q 123 647 111 663 q 144 614 135 631 q 154 579 154 597 q 153 571 154 576 q 153 564 153 565 l 14 178 l 14 89 l 204 89 q 203 94 204 90 q 201 99 203 97 q 194 113 200 101 q 182 139 189 125 q 169 164 175 153 q 163 178 164 175 q 162 181 163 179 q 161 183 161 182 q 162 186 161 185 q 163 188 163 188 q 174 200 165 192 q 193 217 183 208 q 211 231 203 225 q 222 238 219 238 l 367 238 l 301 29 m 275 507 q 281 504 281 507 q 285 497 282 504 q 292 485 289 489 q 297 467 293 479 q 306 440 301 454 q 315 413 311 425 q 321 396 319 400 q 322 391 321 394 q 322 386 322 388 l 242 386 l 271 504 q 273 506 271 506 q 275 507 275 507 m 25 774 q 43 762 25 768 q 84 750 61 756 q 129 741 107 744 q 160 738 151 738 q 192 750 181 738 q 215 778 204 763 q 240 807 226 794 q 275 819 253 819 q 307 807 294 819 q 331 778 319 794 q 353 750 342 763 q 381 738 364 738 q 461 749 418 738 q 532 768 504 761 l 532 774 l 532 779 l 522 789 q 478 824 510 799 q 413 878 447 850 q 347 931 378 906 q 304 967 317 957 l 285 976 l 279 976 l 274 976 l 254 967 q 215 935 243 958 q 155 888 186 913 q 95 840 124 863 q 56 808 67 817 l 26 779 q 26 776 26 778 q 25 774 25 775 z "},"ã":{"ha":564,"x_min":14,"x_max":549,"o":"m 301 29 l 301 -3 l 549 69 l 549 108 l 390 604 q 390 608 390 604 q 389 614 389 613 q 397 640 389 628 q 415 663 406 651 q 433 686 425 675 q 442 713 442 697 l 92 713 q 101 678 92 694 q 123 647 111 663 q 144 614 135 631 q 154 579 154 597 q 153 571 154 576 q 153 564 153 565 l 14 178 l 14 89 l 204 89 q 203 94 204 90 q 201 99 203 97 q 194 113 200 101 q 182 139 189 125 q 169 164 175 153 q 163 178 164 175 q 162 181 163 179 q 161 183 161 182 q 162 186 161 185 q 163 188 163 188 q 174 200 165 192 q 193 217 183 208 q 211 231 203 225 q 222 238 219 238 l 367 238 l 301 29 m 275 507 q 281 504 281 507 q 285 497 282 504 q 292 485 289 489 q 297 467 293 479 q 306 440 301 454 q 315 413 311 425 q 321 396 319 400 q 322 391 321 394 q 322 386 322 388 l 242 386 l 271 504 q 273 506 271 506 q 275 507 275 507 m 47 919 q 57 833 47 875 q 78 746 67 792 q 85 760 79 750 q 98 781 92 769 q 110 801 104 792 q 118 815 115 811 l 128 825 q 139 825 131 825 q 157 826 147 825 q 175 826 167 826 q 188 826 183 826 q 270 815 232 826 q 353 804 308 804 q 415 810 389 804 q 474 835 442 815 q 499 851 483 840 q 514 865 514 863 l 514 871 q 481 870 500 871 q 442 871 463 869 q 401 875 421 872 q 365 885 382 878 q 311 913 336 897 q 262 941 286 928 q 212 964 238 954 q 153 974 186 974 q 118 973 136 974 q 84 967 100 972 q 58 951 68 961 q 47 919 47 940 z "},"ä":{"ha":564,"x_min":14,"x_max":549,"o":"m 301 29 l 301 -3 l 549 69 l 549 108 l 390 604 q 390 608 390 604 q 389 614 389 613 q 397 640 389 628 q 415 663 406 651 q 433 686 425 675 q 442 713 442 697 l 92 713 q 101 678 92 694 q 123 647 111 663 q 144 614 135 631 q 154 579 154 597 q 153 571 154 576 q 153 564 153 565 l 14 178 l 14 89 l 204 89 q 203 94 204 90 q 201 99 203 97 q 194 113 200 101 q 182 139 189 125 q 169 164 175 153 q 163 178 164 175 q 162 181 163 179 q 161 183 161 182 q 162 186 161 185 q 163 188 163 188 q 174 200 165 192 q 193 217 183 208 q 211 231 203 225 q 222 238 219 238 l 367 238 l 301 29 m 275 507 q 281 504 281 507 q 285 497 282 504 q 292 485 289 489 q 297 467 293 479 q 306 440 301 454 q 315 413 311 425 q 321 396 319 400 q 322 391 321 394 q 322 386 322 388 l 242 386 l 271 504 q 273 506 271 506 q 275 507 275 507 m 88 840 q 89 814 88 828 q 96 790 90 800 q 111 772 101 779 q 136 765 121 765 q 188 780 164 765 q 228 817 211 794 q 256 867 246 839 q 265 919 265 894 q 263 934 265 925 q 258 952 261 943 q 249 967 254 961 q 236 974 243 974 l 138 974 q 111 956 121 974 q 96 916 101 939 q 89 871 90 893 q 88 840 88 849 m 304 840 q 306 814 304 828 q 313 790 307 800 q 328 772 318 779 q 353 765 338 765 q 404 780 381 765 q 445 817 428 794 q 472 867 463 839 q 482 919 482 894 q 480 934 482 925 q 474 952 478 943 q 465 967 471 961 q 453 974 460 974 l 354 974 q 328 956 338 974 q 313 916 318 939 q 306 871 307 893 q 304 840 304 849 z "},"å":{"ha":564,"x_min":14,"x_max":549,"o":"m 301 29 l 301 -3 l 549 69 l 549 108 l 390 604 q 390 608 390 604 q 389 614 389 613 q 397 640 389 628 q 415 663 406 651 q 433 686 425 675 q 442 713 442 697 l 92 713 q 101 678 92 694 q 123 647 111 663 q 144 614 135 631 q 154 579 154 597 q 153 571 154 576 q 153 564 153 565 l 14 178 l 14 89 l 204 89 q 203 94 204 90 q 201 99 203 97 q 194 113 200 101 q 182 139 189 125 q 169 164 175 153 q 163 178 164 175 q 162 181 163 179 q 161 183 161 182 q 162 186 161 185 q 163 188 163 188 q 174 200 165 192 q 193 217 183 208 q 211 231 203 225 q 222 238 219 238 l 367 238 l 301 29 m 275 507 q 281 504 281 507 q 285 497 282 504 q 292 485 289 489 q 297 467 293 479 q 306 440 301 454 q 315 413 311 425 q 321 396 319 400 q 322 391 321 394 q 322 386 322 388 l 242 386 l 271 504 q 273 506 271 506 q 275 507 275 507 z "},"ç":{"ha":554,"x_min":14,"x_max":539,"o":"m 36 0 l 294 0 q 283 67 294 35 q 271 133 271 100 l 271 139 q 294 144 281 140 q 323 153 308 149 q 350 161 338 157 q 371 168 363 165 q 385 180 375 169 q 405 201 394 190 q 424 220 415 211 q 435 229 433 229 q 438 228 436 229 q 440 228 439 228 q 453 220 443 226 q 475 208 464 214 q 496 195 486 201 q 508 188 506 189 q 523 181 515 185 q 539 176 531 176 l 539 475 l 529 475 q 476 417 501 446 q 422 366 450 389 q 360 329 393 343 q 286 315 328 315 q 259 316 279 315 q 232 317 239 317 q 192 349 204 325 q 172 396 179 372 q 172 410 172 400 q 172 433 172 421 q 171 456 171 446 q 171 471 171 467 q 174 549 171 510 q 192 621 178 589 q 235 674 207 653 q 311 694 263 694 q 369 683 343 694 q 422 658 396 672 q 473 633 447 644 q 529 622 499 622 l 529 867 q 506 860 518 867 q 484 847 494 854 q 465 832 474 839 q 450 822 456 825 q 448 822 450 822 q 444 821 446 821 q 408 827 426 821 q 372 842 390 833 q 332 856 353 850 q 289 863 311 863 q 165 832 217 863 q 79 752 113 801 q 30 640 46 703 q 14 515 14 578 q 22 417 14 467 q 46 321 29 368 q 89 232 63 274 q 153 158 115 190 l 153 149 l 36 0 z "},"è":{"ha":535,"x_min":7,"x_max":519,"o":"m 410 54 l 519 -6 l 519 326 l 340 158 l 242 158 l 242 333 q 251 335 244 333 q 261 338 258 338 q 280 330 265 336 q 311 317 294 324 q 342 305 328 311 q 361 297 357 299 q 366 297 363 297 q 371 296 369 296 l 371 519 l 232 457 l 232 575 l 400 575 q 409 572 401 575 q 421 565 417 568 q 436 556 425 563 q 460 540 447 549 q 484 525 472 532 q 500 515 496 518 l 510 515 l 510 728 q 481 722 493 728 q 456 710 468 717 q 428 697 443 703 q 390 692 413 692 q 296 697 343 692 q 202 708 249 701 q 108 719 156 714 q 14 724 61 724 l 14 714 q 24 703 17 711 q 40 685 32 694 q 54 667 47 675 q 64 654 61 658 q 70 644 67 651 q 74 635 74 636 l 74 108 q 53 86 67 103 q 40 54 40 69 l 410 54 m 347 749 l 347 738 q 333 738 344 738 q 318 739 321 739 q 260 746 301 740 q 172 758 218 751 q 83 769 125 764 q 25 778 42 775 q 16 781 22 778 q 7 788 10 785 l 7 792 l 7 797 l 78 938 l 347 749 z "},"é":{"ha":535,"x_min":14,"x_max":519,"o":"m 410 54 l 519 -6 l 519 326 l 340 158 l 242 158 l 242 333 q 251 335 244 333 q 261 338 258 338 q 280 330 265 336 q 311 317 294 324 q 342 305 328 311 q 361 297 357 299 q 366 297 363 297 q 371 296 369 296 l 371 519 l 232 457 l 232 575 l 400 575 q 409 572 401 575 q 421 565 417 568 q 436 556 425 563 q 460 540 447 549 q 484 525 472 532 q 500 515 496 518 l 510 515 l 510 728 q 481 722 493 728 q 456 710 468 717 q 428 697 443 703 q 390 692 413 692 q 296 697 343 692 q 202 708 249 701 q 108 719 156 714 q 14 724 61 724 l 14 714 q 24 703 17 711 q 40 685 32 694 q 54 667 47 675 q 64 654 61 658 q 70 644 67 651 q 74 635 74 636 l 74 108 q 53 86 67 103 q 40 54 40 69 l 410 54 m 144 767 l 144 756 q 159 756 147 756 q 174 757 171 757 q 233 765 190 758 q 324 777 276 771 q 413 789 371 783 q 472 797 456 794 q 482 801 475 797 q 492 807 489 804 l 492 811 l 492 817 l 419 960 l 144 767 z "},"ê":{"ha":535,"x_min":13,"x_max":519,"o":"m 410 54 l 519 -6 l 519 326 l 340 158 l 242 158 l 242 333 q 251 335 244 333 q 261 338 258 338 q 280 330 265 336 q 311 317 294 324 q 342 305 328 311 q 361 297 357 299 q 366 297 363 297 q 371 296 369 296 l 371 519 l 232 457 l 232 575 l 400 575 q 409 572 401 575 q 421 565 417 568 q 436 556 425 563 q 460 540 447 549 q 484 525 472 532 q 500 515 496 518 l 510 515 l 510 728 q 481 722 493 728 q 456 710 468 717 q 428 697 443 703 q 390 692 413 692 q 296 697 343 692 q 202 708 249 701 q 108 719 156 714 q 14 724 61 724 l 14 714 q 24 703 17 711 q 40 685 32 694 q 54 667 47 675 q 64 654 61 658 q 70 644 67 651 q 74 635 74 636 l 74 108 q 53 86 67 103 q 40 54 40 69 l 410 54 m 13 783 q 31 772 13 778 q 72 760 49 765 q 117 751 94 754 q 147 747 139 747 q 180 760 168 747 q 203 788 192 772 q 227 817 214 804 q 263 829 240 829 q 294 817 282 829 q 318 788 307 804 q 340 760 329 772 q 368 747 351 747 q 449 759 406 747 q 519 778 492 771 l 519 783 l 519 789 l 510 799 q 466 834 497 808 q 400 888 435 860 q 335 941 365 915 q 292 976 304 967 l 272 986 l 267 986 l 261 986 l 242 976 q 202 945 231 968 q 142 897 174 922 q 83 849 111 872 q 43 818 54 826 l 14 789 q 13 786 14 788 q 13 783 13 785 z "},"ë":{"ha":535,"x_min":14,"x_max":519,"o":"m 410 54 l 519 -6 l 519 326 l 340 158 l 242 158 l 242 333 q 251 335 244 333 q 261 338 258 338 q 280 330 265 336 q 311 317 294 324 q 342 305 328 311 q 361 297 357 299 q 366 297 363 297 q 371 296 369 296 l 371 519 l 232 457 l 232 575 l 400 575 q 409 572 401 575 q 421 565 417 568 q 436 556 425 563 q 460 540 447 549 q 484 525 472 532 q 500 515 496 518 l 510 515 l 510 728 q 481 722 493 728 q 456 710 468 717 q 428 697 443 703 q 390 692 413 692 q 296 697 343 692 q 202 708 249 701 q 108 719 156 714 q 14 724 61 724 l 14 714 q 24 703 17 711 q 40 685 32 694 q 54 667 47 675 q 64 654 61 658 q 70 644 67 651 q 74 635 74 636 l 74 108 q 53 86 67 103 q 40 54 40 69 l 410 54 m 76 829 q 78 803 76 817 q 85 778 79 789 q 100 761 90 768 q 125 754 110 754 q 176 769 153 754 q 217 806 200 783 q 244 856 235 828 q 254 908 254 883 q 252 923 254 914 q 247 941 250 932 q 238 956 243 950 q 225 963 232 963 l 126 963 q 100 945 110 963 q 85 905 90 928 q 78 860 79 882 q 76 829 76 838 m 293 829 q 294 803 293 817 q 301 778 296 789 q 317 761 307 768 q 342 754 326 754 q 393 769 369 754 q 434 806 417 783 q 461 856 451 828 q 471 908 471 883 q 469 923 471 914 q 463 941 467 932 q 454 956 460 950 q 442 963 449 963 l 343 963 q 317 945 326 963 q 301 905 307 928 q 294 860 296 882 q 293 829 293 838 z "},"ì":{"ha":356,"x_min":-71,"x_max":342,"o":"m 103 149 q 98 111 103 129 q 88 74 93 93 q 77 38 82 56 q 72 0 72 19 l 93 0 q 119 13 94 0 q 179 42 144 25 q 251 78 214 60 q 311 108 288 96 q 326 119 315 111 q 340 129 338 126 q 341 131 340 129 q 342 133 342 132 q 341 136 342 135 q 340 139 340 138 l 261 228 l 261 524 q 272 572 261 549 q 297 617 283 594 q 321 663 310 640 q 332 711 332 686 l 311 711 l 10 661 l 93 485 q 94 449 93 485 q 97 365 96 414 q 100 265 99 317 q 103 178 101 213 l 103 149 m 269 749 l 269 738 q 255 738 267 738 q 240 739 243 739 q 182 746 224 740 q 94 758 140 751 q 6 769 47 764 q -53 778 -36 775 q -62 781 -56 778 q -71 788 -68 785 l -71 792 l -71 797 l 0 938 l 269 749 z "},"í":{"ha":356,"x_min":10,"x_max":396,"o":"m 103 149 q 98 111 103 129 q 88 74 93 93 q 77 38 82 56 q 72 0 72 19 l 93 0 q 119 13 94 0 q 179 42 144 25 q 251 78 214 60 q 311 108 288 96 q 326 119 315 111 q 340 129 338 126 q 341 131 340 129 q 342 133 342 132 q 341 136 342 135 q 340 139 340 138 l 261 228 l 261 524 q 272 572 261 549 q 297 617 283 594 q 321 663 310 640 q 332 711 332 686 l 311 711 l 10 661 l 93 485 q 94 449 93 485 q 97 365 96 414 q 100 265 99 317 q 103 178 101 213 l 103 149 m 49 768 l 49 757 q 63 758 51 757 q 78 758 75 758 q 138 766 94 760 q 228 778 181 772 q 317 790 275 785 q 376 799 360 796 q 386 802 379 799 q 396 808 393 806 l 396 813 l 396 818 l 324 961 l 49 768 z "},"î":{"ha":356,"x_min":-57,"x_max":450,"o":"m 103 149 q 98 111 103 129 q 88 74 93 93 q 77 38 82 56 q 72 0 72 19 l 93 0 q 119 13 94 0 q 179 42 144 25 q 251 78 214 60 q 311 108 288 96 q 326 119 315 111 q 340 129 338 126 q 341 131 340 129 q 342 133 342 132 q 341 136 342 135 q 340 139 340 138 l 261 228 l 261 524 q 272 572 261 549 q 297 617 283 594 q 321 663 310 640 q 332 711 332 686 l 311 711 l 10 661 l 93 485 q 94 449 93 485 q 97 365 96 414 q 100 265 99 317 q 103 178 101 213 l 103 149 m -57 771 q -39 759 -57 765 q 2 747 -21 753 q 47 738 25 742 q 78 735 69 735 q 110 747 99 735 q 133 776 122 760 q 158 804 144 792 q 193 817 171 817 q 225 804 213 817 q 249 776 238 792 q 271 747 260 760 q 299 735 282 735 q 379 747 336 735 q 450 765 422 758 l 450 771 l 450 776 l 440 786 q 397 822 428 796 q 331 875 365 847 q 265 928 296 903 q 222 964 235 954 l 203 974 l 197 974 l 192 974 l 172 964 q 133 933 161 956 q 73 885 104 910 q 13 837 42 860 q -26 806 -15 814 l -56 776 q -56 774 -56 775 q -57 771 -57 772 z "},"ï":{"ha":356,"x_min":-10,"x_max":385,"o":"m 103 149 q 98 111 103 129 q 88 74 93 93 q 77 38 82 56 q 72 0 72 19 l 93 0 q 119 13 94 0 q 179 42 144 25 q 251 78 214 60 q 311 108 288 96 q 326 119 315 111 q 340 129 338 126 q 341 131 340 129 q 342 133 342 132 q 341 136 342 135 q 340 139 340 138 l 261 228 l 261 524 q 272 572 261 549 q 297 617 283 594 q 321 663 310 640 q 332 711 332 686 l 311 711 l 10 661 l 93 485 q 94 449 93 485 q 97 365 96 414 q 100 265 99 317 q 103 178 101 213 l 103 149 m -10 824 q -8 797 -10 811 q -1 773 -7 783 q 14 756 4 763 q 39 749 24 749 q 90 763 67 749 q 131 800 114 778 q 158 850 149 822 q 168 903 168 878 q 166 917 168 908 q 160 935 164 926 q 151 951 157 944 q 139 957 146 957 l 40 957 q 14 940 24 957 q -1 899 4 922 q -8 854 -7 876 q -10 824 -10 832 m 207 824 q 208 797 207 811 q 215 773 210 783 q 231 756 221 763 q 256 749 240 749 q 307 763 283 749 q 348 800 331 778 q 375 850 365 822 q 385 903 385 878 q 383 917 385 908 q 377 935 381 926 q 368 951 374 944 q 356 957 363 957 l 257 957 q 231 940 240 957 q 215 899 221 922 q 208 854 210 876 q 207 824 207 832 z "},"ñ":{"ha":554,"x_min":13,"x_max":543,"o":"m 14 129 l 261 0 l 281 0 l 201 168 l 201 206 q 206 301 201 254 q 222 396 210 349 l 440 0 l 543 0 l 489 119 l 489 544 q 497 572 492 553 q 509 614 503 592 q 521 656 515 636 q 529 683 526 675 q 531 698 529 686 q 532 713 532 710 l 519 713 q 497 701 518 713 q 444 674 475 690 q 383 642 414 658 q 331 614 351 625 q 323 609 329 613 q 309 601 317 606 q 296 590 301 596 q 290 579 290 585 q 292 575 290 575 l 371 485 l 371 363 l 217 582 l 281 722 l 261 722 q 235 713 261 722 q 172 692 208 704 q 97 666 135 679 q 33 643 58 653 q 17 637 21 639 q 13 624 13 635 q 13 619 13 622 q 14 614 14 615 q 28 603 18 611 q 49 585 38 594 q 69 567 60 575 q 83 554 79 558 l 93 544 l 93 238 l 14 149 l 14 129 m 51 882 q 61 796 51 838 q 82 708 71 754 q 90 722 83 713 q 102 743 96 732 q 114 764 108 754 q 122 778 119 774 l 132 788 q 143 788 135 788 q 161 788 151 788 q 179 789 171 789 q 192 789 188 789 q 274 778 236 789 q 357 767 313 767 q 419 772 393 767 q 478 797 446 778 q 503 814 488 803 q 518 828 518 825 l 518 833 q 485 833 504 833 q 446 833 467 832 q 406 838 425 835 q 369 847 386 840 q 315 875 340 860 q 266 903 290 890 q 216 926 242 917 q 157 936 190 936 q 122 935 140 936 q 88 929 104 935 q 62 913 72 924 q 51 882 51 903 z "},"ò":{"ha":564,"x_min":14,"x_max":550,"o":"m 14 351 q 26 240 14 301 q 66 124 39 178 q 137 35 93 71 q 243 -1 181 -1 q 370 36 314 -1 q 467 131 426 74 q 528 258 507 189 q 550 389 550 326 q 528 512 550 451 q 469 619 507 572 q 376 694 431 665 q 256 724 322 724 q 140 687 186 724 q 66 594 94 650 q 26 474 38 539 q 14 351 14 408 m 151 381 q 156 442 151 407 q 174 510 161 478 q 210 563 188 542 q 271 585 233 585 q 326 563 304 585 q 360 510 347 542 q 376 445 372 479 q 381 386 381 411 q 375 319 381 360 q 356 241 369 279 q 318 175 342 203 q 257 147 294 147 q 200 175 221 147 q 169 241 179 203 q 155 318 158 279 q 151 381 151 357 m 354 754 l 354 743 q 340 744 351 743 q 325 744 328 744 q 267 751 308 746 q 178 763 225 757 q 90 775 132 769 q 32 783 49 781 q 23 787 29 783 q 14 793 17 790 l 14 797 l 14 803 l 85 943 l 354 754 z "},"ó":{"ha":564,"x_min":14,"x_max":550,"o":"m 14 351 q 26 240 14 301 q 66 124 39 178 q 137 35 93 71 q 243 -1 181 -1 q 370 36 314 -1 q 467 131 426 74 q 528 258 507 189 q 550 389 550 326 q 528 512 550 451 q 469 619 507 572 q 376 694 431 665 q 256 724 322 724 q 140 687 186 724 q 66 594 94 650 q 26 474 38 539 q 14 351 14 408 m 151 381 q 156 442 151 407 q 174 510 161 478 q 210 563 188 542 q 271 585 233 585 q 326 563 304 585 q 360 510 347 542 q 376 445 372 479 q 381 386 381 411 q 375 319 381 360 q 356 241 369 279 q 318 175 342 203 q 257 147 294 147 q 200 175 221 147 q 169 241 179 203 q 155 318 158 279 q 151 381 151 357 m 185 772 l 185 761 q 199 762 188 761 q 214 763 211 763 q 274 770 231 764 q 364 783 317 776 q 453 794 411 789 q 513 803 496 800 q 522 806 515 803 q 532 813 529 810 l 532 817 l 532 822 l 460 965 l 185 772 z "},"ô":{"ha":564,"x_min":14,"x_max":550,"o":"m 14 351 q 26 240 14 301 q 66 124 39 178 q 137 35 93 71 q 243 -1 181 -1 q 370 36 314 -1 q 467 131 426 74 q 528 258 507 189 q 550 389 550 326 q 528 512 550 451 q 469 619 507 572 q 376 694 431 665 q 256 724 322 724 q 140 687 186 724 q 66 594 94 650 q 26 474 38 539 q 14 351 14 408 m 151 381 q 156 442 151 407 q 174 510 161 478 q 210 563 188 542 q 271 585 233 585 q 326 563 304 585 q 360 510 347 542 q 376 445 372 479 q 381 386 381 411 q 375 319 381 360 q 356 241 369 279 q 318 175 342 203 q 257 147 294 147 q 200 175 221 147 q 169 241 179 203 q 155 318 158 279 q 151 381 151 357 m 25 781 q 43 769 25 775 q 84 757 61 763 q 129 748 107 751 q 160 744 151 744 q 192 757 181 744 q 215 785 204 769 q 240 814 226 801 q 275 826 253 826 q 307 814 294 826 q 331 785 319 801 q 353 757 342 769 q 381 744 364 744 q 461 756 418 744 q 532 775 504 768 l 532 781 l 532 786 l 522 796 q 478 831 510 806 q 413 885 447 857 q 347 938 378 913 q 304 974 317 964 l 285 983 l 279 983 l 274 983 l 254 974 q 215 942 243 965 q 155 894 186 919 q 95 847 124 869 q 56 815 67 824 l 26 786 q 26 783 26 785 q 25 781 25 782 z "},"õ":{"ha":564,"x_min":14,"x_max":550,"o":"m 14 351 q 26 240 14 301 q 66 124 39 178 q 137 35 93 71 q 243 -1 181 -1 q 370 36 314 -1 q 467 131 426 74 q 528 258 507 189 q 550 389 550 326 q 528 512 550 451 q 469 619 507 572 q 376 694 431 665 q 256 724 322 724 q 140 687 186 724 q 66 594 94 650 q 26 474 38 539 q 14 351 14 408 m 151 381 q 156 442 151 407 q 174 510 161 478 q 210 563 188 542 q 271 585 233 585 q 326 563 304 585 q 360 510 347 542 q 376 445 372 479 q 381 386 381 411 q 375 319 381 360 q 356 241 369 279 q 318 175 342 203 q 257 147 294 147 q 200 175 221 147 q 169 241 179 203 q 155 318 158 279 q 151 381 151 357 m 54 882 q 64 796 54 838 q 85 708 74 754 q 92 722 86 713 q 105 743 99 732 q 117 764 111 754 q 125 778 122 774 l 135 788 q 146 788 138 788 q 164 788 154 788 q 182 789 174 789 q 194 789 190 789 q 277 778 239 789 q 360 767 315 767 q 422 772 396 767 q 481 797 449 778 q 506 814 490 803 q 521 828 521 825 l 521 833 q 488 833 507 833 q 449 833 469 832 q 408 838 428 835 q 372 847 389 840 q 318 875 343 860 q 269 903 293 890 q 219 926 244 917 q 160 936 193 936 q 125 935 143 936 q 91 929 107 935 q 65 913 75 924 q 54 882 54 903 z "},"ö":{"ha":564,"x_min":14,"x_max":550,"o":"m 14 351 q 26 240 14 301 q 66 124 39 178 q 137 35 93 71 q 243 -1 181 -1 q 370 36 314 -1 q 467 131 426 74 q 528 258 507 189 q 550 389 550 326 q 528 512 550 451 q 469 619 507 572 q 376 694 431 665 q 256 724 322 724 q 140 687 186 724 q 66 594 94 650 q 26 474 38 539 q 14 351 14 408 m 151 381 q 156 442 151 407 q 174 510 161 478 q 210 563 188 542 q 271 585 233 585 q 326 563 304 585 q 360 510 347 542 q 376 445 372 479 q 381 386 381 411 q 375 319 381 360 q 356 241 369 279 q 318 175 342 203 q 257 147 294 147 q 200 175 221 147 q 169 241 179 203 q 155 318 158 279 q 151 381 151 357 m 89 833 q 90 807 89 821 q 97 783 92 793 q 113 765 103 772 q 138 758 122 758 q 189 773 165 758 q 230 810 213 788 q 257 860 247 832 q 267 913 267 888 q 265 927 267 918 q 259 945 263 936 q 250 960 256 954 q 238 967 244 967 l 139 967 q 113 949 122 967 q 97 909 103 932 q 90 864 92 886 q 89 833 89 842 m 306 833 q 307 807 306 821 q 314 783 308 793 q 329 765 319 772 q 354 758 339 758 q 406 773 382 758 q 447 810 429 788 q 474 860 464 832 q 483 913 483 888 q 481 927 483 918 q 476 945 479 936 q 467 960 472 954 q 454 967 461 967 l 356 967 q 329 949 339 967 q 314 909 319 932 q 307 864 308 886 q 306 833 306 842 z "},"ù":{"ha":654,"x_min":10,"x_max":640,"o":"m 74 357 q 74 252 71 307 q 94 147 78 197 q 144 58 111 97 q 232 0 176 18 q 246 0 236 0 q 267 -1 256 0 q 288 -1 278 -1 q 301 -1 297 -1 q 427 27 379 -1 q 503 103 475 56 q 544 210 531 150 q 570 334 558 271 q 596 458 582 397 q 639 565 610 518 q 640 570 639 567 q 640 575 640 574 q 636 589 640 586 q 619 594 632 592 l 390 654 l 360 654 q 365 597 360 625 q 376 540 369 568 q 387 481 382 511 q 392 417 392 451 q 392 386 392 406 q 392 347 392 367 q 391 314 392 329 q 390 297 390 299 q 386 266 390 289 q 374 219 382 243 q 355 177 365 196 q 332 158 344 158 l 263 158 q 244 175 254 158 q 232 199 233 192 l 232 293 q 233 367 232 333 q 240 433 235 401 q 258 497 246 465 q 292 565 271 529 l 292 594 l 10 504 l 74 357 m 350 700 l 350 689 q 335 690 347 689 q 321 690 324 690 q 263 697 304 692 q 174 709 221 703 q 86 721 128 715 q 28 729 44 726 q 19 733 25 729 q 10 739 13 736 l 10 743 l 10 749 l 81 889 l 350 700 z "},"ú":{"ha":654,"x_min":10,"x_max":640,"o":"m 74 357 q 74 252 71 307 q 94 147 78 197 q 144 58 111 97 q 232 0 176 18 q 246 0 236 0 q 267 -1 256 0 q 288 -1 278 -1 q 301 -1 297 -1 q 427 27 379 -1 q 503 103 475 56 q 544 210 531 150 q 570 334 558 271 q 596 458 582 397 q 639 565 610 518 q 640 570 639 567 q 640 575 640 574 q 636 589 640 586 q 619 594 632 592 l 390 654 l 360 654 q 365 597 360 625 q 376 540 369 568 q 387 481 382 511 q 392 417 392 451 q 392 386 392 406 q 392 347 392 367 q 391 314 392 329 q 390 297 390 299 q 386 266 390 289 q 374 219 382 243 q 355 177 365 196 q 332 158 344 158 l 263 158 q 244 175 254 158 q 232 199 233 192 l 232 293 q 233 367 232 333 q 240 433 235 401 q 258 497 246 465 q 292 565 271 529 l 292 594 l 10 504 l 74 357 m 278 694 l 278 683 q 292 684 281 683 q 307 685 304 685 q 367 692 324 686 q 457 705 410 699 q 547 717 504 711 q 606 725 589 722 q 615 728 608 725 q 625 735 622 732 l 625 739 l 625 744 l 553 888 l 278 694 z "},"û":{"ha":654,"x_min":10,"x_max":640,"o":"m 74 357 q 74 252 71 307 q 94 147 78 197 q 144 58 111 97 q 232 0 176 18 q 246 0 236 0 q 267 -1 256 0 q 288 -1 278 -1 q 301 -1 297 -1 q 427 27 379 -1 q 503 103 475 56 q 544 210 531 150 q 570 334 558 271 q 596 458 582 397 q 639 565 610 518 q 640 570 639 567 q 640 575 640 574 q 636 589 640 586 q 619 594 632 592 l 390 654 l 360 654 q 365 597 360 625 q 376 540 369 568 q 387 481 382 511 q 392 417 392 451 q 392 386 392 406 q 392 347 392 367 q 391 314 392 329 q 390 297 390 299 q 386 266 390 289 q 374 219 382 243 q 355 177 365 196 q 332 158 344 158 l 263 158 q 244 175 254 158 q 232 199 233 192 l 232 293 q 233 367 232 333 q 240 433 235 401 q 258 497 246 465 q 292 565 271 529 l 292 594 l 10 504 l 74 357 m 65 725 q 83 713 65 719 q 124 701 101 707 q 169 692 147 696 q 200 689 192 689 q 233 701 221 689 q 256 730 244 714 q 280 758 267 746 q 315 771 293 771 q 347 758 335 771 q 371 730 360 746 q 393 701 382 714 q 421 689 404 689 q 501 701 458 689 q 572 719 544 713 l 572 725 l 572 731 l 563 740 q 519 776 550 750 q 453 829 488 801 q 388 883 418 857 q 344 918 357 908 l 325 928 l 319 928 l 314 928 l 294 918 q 255 887 283 910 q 195 839 226 864 q 135 791 164 814 q 96 760 107 768 l 67 731 q 66 728 67 729 q 65 725 65 726 z "},"ü":{"ha":654,"x_min":10,"x_max":640,"o":"m 74 357 q 74 252 71 307 q 94 147 78 197 q 144 58 111 97 q 232 0 176 18 q 246 0 236 0 q 267 -1 256 0 q 288 -1 278 -1 q 301 -1 297 -1 q 427 27 379 -1 q 503 103 475 56 q 544 210 531 150 q 570 334 558 271 q 596 458 582 397 q 639 565 610 518 q 640 570 639 567 q 640 575 640 574 q 636 589 640 586 q 619 594 632 592 l 390 654 l 360 654 q 365 597 360 625 q 376 540 369 568 q 387 481 382 511 q 392 417 392 451 q 392 386 392 406 q 392 347 392 367 q 391 314 392 329 q 390 297 390 299 q 386 266 390 289 q 374 219 382 243 q 355 177 365 196 q 332 158 344 158 l 263 158 q 244 175 254 158 q 232 199 233 192 l 232 293 q 233 367 232 333 q 240 433 235 401 q 258 497 246 465 q 292 565 271 529 l 292 594 l 10 504 l 74 357 m 144 772 q 146 746 144 760 q 153 722 147 732 q 168 704 158 711 q 193 697 178 697 q 244 712 221 697 q 285 749 268 726 q 313 799 303 771 q 322 851 322 826 q 320 866 322 857 q 315 884 318 875 q 306 899 311 893 q 293 906 300 906 l 194 906 q 168 888 178 906 q 153 848 158 871 q 146 803 147 825 q 144 772 144 781 m 361 772 q 363 746 361 760 q 369 722 364 732 q 385 704 375 711 q 410 697 394 697 q 461 712 438 697 q 502 749 485 726 q 529 799 519 771 q 539 851 539 826 q 537 866 539 857 q 531 884 535 875 q 522 899 528 893 q 510 906 517 906 l 411 906 q 385 888 394 906 q 369 848 375 871 q 363 803 364 825 q 361 772 361 781 z "},"":{"ha":0,"x_min":0,"x_max":0,"o":""},"":{"ha":694,"x_min":0,"x_max":0,"o":""},"":{"ha":694,"x_min":0,"x_max":0,"o":""}}}
